Martel Sans-Bold.ufo
<glyph name="exclam" format="1">
  <advance width="350"/>
  <unicode hex="0021"/>
  <outline>
    <contour>
      <point x="252" y="234" type="line"/>
      <point x="262" y="680" type="line"/>
      <point x="78" y="680" type="line"/>
      <point x="98" y="234" type="line"/>
    </contour>
    <contour>
      <point x="233" y="-6"/>
      <point x="280" y="41"/>
      <point x="280" y="99" type="curve" smooth="yes"/>
      <point x="280" y="157"/>
      <point x="233" y="204"/>
      <point x="175" y="204" type="curve" smooth="yes"/>
      <point x="117" y="204"/>
      <point x="70" y="157"/>
      <point x="70" y="99" type="curve" smooth="yes"/>
      <point x="70" y="41"/>
      <point x="117" y="-6"/>
      <point x="175" y="-6" type="curve" smooth="yes"/>
    </contour>
  </outline>
</glyph>
<glyph name="numbersign" format="1">
  <advance width="823"/>
  <unicode hex="0023"/>
  <outline>
    <contour>
      <point x="539" y="0" type="line"/>
      <point x="748" y="680" type="line"/>
      <point x="584" y="680" type="line"/>
      <point x="375" y="0" type="line"/>
    </contour>
    <contour>
      <point x="239" y="0" type="line"/>
      <point x="448" y="680" type="line"/>
      <point x="284" y="680" type="line"/>
      <point x="75" y="0" type="line"/>
    </contour>
    <contour>
      <point x="686" y="152" type="line"/>
      <point x="725" y="279" type="line"/>
      <point x="61" y="279" type="line"/>
      <point x="22" y="152" type="line"/>
    </contour>
    <contour>
      <point x="762" y="401" type="line"/>
      <point x="801" y="528" type="line"/>
      <point x="138" y="528" type="line"/>
      <point x="99" y="401" type="line"/>
    </contour>
  </outline>
</glyph>
<glyph name="dollar" format="1">
  <advance width="664"/>
  <unicode hex="0024"/>
  <outline>
    <contour>
      <point x="498" y="8"/>
      <point x="600" y="84"/>
      <point x="600" y="209" type="curve"/>
      <point x="600" y="406"/>
      <point x="260" y="387"/>
      <point x="260" y="482" type="curve"/>
      <point x="260" y="520"/>
      <point x="307" y="542"/>
      <point x="376" y="542" type="curve"/>
      <point x="431" y="542"/>
      <point x="481" y="527"/>
      <point x="535" y="504" type="curve"/>
      <point x="570" y="626" type="line"/>
      <point x="514" y="655"/>
      <point x="439" y="671"/>
      <point x="370" y="671" type="curve"/>
      <point x="196" y="671"/>
      <point x="84" y="598"/>
      <point x="84" y="470" type="curve"/>
      <point x="84" y="276"/>
      <point x="424" y="305"/>
      <point x="424" y="197" type="curve"/>
      <point x="424" y="154"/>
      <point x="362" y="137"/>
      <point x="297" y="137" type="curve"/>
      <point x="231" y="137"/>
      <point x="172" y="150"/>
      <point x="98" y="178" type="curve"/>
      <point x="64" y="55" type="line"/>
      <point x="123" y="26"/>
      <point x="211" y="8"/>
      <point x="299" y="8" type="curve"/>
    </contour>
    <contour>
      <point x="380" y="-77" type="line"/>
      <point x="380" y="291" type="line"/>
      <point x="470" y="334" type="line"/>
      <point x="470" y="754" type="line"/>
      <point x="317" y="754" type="line"/>
      <point x="317" y="396" type="line"/>
      <point x="227" y="372" type="line"/>
      <point x="227" y="-77" type="line"/>
    </contour>
  </outline>
</glyph>
<glyph name="ampersand" format="1">
  <advance width="739"/>
  <unicode hex="0026"/>
  <outline>
    <contour>
      <point x="679" y="-8"/>
      <point x="712" y="-3"/>
      <point x="736" y="6" type="curve"/>
      <point x="707" y="127" type="line"/>
      <point x="692" y="123"/>
      <point x="678" y="121"/>
      <point x="658" y="121" type="curve" smooth="yes"/>
      <point x="604" y="121"/>
      <point x="555" y="155"/>
      <point x="507" y="208" type="curve" smooth="yes"/>
      <point x="344" y="388" type="line" smooth="yes"/>
      <point x="286" y="448"/>
      <point x="263" y="471"/>
      <point x="263" y="517" type="curve" smooth="yes"/>
      <point x="263" y="542"/>
      <point x="277" y="564"/>
      <point x="305" y="564" type="curve" smooth="yes"/>
      <point x="333" y="564"/>
      <point x="347" y="542"/>
      <point x="347" y="520" type="curve"/>
      <point x="347" y="488"/>
      <point x="327" y="463"/>
      <point x="271" y="429" type="curve"/>
      <point x="348" y="332" type="line"/>
      <point x="462" y="385"/>
      <point x="517" y="442"/>
      <point x="517" y="530" type="curve"/>
      <point x="517" y="614"/>
      <point x="446" y="691"/>
      <point x="307" y="691" type="curve" smooth="yes"/>
      <point x="161" y="691"/>
      <point x="93" y="605"/>
      <point x="93" y="507" type="curve" smooth="yes"/>
      <point x="93" y="443"/>
      <point x="130" y="408"/>
      <point x="194" y="334" type="curve" smooth="yes"/>
      <point x="404" y="101" type="line" smooth="yes"/>
      <point x="490" y="20"/>
      <point x="553" y="-8"/>
      <point x="636" y="-8" type="curve" smooth="yes"/>
    </contour>
    <contour>
      <point x="479" y="-12"/>
      <point x="658" y="208"/>
      <point x="701" y="408" type="curve"/>
      <point x="534" y="423" type="line"/>
      <point x="491" y="249"/>
      <point x="404" y="115"/>
      <point x="285" y="115" type="curve"/>
      <point x="220" y="115"/>
      <point x="188" y="154"/>
      <point x="188" y="197" type="curve" smooth="yes"/>
      <point x="188" y="223"/>
      <point x="204" y="268"/>
      <point x="269" y="307" type="curve"/>
      <point x="192" y="404" type="line"/>
      <point x="72" y="363"/>
      <point x="8" y="283"/>
      <point x="8" y="182" type="curve" smooth="yes"/>
      <point x="8" y="69"/>
      <point x="99" y="-12"/>
      <point x="265" y="-12" type="curve"/>
    </contour>
  </outline>
</glyph>
<glyph name="quotesingle" format="1">
  <advance width="368"/>
  <unicode hex="0027"/>
  <outline>
    <contour>
      <point x="250" y="384" type="line"/>
      <point x="276" y="770" type="line"/>
      <point x="92" y="770" type="line"/>
      <point x="118" y="384" type="line"/>
    </contour>
  </outline>
</glyph>
<glyph name="parenleft" format="1">
  <advance width="360"/>
  <unicode hex="0028"/>
  <outline>
    <contour>
      <point x="327" y="-43" type="line"/>
      <point x="279" y="27"/>
      <point x="231" y="150"/>
      <point x="231" y="294" type="curve"/>
      <point x="231" y="430"/>
      <point x="278" y="561"/>
      <point x="328" y="630" type="curve"/>
      <point x="226" y="714" type="line"/>
      <point x="136" y="627"/>
      <point x="55" y="481"/>
      <point x="55" y="294" type="curve"/>
      <point x="55" y="107"/>
      <point x="136" y="-39"/>
      <point x="226" y="-126" type="curve"/>
    </contour>
  </outline>
</glyph>
<glyph name="parenright" format="1">
  <advance width="360"/>
  <unicode hex="0029"/>
  <outline>
    <contour>
      <point x="224" y="-39"/>
      <point x="305" y="107"/>
      <point x="305" y="294" type="curve"/>
      <point x="305" y="481"/>
      <point x="224" y="627"/>
      <point x="134" y="714" type="curve"/>
      <point x="33" y="631" type="line"/>
      <point x="81" y="561"/>
      <point x="129" y="438"/>
      <point x="129" y="294" type="curve"/>
      <point x="129" y="158"/>
      <point x="82" y="27"/>
      <point x="32" y="-42" type="curve"/>
      <point x="134" y="-126" type="line"/>
    </contour>
  </outline>
</glyph>
<glyph name="asterisk" format="1">
  <advance width="552"/>
  <unicode hex="002A"/>
  <outline>
    <contour>
      <point x="475" y="312" type="line"/>
      <point x="281" y="477" type="line" smooth="yes"/>
      <point x="246" y="443" type="line"/>
      <point x="343" y="221" type="line"/>
    </contour>
    <contour>
      <point x="306" y="443" type="line"/>
      <point x="271" y="477" type="line" smooth="yes"/>
      <point x="77" y="312" type="line"/>
      <point x="209" y="221" type="line"/>
    </contour>
    <contour>
      <point x="261" y="493" type="line" smooth="yes"/>
      <point x="83" y="593" type="line"/>
      <point x="36" y="448" type="line"/>
      <point x="239" y="427" type="line"/>
    </contour>
    <contour>
      <point x="308" y="440" type="line" smooth="yes"/>
      <point x="353" y="680" type="line"/>
      <point x="199" y="680" type="line"/>
      <point x="246" y="440" type="line"/>
    </contour>
    <contour>
      <point x="516" y="448" type="line"/>
      <point x="468" y="593" type="line"/>
      <point x="284" y="493" type="line" smooth="yes"/>
      <point x="319" y="427" type="line"/>
    </contour>
  </outline>
</glyph>
<glyph name="comma" format="1">
  <advance width="351"/>
  <unicode hex="002C"/>
  <outline>
    <contour>
      <point x="229" y="-119"/>
      <point x="310" y="-10"/>
      <point x="255" y="198" type="curve"/>
      <point x="70" y="172" type="line"/>
      <point x="108" y="79"/>
      <point x="122" y="-56"/>
      <point x="43" y="-117" type="curve"/>
      <point x="97" y="-188" type="line"/>
    </contour>
  </outline>
</glyph>
<glyph name="period" format="1">
  <advance width="351"/>
  <unicode hex="002E"/>
  <outline>
    <contour>
      <point x="233" y="-6"/>
      <point x="280" y="41"/>
      <point x="280" y="99" type="curve" smooth="yes"/>
      <point x="280" y="157"/>
      <point x="233" y="204"/>
      <point x="175" y="204" type="curve" smooth="yes"/>
      <point x="117" y="204"/>
      <point x="70" y="157"/>
      <point x="70" y="99" type="curve" smooth="yes"/>
      <point x="70" y="41"/>
      <point x="117" y="-6"/>
      <point x="175" y="-6" type="curve" smooth="yes"/>
    </contour>
  </outline>
</glyph>
<glyph name="slash" format="1">
  <advance width="450"/>
  <unicode hex="002F"/>
  <outline>
    <contour>
      <point x="169" y="-236" type="line"/>
      <point x="457" y="708" type="line"/>
      <point x="280" y="708" type="line"/>
      <point x="-7" y="-236" type="line"/>
    </contour>
  </outline>
</glyph>
<glyph name="zero" format="1">
  <advance width="664"/>
  <unicode hex="0030"/>
  <outline>
    <contour>
      <point x="531" y="-12"/>
      <point x="619" y="150"/>
      <point x="619" y="346" type="curve"/>
      <point x="619" y="536"/>
      <point x="531" y="691"/>
      <point x="332" y="691" type="curve"/>
      <point x="133" y="691"/>
      <point x="45" y="536"/>
      <point x="45" y="346" type="curve"/>
      <point x="45" y="150"/>
      <point x="133" y="-12"/>
      <point x="332" y="-12" type="curve"/>
    </contour>
    <contour>
      <point x="253" y="117"/>
      <point x="225" y="226"/>
      <point x="225" y="346" type="curve"/>
      <point x="225" y="459"/>
      <point x="253" y="562"/>
      <point x="332" y="562" type="curve"/>
      <point x="411" y="562"/>
      <point x="439" y="459"/>
      <point x="439" y="346" type="curve"/>
      <point x="439" y="226"/>
      <point x="411" y="117"/>
      <point x="332" y="117" type="curve"/>
    </contour>
  </outline>
</glyph>
<glyph name="one" format="1">
  <advance width="664"/>
  <unicode hex="0031"/>
  <outline>
    <contour>
      <point x="373" y="555" type="line"/>
      <point x="297" y="680" type="line"/>
      <point x="119" y="680" type="line"/>
      <point x="144" y="555" type="line"/>
    </contour>
    <contour>
      <point x="611" y="0" type="line"/>
      <point x="611" y="125" type="line"/>
      <point x="107" y="125" type="line"/>
      <point x="107" y="0" type="line"/>
    </contour>
    <contour>
      <point x="449" y="0" type="line"/>
      <point x="449" y="680" type="line"/>
      <point x="297" y="680" type="line"/>
      <point x="269" y="581" type="line"/>
      <point x="269" y="0" type="line"/>
    </contour>
  </outline>
</glyph>
<glyph name="two" format="1">
  <advance width="664"/>
  <unicode hex="0032"/>
  <outline>
    <contour>
      <point x="602" y="0" type="line"/>
      <point x="602" y="127" type="line"/>
      <point x="313" y="127" type="line"/>
      <point x="313" y="129" type="line"/>
      <point x="376" y="185" type="line" smooth="yes"/>
      <point x="497" y="292"/>
      <point x="556" y="394"/>
      <point x="556" y="494" type="curve" smooth="yes"/>
      <point x="556" y="613"/>
      <point x="434" y="691"/>
      <point x="291" y="691" type="curve" smooth="yes"/>
      <point x="192" y="691"/>
      <point x="111" y="659"/>
      <point x="48" y="616" type="curve"/>
      <point x="83" y="495" type="line"/>
      <point x="144" y="537"/>
      <point x="203" y="562"/>
      <point x="264" y="562" type="curve" smooth="yes"/>
      <point x="340" y="562"/>
      <point x="380" y="528"/>
      <point x="380" y="475" type="curve" smooth="yes"/>
      <point x="380" y="429"/>
      <point x="336" y="352"/>
      <point x="231" y="252" type="curve" smooth="yes"/>
      <point x="69" y="95" type="line"/>
      <point x="69" y="0" type="line"/>
    </contour>
  </outline>
</glyph>
<glyph name="three" format="1">
  <advance width="664"/>
  <unicode hex="0033"/>
  <outline>
    <contour>
      <point x="479" y="-12"/>
      <point x="586" y="90"/>
      <point x="586" y="210" type="curve" smooth="yes"/>
      <point x="586" y="337"/>
      <point x="435" y="403"/>
      <point x="291" y="381" type="curve"/>
      <point x="294" y="322" type="line"/>
      <point x="441" y="347"/>
      <point x="549" y="413"/>
      <point x="549" y="518" type="curve" smooth="yes"/>
      <point x="549" y="623"/>
      <point x="452" y="691"/>
      <point x="306" y="691" type="curve" smooth="yes"/>
      <point x="211" y="691"/>
      <point x="133" y="670"/>
      <point x="68" y="629" type="curve"/>
      <point x="103" y="509" type="line"/>
      <point x="178" y="548"/>
      <point x="239" y="562"/>
      <point x="296" y="562" type="curve" smooth="yes"/>
      <point x="342" y="562"/>
      <point x="370" y="539"/>
      <point x="370" y="509" type="curve" smooth="yes"/>
      <point x="370" y="440"/>
      <point x="298" y="426"/>
      <point x="185" y="398" type="curve"/>
      <point x="196" y="272" type="line"/>
      <point x="236" y="283"/>
      <point x="273" y="288"/>
      <point x="306" y="288" type="curve" smooth="yes"/>
      <point x="370" y="288"/>
      <point x="407" y="251"/>
      <point x="407" y="199" type="curve" smooth="yes"/>
      <point x="407" y="150"/>
      <point x="365" y="117"/>
      <point x="283" y="117" type="curve" smooth="yes"/>
      <point x="213" y="117"/>
      <point x="146" y="133"/>
      <point x="82" y="158" type="curve"/>
      <point x="48" y="35" type="line"/>
      <point x="109" y="4"/>
      <point x="200" y="-12"/>
      <point x="283" y="-12" type="curve" smooth="yes"/>
    </contour>
  </outline>
</glyph>
<glyph name="four" format="1">
  <advance width="664"/>
  <unicode hex="0034"/>
  <outline>
    <contour>
      <point x="278" y="380" type="line"/>
      <point x="358" y="499" type="line"/>
      <point x="360" y="499" type="line"/>
      <point x="456" y="639" type="line"/>
      <point x="360" y="680" type="line"/>
      <point x="27" y="245" type="line"/>
      <point x="143" y="204" type="line"/>
    </contour>
    <contour>
      <point x="647" y="146" type="line"/>
      <point x="647" y="273" type="line"/>
      <point x="70" y="273" type="line"/>
      <point x="27" y="245" type="line"/>
      <point x="27" y="146" type="line"/>
    </contour>
    <contour>
      <point x="535" y="0" type="line"/>
      <point x="535" y="680" type="line"/>
      <point x="360" y="680" type="line"/>
      <point x="365" y="651" type="line"/>
      <point x="355" y="377" type="line"/>
      <point x="355" y="0" type="line"/>
    </contour>
  </outline>
</glyph>
<glyph name="five" format="1">
  <advance width="664"/>
  <unicode hex="0035"/>
  <outline>
    <contour>
      <point x="490" y="-12"/>
      <point x="601" y="97"/>
      <point x="601" y="225" type="curve"/>
      <point x="601" y="350"/>
      <point x="499" y="440"/>
      <point x="320" y="440" type="curve" smooth="yes"/>
      <point x="250" y="440"/>
      <point x="170" y="416"/>
      <point x="128" y="397" type="curve"/>
      <point x="269" y="350" type="line"/>
      <point x="303" y="652" type="line"/>
      <point x="145" y="553" type="line"/>
      <point x="580" y="553" type="line"/>
      <point x="580" y="680" type="line"/>
      <point x="133" y="680" type="line"/>
      <point x="100" y="293" type="line"/>
      <point x="123" y="276" type="line"/>
      <point x="184" y="296"/>
      <point x="240" y="311"/>
      <point x="300" y="311" type="curve" smooth="yes"/>
      <point x="388" y="311"/>
      <point x="422" y="273"/>
      <point x="422" y="214" type="curve"/>
      <point x="422" y="156"/>
      <point x="382" y="117"/>
      <point x="288" y="117" type="curve" smooth="yes"/>
      <point x="221" y="117"/>
      <point x="158" y="133"/>
      <point x="97" y="158" type="curve"/>
      <point x="63" y="35" type="line"/>
      <point x="121" y="4"/>
      <point x="209" y="-12"/>
      <point x="288" y="-12" type="curve" smooth="yes"/>
    </contour>
  </outline>
</glyph>
<glyph name="six" format="1">
  <advance width="664"/>
  <unicode hex="0036"/>
  <outline>
    <contour>
      <point x="509" y="-15"/>
      <point x="611" y="94"/>
      <point x="611" y="215" type="curve"/>
      <point x="611" y="326"/>
      <point x="521" y="440"/>
      <point x="359" y="440" type="curve" smooth="yes"/>
      <point x="274" y="440"/>
      <point x="195" y="398"/>
      <point x="133" y="340" type="curve"/>
      <point x="205" y="244" type="line"/>
      <point x="242" y="287"/>
      <point x="284" y="313"/>
      <point x="339" y="313" type="curve" smooth="yes"/>
      <point x="398" y="313"/>
      <point x="431" y="264"/>
      <point x="431" y="205" type="curve"/>
      <point x="431" y="155"/>
      <point x="399" y="112"/>
      <point x="332" y="112" type="curve" smooth="yes"/>
      <point x="273" y="112"/>
      <point x="233" y="158"/>
      <point x="233" y="250" type="curve" smooth="yes"/>
      <point x="233" y="482"/>
      <point x="335" y="530"/>
      <point x="522" y="568" type="curve"/>
      <point x="499" y="691" type="line"/>
      <point x="226" y="666"/>
      <point x="53" y="514"/>
      <point x="53" y="271" type="curve" smooth="yes"/>
      <point x="53" y="75"/>
      <point x="169" y="-15"/>
      <point x="332" y="-15" type="curve" smooth="yes"/>
    </contour>
  </outline>
</glyph>
<glyph name="seven" format="1">
  <advance width="664"/>
  <unicode hex="0037"/>
  <outline>
    <contour>
      <point x="327" y="0" type="line"/>
      <point x="616" y="574" type="line"/>
      <point x="616" y="680" type="line"/>
      <point x="48" y="680" type="line"/>
      <point x="48" y="553" type="line"/>
      <point x="433" y="553" type="line"/>
      <point x="433" y="551" type="line"/>
      <point x="120" y="0" type="line"/>
    </contour>
  </outline>
</glyph>
<glyph name="eight" format="1">
  <advance width="664"/>
  <unicode hex="0038"/>
  <outline>
    <contour>
      <point x="524" y="-12"/>
      <point x="609" y="82"/>
      <point x="609" y="194" type="curve" smooth="yes"/>
      <point x="609" y="313"/>
      <point x="492" y="359"/>
      <point x="392" y="397" type="curve" smooth="yes"/>
      <point x="319" y="425"/>
      <point x="255" y="449"/>
      <point x="255" y="495" type="curve" smooth="yes"/>
      <point x="255" y="530"/>
      <point x="278" y="564"/>
      <point x="333" y="564" type="curve"/>
      <point x="387" y="564"/>
      <point x="409" y="533"/>
      <point x="409" y="501" type="curve"/>
      <point x="409" y="471"/>
      <point x="389" y="429"/>
      <point x="327" y="396" type="curve"/>
      <point x="385" y="321" type="line"/>
      <point x="505" y="366"/>
      <point x="589" y="417"/>
      <point x="589" y="511" type="curve"/>
      <point x="589" y="601"/>
      <point x="506" y="691"/>
      <point x="333" y="691" type="curve"/>
      <point x="158" y="691"/>
      <point x="75" y="596"/>
      <point x="75" y="485" type="curve" smooth="yes"/>
      <point x="75" y="383"/>
      <point x="162" y="339"/>
      <point x="250" y="306" type="curve" smooth="yes"/>
      <point x="339" y="272"/>
      <point x="429" y="248"/>
      <point x="429" y="184" type="curve" smooth="yes"/>
      <point x="429" y="149"/>
      <point x="403" y="115"/>
      <point x="333" y="115" type="curve"/>
      <point x="262" y="115"/>
      <point x="235" y="149"/>
      <point x="235" y="181" type="curve"/>
      <point x="235" y="239"/>
      <point x="287" y="282"/>
      <point x="371" y="302" type="curve"/>
      <point x="320" y="398" type="line"/>
      <point x="159" y="357"/>
      <point x="55" y="285"/>
      <point x="55" y="171" type="curve"/>
      <point x="55" y="80"/>
      <point x="140" y="-12"/>
      <point x="333" y="-12" type="curve"/>
    </contour>
  </outline>
</glyph>
<glyph name="nine" format="1">
  <advance width="664"/>
  <unicode hex="0039"/>
  <outline>
    <contour>
      <point x="438" y="10"/>
      <point x="611" y="162"/>
      <point x="611" y="405" type="curve" smooth="yes"/>
      <point x="611" y="601"/>
      <point x="495" y="691"/>
      <point x="332" y="691" type="curve" smooth="yes"/>
      <point x="155" y="691"/>
      <point x="53" y="582"/>
      <point x="53" y="461" type="curve"/>
      <point x="53" y="350"/>
      <point x="143" y="236"/>
      <point x="305" y="236" type="curve" smooth="yes"/>
      <point x="390" y="236"/>
      <point x="469" y="278"/>
      <point x="531" y="336" type="curve"/>
      <point x="459" y="432" type="line"/>
      <point x="422" y="389"/>
      <point x="380" y="363"/>
      <point x="325" y="363" type="curve" smooth="yes"/>
      <point x="266" y="363"/>
      <point x="233" y="412"/>
      <point x="233" y="471" type="curve"/>
      <point x="233" y="521"/>
      <point x="265" y="564"/>
      <point x="332" y="564" type="curve" smooth="yes"/>
      <point x="391" y="564"/>
      <point x="431" y="518"/>
      <point x="431" y="426" type="curve" smooth="yes"/>
      <point x="431" y="194"/>
      <point x="329" y="146"/>
      <point x="142" y="108" type="curve"/>
      <point x="165" y="-15" type="line"/>
    </contour>
  </outline>
</glyph>
<glyph name="colon" format="1">
  <advance width="351"/>
  <unicode hex="003A"/>
  <outline>
    <contour>
      <point x="233" y="370"/>
      <point x="280" y="417"/>
      <point x="280" y="475" type="curve" smooth="yes"/>
      <point x="280" y="533"/>
      <point x="233" y="580"/>
      <point x="175" y="580" type="curve" smooth="yes"/>
      <point x="117" y="580"/>
      <point x="70" y="533"/>
      <point x="70" y="475" type="curve" smooth="yes"/>
      <point x="70" y="417"/>
      <point x="117" y="370"/>
      <point x="175" y="370" type="curve" smooth="yes"/>
    </contour>
    <contour>
      <point x="233" y="-6"/>
      <point x="280" y="41"/>
      <point x="280" y="99" type="curve" smooth="yes"/>
      <point x="280" y="157"/>
      <point x="233" y="204"/>
      <point x="175" y="204" type="curve" smooth="yes"/>
      <point x="117" y="204"/>
      <point x="70" y="157"/>
      <point x="70" y="99" type="curve" smooth="yes"/>
      <point x="70" y="41"/>
      <point x="117" y="-6"/>
      <point x="175" y="-6" type="curve" smooth="yes"/>
    </contour>
  </outline>
</glyph>
<glyph name="semicolon" format="1">
  <advance width="351"/>
  <unicode hex="003B"/>
  <outline>
    <contour>
      <point x="229" y="-119"/>
      <point x="310" y="-10"/>
      <point x="255" y="198" type="curve"/>
      <point x="70" y="172" type="line"/>
      <point x="108" y="79"/>
      <point x="122" y="-56"/>
      <point x="43" y="-117" type="curve"/>
      <point x="97" y="-188" type="line"/>
    </contour>
    <contour>
      <point x="233" y="370"/>
      <point x="280" y="417"/>
      <point x="280" y="475" type="curve" smooth="yes"/>
      <point x="280" y="533"/>
      <point x="233" y="580"/>
      <point x="175" y="580" type="curve" smooth="yes"/>
      <point x="117" y="580"/>
      <point x="70" y="533"/>
      <point x="70" y="475" type="curve" smooth="yes"/>
      <point x="70" y="417"/>
      <point x="117" y="370"/>
      <point x="175" y="370" type="curve" smooth="yes"/>
    </contour>
  </outline>
</glyph>
<glyph name="equal" format="1">
  <advance width="664"/>
  <unicode hex="003D"/>
  <outline>
    <contour>
      <point x="632" y="367" type="line"/>
      <point x="632" y="490" type="line"/>
      <point x="32" y="490" type="line"/>
      <point x="32" y="367" type="line"/>
    </contour>
    <contour>
      <point x="632" y="121" type="line"/>
      <point x="632" y="244" type="line"/>
      <point x="32" y="244" type="line"/>
      <point x="32" y="121" type="line"/>
    </contour>
  </outline>
</glyph>
<glyph name="greater" format="1">
  <advance width="664"/>
  <unicode hex="003E"/>
  <outline>
    <contour>
      <point x="632" y="240" type="line"/>
      <point x="632" y="359" type="line"/>
      <point x="32" y="577" type="line"/>
      <point x="32" y="447" type="line"/>
      <point x="589" y="262" type="line"/>
      <point x="589" y="338" type="line"/>
      <point x="32" y="153" type="line"/>
      <point x="32" y="23" type="line"/>
    </contour>
  </outline>
</glyph>
<glyph name="question" format="1">
  <advance width="539"/>
  <unicode hex="003F"/>
  <outline>
    <contour>
      <point x="265" y="234" type="line"/>
      <point x="271" y="304" type="line"/>
      <point x="393" y="345"/>
      <point x="474" y="402"/>
      <point x="474" y="495" type="curve" smooth="yes"/>
      <point x="474" y="593"/>
      <point x="377" y="681"/>
      <point x="70" y="681" type="curve"/>
      <point x="70" y="552" type="line"/>
      <point x="257" y="552"/>
      <point x="294" y="523"/>
      <point x="294" y="496" type="curve" smooth="yes"/>
      <point x="294" y="452"/>
      <point x="240" y="440"/>
      <point x="129" y="423" type="curve"/>
      <point x="139" y="234" type="line"/>
    </contour>
    <contour>
      <point x="261" y="-6"/>
      <point x="308" y="41"/>
      <point x="308" y="99" type="curve" smooth="yes"/>
      <point x="308" y="157"/>
      <point x="261" y="204"/>
      <point x="203" y="204" type="curve" smooth="yes"/>
      <point x="145" y="204"/>
      <point x="98" y="157"/>
      <point x="98" y="99" type="curve" smooth="yes"/>
      <point x="98" y="41"/>
      <point x="145" y="-6"/>
      <point x="203" y="-6" type="curve" smooth="yes"/>
    </contour>
  </outline>
</glyph>
<glyph name="at" format="1">
  <advance width="957"/>
  <unicode hex="0040"/>
  <outline>
    <contour>
      <point x="586" y="-162"/>
      <point x="671" y="-135"/>
      <point x="737" y="-97" type="curve"/>
      <point x="690" y="9" type="line"/>
      <point x="636" y="-21"/>
      <point x="571" y="-40"/>
      <point x="488" y="-40" type="curve" smooth="yes"/>
      <point x="326" y="-40"/>
      <point x="193" y="52"/>
      <point x="193" y="262" type="curve" smooth="yes"/>
      <point x="193" y="472"/>
      <point x="341" y="564"/>
      <point x="514" y="564" type="curve" smooth="yes"/>
      <point x="681" y="564"/>
      <point x="765" y="458"/>
      <point x="764" y="331" type="curve" smooth="yes"/>
      <point x="763" y="212"/>
      <point x="714" y="150"/>
      <point x="679" y="150" type="curve" smooth="yes"/>
      <point x="657" y="150"/>
      <point x="649" y="162"/>
      <point x="649" y="193" type="curve" smooth="yes"/>
      <point x="649" y="316" type="line" smooth="yes"/>
      <point x="649" y="438"/>
      <point x="608" y="500"/>
      <point x="495" y="500" type="curve" smooth="yes"/>
      <point x="412" y="500"/>
      <point x="346" y="461"/>
      <point x="307" y="435" type="curve"/>
      <point x="331" y="332" type="line"/>
      <point x="390" y="375"/>
      <point x="432" y="389"/>
      <point x="470" y="389" type="curve" smooth="yes"/>
      <point x="513" y="389"/>
      <point x="520" y="357"/>
      <point x="520" y="327" type="curve" smooth="yes"/>
      <point x="520" y="167" type="line" smooth="yes"/>
      <point x="520" y="110"/>
      <point x="556" y="39"/>
      <point x="659" y="39" type="curve" smooth="yes"/>
      <point x="778" y="39"/>
      <point x="917" y="137"/>
      <point x="917" y="332" type="curve" smooth="yes"/>
      <point x="917" y="519"/>
      <point x="779" y="686"/>
      <point x="513" y="686" type="curve" smooth="yes"/>
      <point x="282" y="686"/>
      <point x="40" y="563"/>
      <point x="40" y="263" type="curve" smooth="yes"/>
      <point x="40" y="-37"/>
      <point x="266" y="-162"/>
      <point x="487" y="-162" type="curve" smooth="yes"/>
    </contour>
    <contour>
      <point x="481" y="38"/>
      <point x="528" y="77"/>
      <point x="576" y="125" type="curve"/>
      <point x="583" y="233" type="line"/>
      <point x="544" y="194"/>
      <point x="505" y="149"/>
      <point x="461" y="149" type="curve" smooth="yes"/>
      <point x="441" y="149"/>
      <point x="432" y="159"/>
      <point x="432" y="173" type="curve" smooth="yes"/>
      <point x="432" y="191"/>
      <point x="446" y="217"/>
      <point x="573" y="256" type="curve"/>
      <point x="573" y="347" type="line"/>
      <point x="364" y="295"/>
      <point x="303" y="250"/>
      <point x="303" y="157" type="curve" smooth="yes"/>
      <point x="303" y="88"/>
      <point x="350" y="38"/>
      <point x="415" y="38" type="curve" smooth="yes"/>
    </contour>
  </outline>
</glyph>
<glyph name="A" format="1">
  <advance width="707"/>
  <unicode hex="0041"/>
  <outline>
    <contour>
      <point x="186" y="0" type="line"/>
      <point x="389" y="619" type="line"/>
      <point x="315" y="619" type="line"/>
      <point x="519" y="0" type="line"/>
      <point x="702" y="0" type="line"/>
      <point x="440" y="689" type="line"/>
      <point x="266" y="689" type="line"/>
      <point x="5" y="0" type="line"/>
    </contour>
    <contour>
      <point x="513" y="157" type="line"/>
      <point x="513" y="280" type="line"/>
      <point x="193" y="280" type="line"/>
      <point x="193" y="157" type="line"/>
    </contour>
    <contour>
      <point x="352" y="730" type="move" name="top"/>
    </contour>
    <contour>
      <point x="575" y="-10" type="move" name="bottom"/>
    </contour>
  </outline>
</glyph>
<glyph name="B" format="1">
  <advance width="692"/>
  <unicode hex="0042"/>
  <outline>
    <contour>
      <point x="362" y="0" type="line"/>
      <point x="552" y="0"/>
      <point x="652" y="61"/>
      <point x="652" y="184" type="curve"/>
      <point x="652" y="291"/>
      <point x="571" y="367"/>
      <point x="412" y="367" type="curve"/>
      <point x="181" y="367" type="line"/>
      <point x="181" y="297" type="line"/>
      <point x="362" y="297" type="line"/>
      <point x="431" y="297"/>
      <point x="472" y="273"/>
      <point x="472" y="211" type="curve"/>
      <point x="472" y="149"/>
      <point x="431" y="125"/>
      <point x="362" y="125" type="curve"/>
      <point x="181" y="125" type="line"/>
      <point x="181" y="0" type="line"/>
    </contour>
    <contour>
      <point x="270" y="0" type="line"/>
      <point x="270" y="680" type="line"/>
      <point x="90" y="680" type="line"/>
      <point x="90" y="0" type="line"/>
    </contour>
    <contour>
      <point x="412" y="351" type="line"/>
      <point x="551" y="351"/>
      <point x="622" y="423"/>
      <point x="622" y="514" type="curve" smooth="yes"/>
      <point x="622" y="632"/>
      <point x="532" y="680"/>
      <point x="362" y="680" type="curve"/>
      <point x="181" y="680" type="line"/>
      <point x="181" y="555" type="line"/>
      <point x="362" y="555" type="line"/>
      <point x="411" y="555"/>
      <point x="442" y="541"/>
      <point x="442" y="491" type="curve"/>
      <point x="442" y="441"/>
      <point x="411" y="422"/>
      <point x="362" y="422" type="curve"/>
      <point x="181" y="422" type="line"/>
      <point x="181" y="351" type="line"/>
    </contour>
  </outline>
</glyph>
<glyph name="C" format="1">
  <advance width="682"/>
  <unicode hex="0043"/>
  <outline>
    <contour>
      <point x="507" y="-12"/>
      <point x="587" y="9"/>
      <point x="639" y="35" type="curve"/>
      <point x="605" y="158" type="line"/>
      <point x="565" y="141"/>
      <point x="499" y="117"/>
      <point x="426" y="117" type="curve" smooth="yes"/>
      <point x="292" y="117"/>
      <point x="225" y="215"/>
      <point x="225" y="340" type="curve"/>
      <point x="225" y="462"/>
      <point x="299" y="562"/>
      <point x="434" y="562" type="curve" smooth="yes"/>
      <point x="510" y="562"/>
      <point x="564" y="539"/>
      <point x="602" y="520" type="curve"/>
      <point x="638" y="646" type="line"/>
      <point x="587" y="672"/>
      <point x="517" y="691"/>
      <point x="434" y="691" type="curve" smooth="yes"/>
      <point x="176" y="691"/>
      <point x="45" y="524"/>
      <point x="45" y="341" type="curve"/>
      <point x="45" y="157"/>
      <point x="167" y="-12"/>
      <point x="426" y="-12" type="curve"/>
    </contour>
    <contour>
      <point x="419" y="730" type="move" name="top"/>
    </contour>
    <contour>
      <point x="425" y="-10" type="move" name="bottom"/>
    </contour>
  </outline>
</glyph>
<glyph name="D" format="1">
  <advance width="777"/>
  <unicode hex="0044"/>
  <outline>
    <contour>
      <point x="372" y="0" type="line"/>
      <point x="608" y="0"/>
      <point x="732" y="145"/>
      <point x="732" y="341" type="curve"/>
      <point x="732" y="532"/>
      <point x="608" y="680"/>
      <point x="372" y="680" type="curve"/>
      <point x="181" y="680" type="line"/>
      <point x="181" y="553" type="line"/>
      <point x="372" y="553" type="line"/>
      <point x="487" y="553"/>
      <point x="552" y="465"/>
      <point x="552" y="340" type="curve"/>
      <point x="552" y="213"/>
      <point x="487" y="127"/>
      <point x="372" y="127" type="curve"/>
      <point x="181" y="127" type="line"/>
      <point x="181" y="0" type="line"/>
    </contour>
    <contour>
      <point x="270" y="0" type="line"/>
      <point x="270" y="680" type="line"/>
      <point x="90" y="680" type="line"/>
      <point x="90" y="0" type="line"/>
    </contour>
    <contour>
      <point x="363" y="730" type="move" name="top"/>
    </contour>
  </outline>
</glyph>
<glyph name="E" format="1">
  <advance width="601"/>
  <unicode hex="0045"/>
  <outline>
    <contour>
      <point x="270" y="0" type="line"/>
      <point x="270" y="680" type="line"/>
      <point x="90" y="680" type="line"/>
      <point x="90" y="0" type="line"/>
    </contour>
    <contour>
      <point x="551" y="0" type="line"/>
      <point x="551" y="125" type="line"/>
      <point x="181" y="125" type="line"/>
      <point x="181" y="0" type="line"/>
    </contour>
    <contour>
      <point x="491" y="297" type="line"/>
      <point x="491" y="422" type="line"/>
      <point x="181" y="422" type="line"/>
      <point x="181" y="297" type="line"/>
    </contour>
    <contour>
      <point x="531" y="555" type="line"/>
      <point x="531" y="680" type="line"/>
      <point x="181" y="680" type="line"/>
      <point x="181" y="555" type="line"/>
    </contour>
    <contour>
      <point x="314" y="730" type="move" name="top"/>
    </contour>
    <contour>
      <point x="401" y="-10" type="move" name="bottom"/>
    </contour>
  </outline>
</glyph>
<glyph name="F" format="1">
  <advance width="551"/>
  <unicode hex="0046"/>
  <outline>
    <contour>
      <point x="270" y="0" type="line"/>
      <point x="270" y="680" type="line"/>
      <point x="90" y="680" type="line"/>
      <point x="90" y="0" type="line"/>
    </contour>
    <contour>
      <point x="491" y="256" type="line"/>
      <point x="491" y="383" type="line"/>
      <point x="181" y="383" type="line"/>
      <point x="181" y="256" type="line"/>
    </contour>
    <contour>
      <point x="531" y="553" type="line"/>
      <point x="531" y="680" type="line"/>
      <point x="181" y="680" type="line"/>
      <point x="181" y="553" type="line"/>
    </contour>
  </outline>
</glyph>
<glyph name="H" format="1">
  <advance width="819"/>
  <unicode hex="0048"/>
  <outline>
    <contour>
      <point x="729" y="0" type="line"/>
      <point x="729" y="680" type="line"/>
      <point x="549" y="680" type="line"/>
      <point x="549" y="0" type="line"/>
    </contour>
    <contour>
      <point x="270" y="0" type="line"/>
      <point x="270" y="680" type="line"/>
      <point x="90" y="680" type="line"/>
      <point x="90" y="0" type="line"/>
    </contour>
    <contour>
      <point x="641" y="296" type="line"/>
      <point x="641" y="423" type="line"/>
      <point x="181" y="423" type="line"/>
      <point x="181" y="296" type="line"/>
    </contour>
    <contour>
      <point x="409" y="730" type="move" name="top"/>
    </contour>
    <contour>
      <point x="409" y="-10" type="move" name="bottom"/>
    </contour>
  </outline>
</glyph>
<glyph name="I" format="1">
  <advance width="360"/>
  <unicode hex="0049"/>
  <outline>
    <contour>
      <point x="270" y="0" type="line"/>
      <point x="270" y="680" type="line"/>
      <point x="90" y="680" type="line"/>
      <point x="90" y="0" type="line"/>
    </contour>
    <contour>
      <point x="180" y="730" type="move" name="top"/>
    </contour>
    <contour>
      <point x="146" y="-10" type="move" name="bottom"/>
    </contour>
  </outline>
</glyph>
<glyph name="J" format="1">
  <advance width="360"/>
  <unicode hex="004A"/>
  <outline>
    <contour>
      <point x="197" y="-239"/>
      <point x="270" y="-154"/>
      <point x="270" y="-10" type="curve" smooth="yes"/>
      <point x="270" y="680" type="line"/>
      <point x="90" y="680" type="line"/>
      <point x="90" y="-8" type="line" smooth="yes"/>
      <point x="90" y="-76"/>
      <point x="66" y="-110"/>
      <point x="8" y="-110" type="curve" smooth="yes"/>
      <point x="-17" y="-110"/>
      <point x="-34" y="-108"/>
      <point x="-58" y="-105" type="curve"/>
      <point x="-69" y="-231" type="line"/>
      <point x="-28" y="-236"/>
      <point x="6" y="-239"/>
      <point x="39" y="-239" type="curve" smooth="yes"/>
    </contour>
    <contour>
      <point x="180" y="730" type="move" name="top"/>
    </contour>
  </outline>
</glyph>
<glyph name="K" format="1">
  <advance width="739"/>
  <unicode hex="004B"/>
  <outline>
    <contour>
      <point x="734" y="0" type="line"/>
      <point x="428" y="380" type="line"/>
      <point x="432" y="360" type="line"/>
      <point x="709" y="680" type="line"/>
      <point x="502" y="680" type="line"/>
      <point x="262" y="375" type="line"/>
      <point x="262" y="355" type="line"/>
      <point x="517" y="0" type="line"/>
    </contour>
    <contour>
      <point x="270" y="0" type="line"/>
      <point x="270" y="680" type="line"/>
      <point x="90" y="680" type="line"/>
      <point x="90" y="0" type="line"/>
    </contour>
    <contour>
      <point x="390" y="730" type="move" name="top"/>
    </contour>
    <contour>
      <point x="390" y="-10" type="move" name="bottom"/>
    </contour>
  </outline>
</glyph>
<glyph name="L" format="1">
  <advance width="561"/>
  <unicode hex="004C"/>
  <outline>
    <contour>
      <point x="270" y="0" type="line"/>
      <point x="270" y="680" type="line"/>
      <point x="90" y="680" type="line"/>
      <point x="90" y="0" type="line"/>
    </contour>
    <contour>
      <point x="551" y="0" type="line"/>
      <point x="551" y="125" type="line"/>
      <point x="181" y="125" type="line"/>
      <point x="181" y="0" type="line"/>
    </contour>
    <contour>
      <point x="451" y="364" type="move" name="dot"/>
    </contour>
    <contour>
      <point x="180" y="730" type="move" name="top"/>
    </contour>
    <contour>
      <point x="336" y="315" type="move" name="caronSlovak"/>
    </contour>
    <contour>
      <point x="332" y="-10" type="move" name="bottom"/>
    </contour>
  </outline>
</glyph>
<glyph name="N" format="1">
  <advance width="819"/>
  <unicode hex="004E"/>
  <outline>
    <contour>
      <point x="729" y="0" type="line"/>
      <point x="729" y="680" type="line"/>
      <point x="549" y="680" type="line"/>
      <point x="549" y="475" type="line"/>
      <point x="574" y="64" type="line"/>
      <point x="690" y="83" type="line"/>
      <point x="252" y="680" type="line"/>
      <point x="90" y="680" type="line"/>
      <point x="90" y="0" type="line"/>
      <point x="270" y="0" type="line"/>
      <point x="270" y="204" type="line"/>
      <point x="245" y="613" type="line"/>
      <point x="133" y="594" type="line"/>
      <point x="567" y="-1" type="line"/>
    </contour>
    <contour>
      <point x="408" y="730" type="move" name="top"/>
    </contour>
    <contour>
      <point x="408" y="-10" type="move" name="bottom"/>
    </contour>
  </outline>
</glyph>
<glyph name="O" format="1">
  <advance width="828"/>
  <unicode hex="004F"/>
  <outline>
    <contour>
      <point x="657" y="-12"/>
      <point x="783" y="149"/>
      <point x="783" y="340" type="curve" smooth="yes"/>
      <point x="783" y="529"/>
      <point x="657" y="691"/>
      <point x="414" y="691" type="curve" smooth="yes"/>
      <point x="171" y="691"/>
      <point x="45" y="530"/>
      <point x="45" y="340" type="curve" smooth="yes"/>
      <point x="45" y="150"/>
      <point x="171" y="-12"/>
      <point x="414" y="-12" type="curve" smooth="yes"/>
    </contour>
    <contour>
      <point x="293" y="117"/>
      <point x="225" y="214"/>
      <point x="225" y="340" type="curve" smooth="yes"/>
      <point x="225" y="466"/>
      <point x="293" y="562"/>
      <point x="414" y="562" type="curve" smooth="yes"/>
      <point x="535" y="562"/>
      <point x="603" y="466"/>
      <point x="603" y="340" type="curve" smooth="yes"/>
      <point x="603" y="214"/>
      <point x="535" y="117"/>
      <point x="414" y="117" type="curve" smooth="yes"/>
    </contour>
    <contour>
      <point x="414" y="730" type="move" name="top"/>
    </contour>
    <contour>
      <point x="414" y="-10" type="move" name="bottom"/>
    </contour>
  </outline>
</glyph>
<glyph name="P" format="1">
  <advance width="682"/>
  <unicode hex="0050"/>
  <outline>
    <contour>
      <point x="372" y="230" type="line" smooth="yes"/>
      <point x="568" y="230"/>
      <point x="652" y="300"/>
      <point x="652" y="455" type="curve" smooth="yes"/>
      <point x="652" y="610"/>
      <point x="568" y="680"/>
      <point x="372" y="680" type="curve" smooth="yes"/>
      <point x="181" y="680" type="line"/>
      <point x="181" y="555" type="line"/>
      <point x="372" y="555" type="line" smooth="yes"/>
      <point x="444" y="555"/>
      <point x="472" y="525"/>
      <point x="472" y="455" type="curve" smooth="yes"/>
      <point x="472" y="386"/>
      <point x="444" y="356"/>
      <point x="372" y="355" type="curve" smooth="yes"/>
      <point x="181" y="355" type="line"/>
      <point x="181" y="230" type="line"/>
    </contour>
    <contour>
      <point x="270" y="0" type="line"/>
      <point x="270" y="680" type="line"/>
      <point x="90" y="680" type="line"/>
      <point x="90" y="0" type="line"/>
    </contour>
  </outline>
</glyph>
<glyph name="Q" format="1">
  <advance width="828"/>
  <unicode hex="0051"/>
  <outline>
    <contour>
      <point x="657" y="-12"/>
      <point x="783" y="149"/>
      <point x="783" y="340" type="curve" smooth="yes"/>
      <point x="783" y="529"/>
      <point x="657" y="691"/>
      <point x="414" y="691" type="curve" smooth="yes"/>
      <point x="171" y="691"/>
      <point x="45" y="530"/>
      <point x="45" y="340" type="curve" smooth="yes"/>
      <point x="45" y="150"/>
      <point x="171" y="-12"/>
      <point x="414" y="-12" type="curve" smooth="yes"/>
    </contour>
    <contour>
      <point x="834" y="-239"/>
      <point x="878" y="-226"/>
      <point x="930" y="-196" type="curve"/>
      <point x="914" y="-74" type="line"/>
      <point x="876" y="-95"/>
      <point x="835" y="-107"/>
      <point x="788" y="-107" type="curve" smooth="yes"/>
      <point x="741" y="-107"/>
      <point x="691" y="-90"/>
      <point x="634" y="-22" type="curve" smooth="yes"/>
      <point x="551" y="75" type="line"/>
      <point x="407" y="13" type="line"/>
      <point x="534" y="-138" type="line" smooth="yes"/>
      <point x="598" y="-214"/>
      <point x="680" y="-239"/>
      <point x="783" y="-239" type="curve" smooth="yes"/>
    </contour>
    <contour>
      <point x="293" y="117"/>
      <point x="225" y="214"/>
      <point x="225" y="340" type="curve" smooth="yes"/>
      <point x="225" y="466"/>
      <point x="293" y="562"/>
      <point x="414" y="562" type="curve" smooth="yes"/>
      <point x="535" y="562"/>
      <point x="603" y="466"/>
      <point x="603" y="340" type="curve" smooth="yes"/>
      <point x="603" y="214"/>
      <point x="535" y="117"/>
      <point x="414" y="117" type="curve" smooth="yes"/>
    </contour>
  </outline>
</glyph>
<glyph name="R" format="1">
  <advance width="742"/>
  <unicode hex="0052"/>
  <outline>
    <contour>
      <point x="381" y="250" type="line"/>
      <point x="395" y="263" type="line"/>
      <point x="558" y="263"/>
      <point x="642" y="329"/>
      <point x="642" y="475" type="curve" smooth="yes"/>
      <point x="642" y="616"/>
      <point x="558" y="680"/>
      <point x="362" y="680" type="curve" smooth="yes"/>
      <point x="181" y="680" type="line"/>
      <point x="181" y="555" type="line"/>
      <point x="362" y="555" type="line" smooth="yes"/>
      <point x="434" y="555"/>
      <point x="462" y="528"/>
      <point x="462" y="465" type="curve" smooth="yes"/>
      <point x="462" y="404"/>
      <point x="434" y="375"/>
      <point x="362" y="375" type="curve" smooth="yes"/>
      <point x="181" y="375" type="line"/>
      <point x="181" y="250" type="line"/>
    </contour>
    <contour>
      <point x="270" y="0" type="line"/>
      <point x="270" y="680" type="line"/>
      <point x="90" y="680" type="line"/>
      <point x="90" y="0" type="line"/>
    </contour>
    <contour>
      <point x="732" y="0" type="line"/>
      <point x="508" y="339" type="line" smooth="yes"/>
      <point x="310" y="339" type="line"/>
      <point x="524" y="0" type="line"/>
    </contour>
    <contour>
      <point x="348" y="730" type="move" name="top"/>
    </contour>
    <contour>
      <point x="378" y="-10" type="move" name="bottom"/>
    </contour>
  </outline>
</glyph>
<glyph name="S" format="1">
  <advance width="614"/>
  <unicode hex="0053"/>
  <outline>
    <contour>
      <point x="472" y="-12"/>
      <point x="574" y="68"/>
      <point x="574" y="199" type="curve"/>
      <point x="574" y="410"/>
      <point x="234" y="390"/>
      <point x="234" y="492" type="curve"/>
      <point x="234" y="536"/>
      <point x="281" y="562"/>
      <point x="350" y="562" type="curve"/>
      <point x="405" y="562"/>
      <point x="455" y="547"/>
      <point x="509" y="524" type="curve"/>
      <point x="544" y="646" type="line"/>
      <point x="488" y="675"/>
      <point x="413" y="691"/>
      <point x="344" y="691" type="curve"/>
      <point x="170" y="691"/>
      <point x="58" y="614"/>
      <point x="58" y="480" type="curve"/>
      <point x="58" y="272"/>
      <point x="398" y="303"/>
      <point x="398" y="187" type="curve"/>
      <point x="398" y="137"/>
      <point x="336" y="117"/>
      <point x="271" y="117" type="curve"/>
      <point x="205" y="117"/>
      <point x="146" y="130"/>
      <point x="72" y="158" type="curve"/>
      <point x="38" y="35" type="line"/>
      <point x="97" y="6"/>
      <point x="185" y="-12"/>
      <point x="273" y="-12" type="curve"/>
    </contour>
    <contour>
      <point x="325" y="730" type="move" name="top"/>
    </contour>
    <contour>
      <point x="316" y="-10" type="move" name="bottom"/>
    </contour>
  </outline>
</glyph>
<glyph name="T" format="1">
  <advance width="590"/>
  <unicode hex="0054"/>
  <outline>
    <contour>
      <point x="385" y="0" type="line"/>
      <point x="385" y="680" type="line"/>
      <point x="205" y="680" type="line"/>
      <point x="205" y="0" type="line"/>
    </contour>
    <contour>
      <point x="570" y="553" type="line"/>
      <point x="570" y="680" type="line"/>
      <point x="20" y="680" type="line"/>
      <point x="20" y="553" type="line"/>
    </contour>
    <contour>
      <point x="295" y="730" type="move" name="top"/>
    </contour>
    <contour>
      <point x="295" y="-10" type="move" name="bottom"/>
    </contour>
  </outline>
</glyph>
<glyph name="U" format="1">
  <advance width="799"/>
  <unicode hex="0055"/>
  <outline>
    <contour>
      <point x="610" y="-12"/>
      <point x="719" y="98"/>
      <point x="719" y="274" type="curve" smooth="yes"/>
      <point x="719" y="680" type="line"/>
      <point x="539" y="680" type="line"/>
      <point x="539" y="273" type="line" smooth="yes"/>
      <point x="539" y="160"/>
      <point x="488" y="117"/>
      <point x="400" y="117" type="curve"/>
      <point x="311" y="117"/>
      <point x="260" y="160"/>
      <point x="260" y="273" type="curve" smooth="yes"/>
      <point x="260" y="680" type="line"/>
      <point x="80" y="680" type="line"/>
      <point x="80" y="272" type="line" smooth="yes"/>
      <point x="80" y="98"/>
      <point x="189" y="-12"/>
      <point x="400" y="-12" type="curve"/>
    </contour>
    <contour>
      <point x="400" y="730" type="move" name="top"/>
    </contour>
    <contour>
      <point x="441" y="-10" type="move" name="bottom"/>
    </contour>
  </outline>
</glyph>
<glyph name="V" format="1">
  <advance width="725"/>
  <unicode hex="0056"/>
  <outline>
    <contour>
      <point x="456" y="-5" type="line"/>
      <point x="715" y="680" type="line"/>
      <point x="534" y="680" type="line"/>
      <point x="327" y="50" type="line"/>
      <point x="401" y="50" type="line"/>
      <point x="193" y="680" type="line"/>
      <point x="10" y="680" type="line"/>
      <point x="270" y="-5" type="line"/>
    </contour>
  </outline>
</glyph>
<glyph name="W" format="1">
  <advance width="1112"/>
  <unicode hex="0057"/>
  <outline>
    <contour>
      <point x="414" y="-5" type="line"/>
      <point x="585" y="590" type="line"/>
      <point x="511" y="590" type="line"/>
      <point x="683" y="-5" type="line"/>
      <point x="866" y="-5" type="line"/>
      <point x="1102" y="680" type="line"/>
      <point x="915" y="680" type="line"/>
      <point x="750" y="85" type="line"/>
      <point x="800" y="85" type="line"/>
      <point x="636" y="680" type="line"/>
      <point x="462" y="680" type="line"/>
      <point x="299" y="85" type="line"/>
      <point x="349" y="85" type="line"/>
      <point x="193" y="680" type="line"/>
      <point x="10" y="680" type="line"/>
      <point x="231" y="-5" type="line"/>
    </contour>
    <contour>
      <point x="548" y="730" type="move" name="top"/>
    </contour>
    <contour>
      <point x="548" y="-10" type="move" name="bottom"/>
    </contour>
  </outline>
</glyph>
<glyph name="X" format="1">
  <advance width="746"/>
  <unicode hex="0058"/>
  <outline>
    <contour>
      <point x="223" y="0" type="line"/>
      <point x="429" y="323" type="line"/>
      <point x="462" y="339" type="line"/>
      <point x="712" y="680" type="line"/>
      <point x="504" y="680" type="line"/>
      <point x="326" y="384" type="line"/>
      <point x="285" y="371" type="line"/>
      <point x="15" y="0" type="line"/>
    </contour>
    <contour>
      <point x="731" y="0" type="line"/>
      <point x="458" y="371" type="line"/>
      <point x="418" y="384" type="line"/>
      <point x="239" y="680" type="line"/>
      <point x="28" y="680" type="line"/>
      <point x="276" y="339" type="line"/>
      <point x="313" y="323" type="line"/>
      <point x="520" y="0" type="line"/>
    </contour>
  </outline>
</glyph>
<glyph name="Y" format="1">
  <advance width="692"/>
  <unicode hex="0059"/>
  <outline>
    <contour>
      <point x="401" y="303" type="line"/>
      <point x="194" y="680" type="line"/>
      <point x="5" y="680" type="line"/>
      <point x="263" y="260" type="line"/>
    </contour>
    <contour>
      <point x="436" y="0" type="line"/>
      <point x="436" y="305" type="line"/>
      <point x="256" y="305" type="line"/>
      <point x="256" y="0" type="line"/>
    </contour>
    <contour>
      <point x="687" y="680" type="line"/>
      <point x="500" y="680" type="line"/>
      <point x="292" y="304" type="line"/>
      <point x="428" y="261" type="line"/>
    </contour>
    <contour>
      <point x="346" y="730" type="move" name="top"/>
    </contour>
    <contour>
      <point x="346" y="-10" type="move" name="bottom"/>
    </contour>
  </outline>
</glyph>
<glyph name="Z" format="1">
  <advance width="709"/>
  <unicode hex="005A"/>
  <outline>
    <contour>
      <point x="679" y="0" type="line"/>
      <point x="679" y="127" type="line"/>
      <point x="104" y="127" type="line"/>
      <point x="201" y="33" type="line"/>
      <point x="665" y="573" type="line"/>
      <point x="665" y="680" type="line"/>
      <point x="63" y="680" type="line"/>
      <point x="63" y="553" type="line"/>
      <point x="605" y="553" type="line"/>
      <point x="514" y="647" type="line"/>
      <point x="50" y="99" type="line"/>
      <point x="50" y="0" type="line"/>
    </contour>
    <contour>
      <point x="365" y="730" type="move" name="top"/>
    </contour>
    <contour>
      <point x="386" y="-10" type="move" name="bottom"/>
    </contour>
  </outline>
</glyph>
<glyph name="bracketleft" format="1">
  <advance width="408"/>
  <unicode hex="005B"/>
  <outline>
    <contour>
      <point x="336" y="-127" type="line"/>
      <point x="336" y="-8" type="line"/>
      <point x="246" y="2" type="line"/>
      <point x="246" y="566" type="line"/>
      <point x="336" y="576" type="line"/>
      <point x="336" y="695" type="line"/>
      <point x="72" y="695" type="line"/>
      <point x="72" y="-127" type="line"/>
    </contour>
  </outline>
</glyph>
<glyph name="backslash" format="1">
  <advance width="450"/>
  <unicode hex="005C"/>
  <outline>
    <contour>
      <point x="457" y="-236" type="line"/>
      <point x="170" y="708" type="line"/>
      <point x="-7" y="708" type="line"/>
      <point x="281" y="-236" type="line"/>
    </contour>
  </outline>
</glyph>
<glyph name="asciicircum" format="1">
  <advance width="664"/>
  <unicode hex="005E"/>
  <outline>
    <contour>
      <point x="563" y="140" type="line"/>
      <point x="408" y="430" type="line"/>
      <point x="274" y="430" type="line"/>
      <point x="399" y="140" type="line"/>
    </contour>
    <contour>
      <point x="265" y="140" type="line"/>
      <point x="390" y="430" type="line"/>
      <point x="256" y="430" type="line"/>
      <point x="101" y="140" type="line"/>
    </contour>
  </outline>
</glyph>
<glyph name="a" format="1">
  <advance width="616"/>
  <unicode hex="0061"/>
  <outline>
    <contour>
      <point x="548" y="-6"/>
      <point x="577" y="-2"/>
      <point x="613" y="6" type="curve"/>
      <point x="607" y="124" type="line"/>
      <point x="592" y="120"/>
      <point x="581" y="119"/>
      <point x="569" y="119" type="curve" smooth="yes"/>
      <point x="542" y="119"/>
      <point x="531" y="131"/>
      <point x="531" y="160" type="curve" smooth="yes"/>
      <point x="531" y="350" type="line" smooth="yes"/>
      <point x="531" y="527"/>
      <point x="450" y="580"/>
      <point x="332" y="580" type="curve" smooth="yes"/>
      <point x="219" y="580"/>
      <point x="125" y="543"/>
      <point x="44" y="497" type="curve"/>
      <point x="77" y="377" type="line"/>
      <point x="160" y="432"/>
      <point x="220" y="453"/>
      <point x="273" y="453" type="curve" smooth="yes"/>
      <point x="325" y="453"/>
      <point x="357" y="426"/>
      <point x="357" y="361" type="curve" smooth="yes"/>
      <point x="357" y="137" type="line" smooth="yes"/>
      <point x="357" y="20"/>
      <point x="422" y="-8"/>
      <point x="505" y="-7" type="curve" smooth="yes"/>
    </contour>
    <contour>
      <point x="297" y="-8"/>
      <point x="364" y="43"/>
      <point x="440" y="109" type="curve"/>
      <point x="436" y="207" type="line"/>
      <point x="366" y="158"/>
      <point x="313" y="117"/>
      <point x="258" y="117" type="curve" smooth="yes"/>
      <point x="227" y="117"/>
      <point x="214" y="129"/>
      <point x="214" y="155" type="curve" smooth="yes"/>
      <point x="214" y="196"/>
      <point x="242" y="218"/>
      <point x="342" y="254" type="curve" smooth="yes"/>
      <point x="436" y="287" type="line"/>
      <point x="436" y="379" type="line"/>
      <point x="327" y="348" type="line" smooth="yes"/>
      <point x="146" y="296"/>
      <point x="40" y="265"/>
      <point x="40" y="132" type="curve" smooth="yes"/>
      <point x="40" y="55"/>
      <point x="104" y="-8"/>
      <point x="197" y="-8" type="curve" smooth="yes"/>
    </contour>
    <contour>
      <point x="313" y="620" type="move" name="top"/>
    </contour>
    <contour>
      <point x="480" y="-10" type="move" name="bottom"/>
    </contour>
  </outline>
</glyph>
<glyph name="b" format="1">
  <advance width="695"/>
  <unicode hex="0062"/>
  <outline>
    <contour>
      <point x="520" y="-12"/>
      <point x="655" y="71"/>
      <point x="655" y="285" type="curve" smooth="yes"/>
      <point x="655" y="481"/>
      <point x="543" y="580"/>
      <point x="387" y="580" type="curve" smooth="yes"/>
      <point x="299" y="580"/>
      <point x="231" y="540"/>
      <point x="182" y="487" type="curve"/>
      <point x="182" y="368" type="line"/>
      <point x="249" y="429"/>
      <point x="293" y="455"/>
      <point x="367" y="455" type="curve" smooth="yes"/>
      <point x="426" y="455"/>
      <point x="479" y="420"/>
      <point x="479" y="285" type="curve" smooth="yes"/>
      <point x="479" y="169"/>
      <point x="442" y="113"/>
      <point x="358" y="113" type="curve" smooth="yes"/>
      <point x="284" y="113"/>
      <point x="236" y="154"/>
      <point x="202" y="182" type="curve"/>
      <point x="182" y="79" type="line"/>
      <point x="218" y="40"/>
      <point x="286" y="-12"/>
      <point x="379" y="-12" type="curve" smooth="yes"/>
    </contour>
    <contour>
      <point x="209" y="0" type="line"/>
      <point x="254" y="114" type="line"/>
      <point x="254" y="800" type="line"/>
      <point x="80" y="800" type="line"/>
      <point x="80" y="0" type="line"/>
    </contour>
  </outline>
</glyph>
<glyph name="c" format="1">
  <advance width="552"/>
  <unicode hex="0063"/>
  <outline>
    <contour>
      <point x="420" y="-12"/>
      <point x="491" y="18"/>
      <point x="534" y="51" type="curve"/>
      <point x="487" y="161" type="line"/>
      <point x="440" y="134"/>
      <point x="397" y="113"/>
      <point x="339" y="113" type="curve" smooth="yes"/>
      <point x="262" y="113"/>
      <point x="216" y="171"/>
      <point x="216" y="284" type="curve" smooth="yes"/>
      <point x="216" y="397"/>
      <point x="267" y="455"/>
      <point x="354" y="455" type="curve" smooth="yes"/>
      <point x="400" y="455"/>
      <point x="443" y="442"/>
      <point x="478" y="428" type="curve"/>
      <point x="511" y="548" type="line"/>
      <point x="474" y="566"/>
      <point x="407" y="580"/>
      <point x="354" y="580" type="curve" smooth="yes"/>
      <point x="129" y="580"/>
      <point x="40" y="439"/>
      <point x="40" y="283" type="curve" smooth="yes"/>
      <point x="40" y="118"/>
      <point x="133" y="-12"/>
      <point x="339" y="-12" type="curve" smooth="yes"/>
    </contour>
    <contour>
      <point x="336" y="620" type="move" name="top"/>
    </contour>
    <contour>
      <point x="339" y="-10" type="move" name="bottom"/>
    </contour>
  </outline>
</glyph>
<glyph name="d" format="1">
  <advance width="695"/>
  <unicode hex="0064"/>
  <outline>
    <contour>
      <point x="396" y="-12"/>
      <point x="464" y="28"/>
      <point x="513" y="81" type="curve"/>
      <point x="513" y="200" type="line"/>
      <point x="446" y="139"/>
      <point x="402" y="113"/>
      <point x="328" y="113" type="curve" smooth="yes"/>
      <point x="269" y="113"/>
      <point x="216" y="148"/>
      <point x="216" y="283" type="curve" smooth="yes"/>
      <point x="216" y="399"/>
      <point x="267" y="455"/>
      <point x="377" y="455" type="curve" smooth="yes"/>
      <point x="443" y="455"/>
      <point x="488" y="435"/>
      <point x="519" y="416" type="curve"/>
      <point x="541" y="529" type="line"/>
      <point x="504" y="555"/>
      <point x="458" y="580"/>
      <point x="366" y="580" type="curve" smooth="yes"/>
      <point x="186" y="580"/>
      <point x="40" y="507"/>
      <point x="40" y="283" type="curve" smooth="yes"/>
      <point x="40" y="87"/>
      <point x="152" y="-12"/>
      <point x="308" y="-12" type="curve" smooth="yes"/>
    </contour>
    <contour>
      <point x="615" y="0" type="line"/>
      <point x="615" y="800" type="line"/>
      <point x="441" y="800" type="line"/>
      <point x="441" y="114" type="line"/>
      <point x="486" y="0" type="line"/>
    </contour>
    <contour>
      <point x="332" y="580" type="move" name="top"/>
    </contour>
    <contour>
      <point x="332" y="-10" type="move" name="bottom"/>
    </contour>
    <contour>
      <point x="649" y="435" type="move" name="caronSlovak"/>
    </contour>
  </outline>
</glyph>
<glyph name="e" format="1">
  <advance width="616"/>
  <unicode hex="0065"/>
  <outline>
    <contour>
      <point x="428" y="-12"/>
      <point x="492" y="13"/>
      <point x="562" y="69" type="curve"/>
      <point x="515" y="179" type="line"/>
      <point x="458" y="142"/>
      <point x="406" y="113"/>
      <point x="339" y="113" type="curve"/>
      <point x="245" y="113"/>
      <point x="211" y="172"/>
      <point x="211" y="286" type="curve"/>
      <point x="211" y="384"/>
      <point x="235" y="465"/>
      <point x="328" y="465" type="curve" smooth="yes"/>
      <point x="377" y="465"/>
      <point x="407" y="436"/>
      <point x="408" y="381" type="curve" smooth="yes"/>
      <point x="408" y="354"/>
      <point x="397" y="283"/>
      <point x="391" y="252" type="curve"/>
      <point x="563" y="252" type="line"/>
      <point x="572" y="282"/>
      <point x="576" y="315"/>
      <point x="576" y="340" type="curve" smooth="yes"/>
      <point x="575" y="492"/>
      <point x="494" y="580"/>
      <point x="338" y="580" type="curve" smooth="yes"/>
      <point x="137" y="580"/>
      <point x="40" y="457"/>
      <point x="40" y="283" type="curve"/>
      <point x="40" y="118"/>
      <point x="133" y="-12"/>
      <point x="338" y="-12" type="curve"/>
    </contour>
    <contour>
      <point x="487" y="252" type="line"/>
      <point x="487" y="365" type="line"/>
      <point x="137" y="365" type="line"/>
      <point x="137" y="252" type="line"/>
    </contour>
    <contour>
      <point x="326" y="620" type="move" name="top"/>
    </contour>
    <contour>
      <point x="379" y="-10" type="move" name="bottom"/>
    </contour>
  </outline>
</glyph>
<glyph name="f" format="1">
  <advance width="444"/>
  <unicode hex="0066"/>
  <outline>
    <contour>
      <point x="274" y="0" type="line"/>
      <point x="274" y="586" type="line" smooth="yes"/>
      <point x="274" y="647"/>
      <point x="301" y="682"/>
      <point x="358" y="682" type="curve" smooth="yes"/>
      <point x="385" y="682"/>
      <point x="401" y="680"/>
      <point x="425" y="677" type="curve"/>
      <point x="436" y="799" type="line"/>
      <point x="395" y="804"/>
      <point x="361" y="807"/>
      <point x="328" y="807" type="curve" smooth="yes"/>
      <point x="172" y="807"/>
      <point x="100" y="726"/>
      <point x="100" y="588" type="curve" smooth="yes"/>
      <point x="100" y="0" type="line"/>
    </contour>
    <contour>
      <point x="434" y="445" type="line"/>
      <point x="434" y="568" type="line"/>
      <point x="140" y="568" type="line"/>
      <point x="15" y="518" type="line"/>
      <point x="15" y="445" type="line"/>
    </contour>
  </outline>
</glyph>
<glyph name="g" format="1">
  <advance width="630"/>
  <unicode hex="0067"/>
  <outline>
    <contour>
      <point x="472" y="-247"/>
      <point x="618" y="-143"/>
      <point x="618" y="-12" type="curve" smooth="yes"/>
      <point x="618" y="74"/>
      <point x="546" y="129"/>
      <point x="422" y="129" type="curve" smooth="yes"/>
      <point x="273" y="129" type="line" smooth="yes"/>
      <point x="236" y="129"/>
      <point x="226" y="140"/>
      <point x="226" y="161" type="curve" smooth="yes"/>
      <point x="226" y="184"/>
      <point x="258" y="216"/>
      <point x="299" y="240" type="curve"/>
      <point x="222" y="286" type="line"/>
      <point x="107" y="225"/>
      <point x="55" y="173"/>
      <point x="55" y="119" type="curve" smooth="yes"/>
      <point x="55" y="60"/>
      <point x="109" y="4"/>
      <point x="243" y="4" type="curve" smooth="yes"/>
      <point x="380" y="4" type="line" smooth="yes"/>
      <point x="432" y="4"/>
      <point x="452" y="-12"/>
      <point x="452" y="-38" type="curve" smooth="yes"/>
      <point x="452" y="-78"/>
      <point x="378" y="-122"/>
      <point x="278" y="-122" type="curve" smooth="yes"/>
      <point x="221" y="-122"/>
      <point x="191" y="-109"/>
      <point x="191" y="-80" type="curve" smooth="yes"/>
      <point x="191" y="-43"/>
      <point x="222" y="8"/>
      <point x="290" y="52" type="curve"/>
      <point x="216" y="100" type="line"/>
      <point x="110" y="41"/>
      <point x="25" y="-12"/>
      <point x="25" y="-93" type="curve" smooth="yes"/>
      <point x="25" y="-166"/>
      <point x="86" y="-247"/>
      <point x="278" y="-247" type="curve" smooth="yes"/>
    </contour>
    <contour>
      <point x="463" y="199"/>
      <point x="541" y="292"/>
      <point x="541" y="391" type="curve"/>
      <point x="541" y="489"/>
      <point x="461" y="580"/>
      <point x="302" y="580" type="curve"/>
      <point x="141" y="580"/>
      <point x="63" y="488"/>
      <point x="63" y="389" type="curve"/>
      <point x="63" y="291"/>
      <point x="141" y="199"/>
      <point x="302" y="199" type="curve"/>
    </contour>
    <contour>
      <point x="260" y="314"/>
      <point x="229" y="339"/>
      <point x="229" y="390" type="curve"/>
      <point x="229" y="441"/>
      <point x="260" y="465"/>
      <point x="302" y="465" type="curve"/>
      <point x="345" y="465"/>
      <point x="375" y="441"/>
      <point x="375" y="390" type="curve"/>
      <point x="375" y="339"/>
      <point x="344" y="314"/>
      <point x="302" y="314" type="curve"/>
    </contour>
    <contour>
      <point x="627" y="568" type="line"/>
      <point x="373" y="568" type="line"/>
      <point x="373" y="478" type="line"/>
      <point x="627" y="444" type="line"/>
    </contour>
    <contour>
      <point x="315" y="620" type="move" name="top"/>
    </contour>
  </outline>
</glyph>
<glyph name="h" format="1">
  <advance width="687"/>
  <unicode hex="0068"/>
  <outline>
    <contour>
      <point x="612" y="0" type="line"/>
      <point x="612" y="351" type="line" smooth="yes"/>
      <point x="612" y="485"/>
      <point x="575" y="580"/>
      <point x="416" y="580" type="curve" smooth="yes"/>
      <point x="354" y="580"/>
      <point x="295" y="561"/>
      <point x="231" y="523" type="curve"/>
      <point x="252" y="418" type="line"/>
      <point x="283" y="438"/>
      <point x="321" y="453"/>
      <point x="358" y="453" type="curve" smooth="yes"/>
      <point x="421" y="453"/>
      <point x="438" y="421"/>
      <point x="438" y="329" type="curve" smooth="yes"/>
      <point x="438" y="0" type="line"/>
    </contour>
    <contour>
      <point x="254" y="0" type="line"/>
      <point x="254" y="800" type="line"/>
      <point x="80" y="800" type="line"/>
      <point x="80" y="0" type="line"/>
    </contour>
    <contour>
      <point x="167" y="810" type="move" name="top"/>
    </contour>
    <contour>
      <point x="347" y="-10" type="move" name="bottom"/>
    </contour>
  </outline>
</glyph>
<glyph name="i" format="1">
  <advance width="334"/>
  <unicode hex="0069"/>
  <outline>
    <contour>
      <point x="254" y="0" type="line"/>
      <point x="254" y="568" type="line"/>
      <point x="80" y="568" type="line"/>
      <point x="80" y="0" type="line"/>
    </contour>
    <contour>
      <point x="222" y="644"/>
      <point x="267" y="689"/>
      <point x="267" y="744" type="curve" smooth="yes"/>
      <point x="267" y="799"/>
      <point x="222" y="844"/>
      <point x="167" y="844" type="curve" smooth="yes"/>
      <point x="112" y="844"/>
      <point x="67" y="799"/>
      <point x="67" y="744" type="curve" smooth="yes"/>
      <point x="67" y="689"/>
      <point x="112" y="644"/>
      <point x="167" y="644" type="curve" smooth="yes"/>
    </contour>
    <contour>
      <point x="167" y="580" type="move" name="top"/>
    </contour>
    <contour>
      <point x="106" y="-10" type="move" name="bottom"/>
    </contour>
  </outline>
</glyph>
<glyph name="j" format="1">
  <advance width="334"/>
  <unicode hex="006A"/>
  <outline>
    <contour>
      <point x="182" y="-239"/>
      <point x="254" y="-158"/>
      <point x="254" y="-20" type="curve" smooth="yes"/>
      <point x="254" y="568" type="line"/>
      <point x="80" y="568" type="line"/>
      <point x="80" y="-18" type="line" smooth="yes"/>
      <point x="80" y="-79"/>
      <point x="53" y="-114"/>
      <point x="-4" y="-114" type="curve" smooth="yes"/>
      <point x="-31" y="-114"/>
      <point x="-47" y="-112"/>
      <point x="-71" y="-109" type="curve"/>
      <point x="-82" y="-231" type="line"/>
      <point x="-41" y="-236"/>
      <point x="-7" y="-239"/>
      <point x="26" y="-239" type="curve" smooth="yes"/>
    </contour>
    <contour>
      <point x="222" y="644"/>
      <point x="267" y="689"/>
      <point x="267" y="744" type="curve" smooth="yes"/>
      <point x="267" y="799"/>
      <point x="222" y="844"/>
      <point x="167" y="844" type="curve" smooth="yes"/>
      <point x="112" y="844"/>
      <point x="67" y="799"/>
      <point x="67" y="744" type="curve" smooth="yes"/>
      <point x="67" y="689"/>
      <point x="112" y="644"/>
      <point x="167" y="644" type="curve" smooth="yes"/>
    </contour>
  </outline>
</glyph>
<glyph name="k" format="1">
  <advance width="640"/>
  <unicode hex="006B"/>
  <outline>
    <contour>
      <point x="635" y="0" type="line"/>
      <point x="395" y="326" type="line"/>
      <point x="398" y="294" type="line"/>
      <point x="599" y="568" type="line"/>
      <point x="421" y="568" type="line"/>
      <point x="245" y="319" type="line"/>
      <point x="245" y="299" type="line"/>
      <point x="446" y="0" type="line"/>
    </contour>
    <contour>
      <point x="254" y="0" type="line"/>
      <point x="254" y="800" type="line"/>
      <point x="80" y="800" type="line"/>
      <point x="80" y="0" type="line"/>
    </contour>
    <contour>
      <point x="355" y="-10" type="move" name="bottom"/>
    </contour>
  </outline>
</glyph>
<glyph name="m" format="1">
  <advance width="1045"/>
  <unicode hex="006D"/>
  <outline>
    <contour>
      <point x="970" y="0" type="line"/>
      <point x="970" y="351" type="line" smooth="yes"/>
      <point x="970" y="485"/>
      <point x="933" y="580"/>
      <point x="774" y="580" type="curve" smooth="yes"/>
      <point x="705" y="580"/>
      <point x="640" y="557"/>
      <point x="569" y="511" type="curve"/>
      <point x="610" y="418" type="line"/>
      <point x="641" y="438"/>
      <point x="679" y="453"/>
      <point x="716" y="453" type="curve" smooth="yes"/>
      <point x="779" y="453"/>
      <point x="796" y="421"/>
      <point x="796" y="329" type="curve" smooth="yes"/>
      <point x="796" y="0" type="line"/>
    </contour>
    <contour>
      <point x="254" y="0" type="line"/>
      <point x="254" y="452" type="line"/>
      <point x="209" y="568" type="line"/>
      <point x="80" y="568" type="line"/>
      <point x="80" y="0" type="line"/>
    </contour>
    <contour>
      <point x="612" y="0" type="line"/>
      <point x="612" y="351" type="line" smooth="yes"/>
      <point x="612" y="485"/>
      <point x="575" y="580"/>
      <point x="416" y="580" type="curve" smooth="yes"/>
      <point x="347" y="580"/>
      <point x="282" y="557"/>
      <point x="211" y="511" type="curve"/>
      <point x="252" y="418" type="line"/>
      <point x="283" y="438"/>
      <point x="321" y="453"/>
      <point x="358" y="453" type="curve" smooth="yes"/>
      <point x="421" y="453"/>
      <point x="438" y="421"/>
      <point x="438" y="329" type="curve" smooth="yes"/>
      <point x="438" y="0" type="line"/>
    </contour>
    <contour>
      <point x="525" y="620" type="move" name="top"/>
    </contour>
    <contour>
      <point x="525" y="-10" type="move" name="bottom"/>
    </contour>
  </outline>
</glyph>
<glyph name="n" format="1">
  <advance width="687"/>
  <unicode hex="006E"/>
  <outline>
    <contour>
      <point x="612" y="0" type="line"/>
      <point x="612" y="351" type="line" smooth="yes"/>
      <point x="612" y="485"/>
      <point x="575" y="580"/>
      <point x="416" y="580" type="curve" smooth="yes"/>
      <point x="347" y="580"/>
      <point x="282" y="557"/>
      <point x="211" y="511" type="curve"/>
      <point x="252" y="418" type="line"/>
      <point x="283" y="438"/>
      <point x="321" y="453"/>
      <point x="358" y="453" type="curve" smooth="yes"/>
      <point x="421" y="453"/>
      <point x="438" y="421"/>
      <point x="438" y="329" type="curve" smooth="yes"/>
      <point x="438" y="0" type="line"/>
    </contour>
    <contour>
      <point x="254" y="0" type="line"/>
      <point x="254" y="452" type="line"/>
      <point x="209" y="568" type="line"/>
      <point x="80" y="568" type="line"/>
      <point x="80" y="0" type="line"/>
    </contour>
    <contour>
      <point x="347" y="620" type="move" name="top"/>
    </contour>
    <contour>
      <point x="347" y="-10" type="move" name="bottom"/>
    </contour>
  </outline>
</glyph>
<glyph name="o" format="1">
  <advance width="678"/>
  <unicode hex="006F"/>
  <outline>
    <contour>
      <point x="540" y="-12"/>
      <point x="638" y="131"/>
      <point x="638" y="285" type="curve" smooth="yes"/>
      <point x="638" y="439"/>
      <point x="540" y="580"/>
      <point x="339" y="580" type="curve" smooth="yes"/>
      <point x="138" y="580"/>
      <point x="40" y="457"/>
      <point x="40" y="283" type="curve" smooth="yes"/>
      <point x="40" y="116"/>
      <point x="138" y="-12"/>
      <point x="339" y="-12" type="curve" smooth="yes"/>
    </contour>
    <contour>
      <point x="251" y="113"/>
      <point x="216" y="171"/>
      <point x="216" y="284" type="curve" smooth="yes"/>
      <point x="216" y="397"/>
      <point x="251" y="455"/>
      <point x="339" y="455" type="curve" smooth="yes"/>
      <point x="427" y="455"/>
      <point x="462" y="397"/>
      <point x="462" y="284" type="curve" smooth="yes"/>
      <point x="462" y="171"/>
      <point x="427" y="113"/>
      <point x="339" y="113" type="curve" smooth="yes"/>
    </contour>
    <contour>
      <point x="339" y="620" type="move" name="top"/>
    </contour>
    <contour>
      <point x="339" y="-10" type="move" name="bottom"/>
    </contour>
  </outline>
</glyph>
<glyph name="p" format="1">
  <advance width="695"/>
  <unicode hex="0070"/>
  <outline>
    <contour>
      <point x="509" y="-12"/>
      <point x="655" y="65"/>
      <point x="655" y="280" type="curve" smooth="yes"/>
      <point x="655" y="474"/>
      <point x="543" y="580"/>
      <point x="387" y="580" type="curve" smooth="yes"/>
      <point x="299" y="580"/>
      <point x="231" y="540"/>
      <point x="182" y="487" type="curve"/>
      <point x="182" y="368" type="line"/>
      <point x="249" y="429"/>
      <point x="293" y="455"/>
      <point x="367" y="455" type="curve" smooth="yes"/>
      <point x="426" y="455"/>
      <point x="479" y="420"/>
      <point x="479" y="285" type="curve" smooth="yes"/>
      <point x="479" y="169"/>
      <point x="428" y="113"/>
      <point x="318" y="113" type="curve" smooth="yes"/>
      <point x="252" y="113"/>
      <point x="207" y="133"/>
      <point x="176" y="152" type="curve"/>
      <point x="154" y="39" type="line"/>
      <point x="191" y="13"/>
      <point x="237" y="-12"/>
      <point x="329" y="-12" type="curve" smooth="yes"/>
    </contour>
    <contour>
      <point x="254" y="-232" type="line"/>
      <point x="254" y="454" type="line"/>
      <point x="209" y="568" type="line"/>
      <point x="80" y="568" type="line"/>
      <point x="80" y="-232" type="line"/>
    </contour>
  </outline>
</glyph>
<glyph name="q" format="1">
  <advance width="695"/>
  <unicode hex="0071"/>
  <outline>
    <contour>
      <point x="396" y="-12"/>
      <point x="464" y="28"/>
      <point x="513" y="81" type="curve"/>
      <point x="513" y="200" type="line"/>
      <point x="446" y="139"/>
      <point x="402" y="113"/>
      <point x="328" y="113" type="curve" smooth="yes"/>
      <point x="269" y="113"/>
      <point x="216" y="148"/>
      <point x="216" y="283" type="curve" smooth="yes"/>
      <point x="216" y="399"/>
      <point x="253" y="455"/>
      <point x="337" y="455" type="curve" smooth="yes"/>
      <point x="411" y="455"/>
      <point x="459" y="414"/>
      <point x="493" y="386" type="curve"/>
      <point x="513" y="489" type="line"/>
      <point x="477" y="528"/>
      <point x="409" y="580"/>
      <point x="316" y="580" type="curve" smooth="yes"/>
      <point x="175" y="580"/>
      <point x="40" y="497"/>
      <point x="40" y="283" type="curve" smooth="yes"/>
      <point x="40" y="87"/>
      <point x="152" y="-12"/>
      <point x="308" y="-12" type="curve" smooth="yes"/>
    </contour>
    <contour>
      <point x="615" y="-237" type="line"/>
      <point x="615" y="568" type="line"/>
      <point x="486" y="568" type="line"/>
      <point x="441" y="454" type="line"/>
      <point x="441" y="-237" type="line"/>
    </contour>
  </outline>
</glyph>
<glyph name="r" format="1">
  <advance width="472"/>
  <unicode hex="0072"/>
  <outline>
    <contour>
      <point x="312" y="407"/>
      <point x="374" y="412"/>
      <point x="442" y="412" type="curve"/>
      <point x="442" y="579" type="line"/>
      <point x="365" y="579"/>
      <point x="294" y="556"/>
      <point x="210" y="479" type="curve"/>
      <point x="222" y="370" type="line"/>
    </contour>
    <contour>
      <point x="254" y="0" type="line"/>
      <point x="254" y="452" type="line"/>
      <point x="209" y="568" type="line"/>
      <point x="80" y="568" type="line"/>
      <point x="80" y="0" type="line"/>
    </contour>
    <contour>
      <point x="255" y="620" type="move" name="top"/>
    </contour>
    <contour>
      <point x="166" y="-10" type="move" name="bottom"/>
    </contour>
  </outline>
</glyph>
<glyph name="s" format="1">
  <advance width="550"/>
  <unicode hex="0073"/>
  <outline>
    <contour>
      <point x="421" y="-12"/>
      <point x="510" y="58"/>
      <point x="510" y="173" type="curve" smooth="yes"/>
      <point x="510" y="365"/>
      <point x="223" y="333"/>
      <point x="223" y="414" type="curve" smooth="yes"/>
      <point x="223" y="442"/>
      <point x="256" y="455"/>
      <point x="311" y="455" type="curve" smooth="yes"/>
      <point x="360" y="455"/>
      <point x="404" y="444"/>
      <point x="450" y="428" type="curve"/>
      <point x="483" y="548" type="line"/>
      <point x="434" y="569"/>
      <point x="363" y="580"/>
      <point x="306" y="580" type="curve" smooth="yes"/>
      <point x="150" y="580"/>
      <point x="51" y="518"/>
      <point x="51" y="393" type="curve" smooth="yes"/>
      <point x="51" y="226"/>
      <point x="338" y="240"/>
      <point x="338" y="161" type="curve" smooth="yes"/>
      <point x="338" y="124"/>
      <point x="294" y="113"/>
      <point x="240" y="113" type="curve" smooth="yes"/>
      <point x="185" y="113"/>
      <point x="134" y="124"/>
      <point x="73" y="145" type="curve"/>
      <point x="40" y="25" type="line"/>
      <point x="90" y="5"/>
      <point x="167" y="-12"/>
      <point x="242" y="-12" type="curve" smooth="yes"/>
    </contour>
    <contour>
      <point x="289" y="620" type="move" name="top"/>
    </contour>
    <contour>
      <point x="252" y="-10" type="move" name="bottom"/>
    </contour>
  </outline>
</glyph>
<glyph name="t" format="1">
  <advance width="484"/>
  <unicode hex="0074"/>
  <outline>
    <contour>
      <point x="359" y="-7"/>
      <point x="420" y="7"/>
      <point x="462" y="37" type="curve"/>
      <point x="435" y="144" type="line"/>
      <point x="408" y="129"/>
      <point x="375" y="119"/>
      <point x="345" y="118" type="curve" smooth="yes"/>
      <point x="300" y="117"/>
      <point x="274" y="140"/>
      <point x="274" y="215" type="curve" smooth="yes"/>
      <point x="274" y="714" type="line"/>
      <point x="170" y="714" type="line"/>
      <point x="100" y="492" type="line"/>
      <point x="100" y="173" type="line" smooth="yes"/>
      <point x="100" y="60"/>
      <point x="166" y="-7"/>
      <point x="310" y="-7" type="curve" smooth="yes"/>
    </contour>
    <contour>
      <point x="434" y="445" type="line"/>
      <point x="434" y="568" type="line"/>
      <point x="140" y="568" type="line"/>
      <point x="15" y="518" type="line"/>
      <point x="15" y="445" type="line"/>
    </contour>
    <contour>
      <point x="260" y="-10" type="move" name="bottom"/>
    </contour>
    <contour>
      <point x="298" y="529" type="move" name="caronSlovak"/>
    </contour>
  </outline>
</glyph>
<glyph name="u" format="1">
  <advance width="687"/>
  <unicode hex="0075"/>
  <outline>
    <contour>
      <point x="340" y="-12"/>
      <point x="405" y="11"/>
      <point x="476" y="57" type="curve"/>
      <point x="435" y="150" type="line"/>
      <point x="404" y="130"/>
      <point x="366" y="115"/>
      <point x="329" y="115" type="curve" smooth="yes"/>
      <point x="266" y="115"/>
      <point x="249" y="147"/>
      <point x="249" y="239" type="curve" smooth="yes"/>
      <point x="249" y="568" type="line"/>
      <point x="75" y="568" type="line"/>
      <point x="75" y="217" type="line" smooth="yes"/>
      <point x="75" y="83"/>
      <point x="112" y="-12"/>
      <point x="271" y="-12" type="curve" smooth="yes"/>
    </contour>
    <contour>
      <point x="607" y="0" type="line"/>
      <point x="607" y="568" type="line"/>
      <point x="433" y="568" type="line"/>
      <point x="433" y="116" type="line"/>
      <point x="478" y="0" type="line"/>
    </contour>
    <contour>
      <point x="338" y="620" type="move" name="top"/>
    </contour>
    <contour>
      <point x="509" y="-10" type="move" name="bottom"/>
    </contour>
  </outline>
</glyph>
<glyph name="v" format="1">
  <advance width="622"/>
  <unicode hex="0076"/>
  <outline>
    <contour>
      <point x="397" y="-5" type="line"/>
      <point x="615" y="568" type="line"/>
      <point x="440" y="568" type="line"/>
      <point x="276" y="55" type="line"/>
      <point x="348" y="55" type="line"/>
      <point x="184" y="568" type="line"/>
      <point x="7" y="568" type="line"/>
      <point x="225" y="-5" type="line"/>
    </contour>
  </outline>
</glyph>
<glyph name="w" format="1">
  <advance width="893"/>
  <unicode hex="0077"/>
  <outline>
    <contour>
      <point x="359" y="-5" type="line"/>
      <point x="474" y="504" type="line"/>
      <point x="420" y="504" type="line"/>
      <point x="534" y="-5" type="line"/>
      <point x="704" y="-5" type="line"/>
      <point x="883" y="568" type="line"/>
      <point x="708" y="568" type="line"/>
      <point x="601" y="90" type="line"/>
      <point x="639" y="90" type="line"/>
      <point x="532" y="568" type="line"/>
      <point x="363" y="568" type="line"/>
      <point x="252" y="90" type="line"/>
      <point x="290" y="90" type="line"/>
      <point x="187" y="568" type="line"/>
      <point x="10" y="568" type="line"/>
      <point x="189" y="-5" type="line"/>
    </contour>
    <contour>
      <point x="447" y="620" type="move" name="top"/>
    </contour>
  </outline>
</glyph>
<glyph name="x" format="1">
  <advance width="630"/>
  <unicode hex="0078"/>
  <outline>
    <contour>
      <point x="625" y="0" type="line"/>
      <point x="393" y="315" type="line"/>
      <point x="353" y="328" type="line"/>
      <point x="208" y="568" type="line"/>
      <point x="20" y="568" type="line"/>
      <point x="226" y="283" type="line"/>
      <point x="263" y="267" type="line"/>
      <point x="436" y="0" type="line"/>
    </contour>
    <contour>
      <point x="192" y="0" type="line"/>
      <point x="364" y="267" type="line"/>
      <point x="397" y="283" type="line"/>
      <point x="606" y="568" type="line"/>
      <point x="420" y="568" type="line"/>
      <point x="276" y="328" type="line"/>
      <point x="235" y="315" type="line"/>
      <point x="5" y="0" type="line"/>
    </contour>
  </outline>
</glyph>
<glyph name="y" format="1">
  <advance width="634"/>
  <unicode hex="0079"/>
  <outline>
    <contour>
      <point x="250" y="-255"/>
      <point x="340" y="-208"/>
      <point x="387" y="-74" type="curve" smooth="yes"/>
      <point x="628" y="568" type="line"/>
      <point x="453" y="568" type="line"/>
      <point x="277" y="6" type="line" smooth="yes"/>
      <point x="241" y="-87"/>
      <point x="191" y="-125"/>
      <point x="118" y="-125" type="curve" smooth="yes"/>
      <point x="92" y="-125"/>
      <point x="59" y="-119"/>
      <point x="21" y="-107" type="curve"/>
      <point x="10" y="-234" type="line"/>
      <point x="46" y="-248"/>
      <point x="98" y="-255"/>
      <point x="138" y="-255" type="curve" smooth="yes"/>
    </contour>
    <contour>
      <point x="341" y="125" type="line"/>
      <point x="195" y="568" type="line"/>
      <point x="18" y="568" type="line"/>
      <point x="268" y="-78" type="line"/>
    </contour>
    <contour>
      <point x="327" y="620" type="move" name="top"/>
    </contour>
  </outline>
</glyph>
<glyph name="z" format="1">
  <advance width="558"/>
  <unicode hex="007A"/>
  <outline>
    <contour>
      <point x="528" y="0" type="line"/>
      <point x="528" y="123" type="line"/>
      <point x="78" y="123" type="line"/>
      <point x="170" y="58" type="line"/>
      <point x="518" y="473" type="line"/>
      <point x="518" y="568" type="line"/>
      <point x="40" y="568" type="line"/>
      <point x="40" y="445" type="line"/>
      <point x="429" y="445" type="line"/>
      <point x="373" y="510" type="line"/>
      <point x="25" y="95" type="line"/>
      <point x="25" y="0" type="line"/>
    </contour>
    <contour>
      <point x="284" y="620" type="move" name="top"/>
    </contour>
    <contour>
      <point x="297" y="-10" type="move" name="bottom"/>
    </contour>
  </outline>
</glyph>
<glyph name="braceleft" format="1">
  <advance width="408"/>
  <unicode hex="007B"/>
  <outline>
    <contour>
      <point x="370" y="-18" type="line"/>
      <point x="305" y="-18"/>
      <point x="270" y="2"/>
      <point x="270" y="42" type="curve" smooth="yes"/>
      <point x="270" y="102"/>
      <point x="289" y="128"/>
      <point x="289" y="175" type="curve" smooth="yes"/>
      <point x="289" y="232"/>
      <point x="262" y="271"/>
      <point x="212" y="287" type="curve"/>
      <point x="212" y="289" type="line"/>
      <point x="261" y="305"/>
      <point x="289" y="345"/>
      <point x="289" y="400" type="curve" smooth="yes"/>
      <point x="289" y="447"/>
      <point x="270" y="474"/>
      <point x="270" y="534" type="curve" smooth="yes"/>
      <point x="270" y="569"/>
      <point x="295" y="595"/>
      <point x="370" y="594" type="curve"/>
      <point x="370" y="705" type="line"/>
      <point x="231" y="706"/>
      <point x="98" y="663"/>
      <point x="98" y="544" type="curve" smooth="yes"/>
      <point x="98" y="506"/>
      <point x="117" y="465"/>
      <point x="117" y="422" type="curve" smooth="yes"/>
      <point x="117" y="373"/>
      <point x="82" y="351"/>
      <point x="13" y="344" type="curve"/>
      <point x="13" y="232" type="line"/>
      <point x="82" y="224"/>
      <point x="118" y="203"/>
      <point x="118" y="153" type="curve" smooth="yes"/>
      <point x="118" y="110"/>
      <point x="99" y="70"/>
      <point x="99" y="32" type="curve" smooth="yes"/>
      <point x="99" y="-87"/>
      <point x="231" y="-130"/>
      <point x="370" y="-130" type="curve"/>
    </contour>
  </outline>
</glyph>
<glyph name="braceright" format="1">
  <advance width="408"/>
  <unicode hex="007D"/>
  <outline>
    <contour>
      <point x="177" y="-130"/>
      <point x="309" y="-87"/>
      <point x="309" y="32" type="curve" smooth="yes"/>
      <point x="309" y="70"/>
      <point x="290" y="110"/>
      <point x="290" y="153" type="curve" smooth="yes"/>
      <point x="290" y="203"/>
      <point x="326" y="224"/>
      <point x="395" y="232" type="curve"/>
      <point x="395" y="344" type="line"/>
      <point x="326" y="351"/>
      <point x="291" y="373"/>
      <point x="291" y="422" type="curve" smooth="yes"/>
      <point x="291" y="465"/>
      <point x="310" y="506"/>
      <point x="310" y="544" type="curve" smooth="yes"/>
      <point x="310" y="663"/>
      <point x="177" y="706"/>
      <point x="38" y="705" type="curve"/>
      <point x="38" y="594" type="line"/>
      <point x="113" y="595"/>
      <point x="138" y="569"/>
      <point x="138" y="534" type="curve" smooth="yes"/>
      <point x="138" y="474"/>
      <point x="119" y="447"/>
      <point x="119" y="400" type="curve" smooth="yes"/>
      <point x="119" y="345"/>
      <point x="147" y="305"/>
      <point x="196" y="289" type="curve"/>
      <point x="196" y="287" type="line"/>
      <point x="146" y="271"/>
      <point x="119" y="232"/>
      <point x="119" y="175" type="curve" smooth="yes"/>
      <point x="119" y="128"/>
      <point x="138" y="102"/>
      <point x="138" y="42" type="curve" smooth="yes"/>
      <point x="138" y="2"/>
      <point x="103" y="-18"/>
      <point x="38" y="-18" type="curve"/>
      <point x="38" y="-130" type="line"/>
    </contour>
  </outline>
</glyph>
<glyph name="asciitilde" format="1">
  <advance width="664"/>
  <unicode hex="007E"/>
  <outline>
    <contour>
      <point x="148" y="212"/>
      <point x="185" y="249"/>
      <point x="238" y="249" type="curve" smooth="yes"/>
      <point x="306" y="249"/>
      <point x="349" y="180"/>
      <point x="428" y="180" type="curve" smooth="yes"/>
      <point x="523" y="180"/>
      <point x="580" y="247"/>
      <point x="623" y="303" type="curve"/>
      <point x="544" y="380" type="line"/>
      <point x="518" y="343"/>
      <point x="481" y="308"/>
      <point x="428" y="308" type="curve" smooth="yes"/>
      <point x="362" y="308"/>
      <point x="322" y="377"/>
      <point x="238" y="377" type="curve" smooth="yes"/>
      <point x="143" y="377"/>
      <point x="83" y="308"/>
      <point x="41" y="251" type="curve"/>
      <point x="120" y="174" type="line"/>
    </contour>
  </outline>
</glyph>
<glyph name="cent" format="1">
  <advance width="664"/>
  <unicode hex="00A2"/>
  <outline>
    <contour>
      <point x="490" y="43"/>
      <point x="583" y="95"/>
      <point x="639" y="153" type="curve"/>
      <point x="592" y="263" type="line"/>
      <point x="527" y="210"/>
      <point x="466" y="168"/>
      <point x="384" y="168" type="curve" smooth="yes"/>
      <point x="282" y="168"/>
      <point x="221" y="226"/>
      <point x="221" y="339" type="curve" smooth="yes"/>
      <point x="221" y="445"/>
      <point x="287" y="500"/>
      <point x="399" y="500" type="curve" smooth="yes"/>
      <point x="467" y="500"/>
      <point x="531" y="463"/>
      <point x="583" y="423" type="curve"/>
      <point x="616" y="543" type="line"/>
      <point x="565" y="589"/>
      <point x="472" y="625"/>
      <point x="399" y="625" type="curve" smooth="yes"/>
      <point x="145" y="625"/>
      <point x="45" y="489"/>
      <point x="45" y="338" type="curve" smooth="yes"/>
      <point x="45" y="173"/>
      <point x="150" y="43"/>
      <point x="384" y="43" type="curve" smooth="yes"/>
    </contour>
    <contour>
      <point x="469" y="-77" type="line"/>
      <point x="469" y="754" type="line"/>
      <point x="316" y="754" type="line"/>
      <point x="316" y="-77" type="line"/>
    </contour>
  </outline>
</glyph>
<glyph name="sterling" format="1">
  <advance width="664"/>
  <unicode hex="00A3"/>
  <outline>
    <contour>
      <point x="306" y="100" type="line"/>
      <point x="344" y="142"/>
      <point x="367" y="177"/>
      <point x="367" y="222" type="curve" smooth="yes"/>
      <point x="367" y="348"/>
      <point x="290" y="379"/>
      <point x="290" y="482" type="curve" smooth="yes"/>
      <point x="290" y="525"/>
      <point x="328" y="562"/>
      <point x="406" y="562" type="curve" smooth="yes"/>
      <point x="461" y="562"/>
      <point x="511" y="547"/>
      <point x="565" y="524" type="curve"/>
      <point x="600" y="646" type="line"/>
      <point x="541" y="672"/>
      <point x="470" y="691"/>
      <point x="379" y="691" type="curve" smooth="yes"/>
      <point x="218" y="691"/>
      <point x="114" y="622"/>
      <point x="114" y="489" type="curve" smooth="yes"/>
      <point x="114" y="353"/>
      <point x="192" y="314"/>
      <point x="192" y="222" type="curve" smooth="yes"/>
      <point x="192" y="185"/>
      <point x="172" y="141"/>
      <point x="85" y="95" type="curve"/>
    </contour>
    <contour>
      <point x="604" y="0" type="line"/>
      <point x="604" y="127" type="line"/>
      <point x="205" y="127" type="line"/>
      <point x="85" y="95" type="line"/>
      <point x="85" y="0" type="line"/>
    </contour>
    <contour>
      <point x="514" y="280" type="line"/>
      <point x="514" y="404" type="line"/>
      <point x="74" y="404" type="line"/>
      <point x="74" y="280" type="line"/>
    </contour>
  </outline>
</glyph>
<glyph name="currency" format="1">
  <advance width="664"/>
  <unicode hex="00A4"/>
  <outline>
    <contour>
      <point x="468" y="73"/>
      <point x="546" y="173"/>
      <point x="546" y="288" type="curve"/>
      <point x="546" y="398"/>
      <point x="468" y="501"/>
      <point x="332" y="501" type="curve"/>
      <point x="197" y="501"/>
      <point x="119" y="398"/>
      <point x="119" y="286" type="curve"/>
      <point x="119" y="173"/>
      <point x="197" y="73"/>
      <point x="332" y="73" type="curve"/>
    </contour>
    <contour>
      <point x="324" y="168" type="line"/>
      <point x="216" y="276" type="line"/>
      <point x="62" y="122" type="line"/>
      <point x="170" y="14" type="line"/>
    </contour>
    <contour>
      <point x="602" y="122" type="line"/>
      <point x="448" y="276" type="line"/>
      <point x="340" y="168" type="line"/>
      <point x="494" y="14" type="line"/>
    </contour>
    <contour>
      <point x="285" y="196"/>
      <point x="253" y="235"/>
      <point x="253" y="287" type="curve"/>
      <point x="253" y="337"/>
      <point x="285" y="378"/>
      <point x="332" y="378" type="curve"/>
      <point x="380" y="378"/>
      <point x="412" y="337"/>
      <point x="412" y="287" type="curve"/>
      <point x="412" y="235"/>
      <point x="380" y="196"/>
      <point x="332" y="196" type="curve"/>
    </contour>
    <contour>
      <point x="313" y="411" type="line"/>
      <point x="170" y="554" type="line"/>
      <point x="62" y="446" type="line"/>
      <point x="205" y="303" type="line"/>
    </contour>
    <contour>
      <point x="602" y="446" type="line"/>
      <point x="494" y="554" type="line"/>
      <point x="357" y="417" type="line"/>
      <point x="465" y="309" type="line"/>
    </contour>
  </outline>
</glyph>
<glyph name="yen" format="1">
  <advance width="664"/>
  <unicode hex="00A5"/>
  <outline>
    <contour>
      <point x="387" y="415" type="line"/>
      <point x="225" y="680" type="line"/>
      <point x="41" y="680" type="line"/>
      <point x="252" y="372" type="line"/>
    </contour>
    <contour>
      <point x="420" y="0" type="line"/>
      <point x="420" y="417" type="line"/>
      <point x="245" y="417" type="line"/>
      <point x="245" y="0" type="line"/>
    </contour>
    <contour>
      <point x="585" y="151" type="line"/>
      <point x="585" y="275" type="line"/>
      <point x="77" y="275" type="line"/>
      <point x="77" y="151" type="line"/>
    </contour>
    <contour>
      <point x="585" y="310" type="line"/>
      <point x="585" y="434" type="line"/>
      <point x="77" y="434" type="line"/>
      <point x="77" y="310" type="line"/>
    </contour>
    <contour>
      <point x="627" y="680" type="line"/>
      <point x="444" y="680" type="line"/>
      <point x="282" y="416" type="line"/>
      <point x="414" y="373" type="line"/>
    </contour>
  </outline>
</glyph>
<glyph name="section" format="1">
  <advance width="600"/>
  <unicode hex="00A7"/>
  <outline>
    <contour>
      <point x="445" y="-151"/>
      <point x="534" y="-81"/>
      <point x="534" y="34" type="curve" smooth="yes"/>
      <point x="534" y="226"/>
      <point x="247" y="194"/>
      <point x="247" y="275" type="curve" smooth="yes"/>
      <point x="247" y="313"/>
      <point x="280" y="336"/>
      <point x="355" y="356" type="curve"/>
      <point x="236" y="432" type="line"/>
      <point x="135" y="411"/>
      <point x="75" y="351"/>
      <point x="75" y="254" type="curve" smooth="yes"/>
      <point x="75" y="87"/>
      <point x="362" y="101"/>
      <point x="362" y="22" type="curve" smooth="yes"/>
      <point x="362" y="-15"/>
      <point x="318" y="-26"/>
      <point x="264" y="-26" type="curve" smooth="yes"/>
      <point x="209" y="-26"/>
      <point x="158" y="-15"/>
      <point x="97" y="6" type="curve"/>
      <point x="64" y="-114" type="line"/>
      <point x="114" y="-134"/>
      <point x="191" y="-151"/>
      <point x="266" y="-151" type="curve" smooth="yes"/>
    </contour>
    <contour>
      <point x="502" y="139"/>
      <point x="550" y="199"/>
      <point x="550" y="284" type="curve" smooth="yes"/>
      <point x="550" y="476"/>
      <point x="263" y="444"/>
      <point x="263" y="525" type="curve" smooth="yes"/>
      <point x="263" y="553"/>
      <point x="296" y="566"/>
      <point x="351" y="566" type="curve" smooth="yes"/>
      <point x="400" y="566"/>
      <point x="444" y="555"/>
      <point x="490" y="539" type="curve"/>
      <point x="523" y="659" type="line"/>
      <point x="474" y="680"/>
      <point x="403" y="691"/>
      <point x="346" y="691" type="curve" smooth="yes"/>
      <point x="190" y="691"/>
      <point x="91" y="629"/>
      <point x="91" y="504" type="curve" smooth="yes"/>
      <point x="91" y="337"/>
      <point x="378" y="351"/>
      <point x="378" y="272" type="curve" smooth="yes"/>
      <point x="378" y="235"/>
      <point x="334" y="214"/>
      <point x="270" y="194" type="curve"/>
      <point x="405" y="113" type="line"/>
    </contour>
  </outline>
</glyph>
<glyph name="dieresis" format="1">
  <advance width="500"/>
  <unicode hex="00A8"/>
  <outline>
    <contour>
      <point x="428" y="643"/>
      <point x="470" y="685"/>
      <point x="470" y="734" type="curve" smooth="yes"/>
      <point x="470" y="783"/>
      <point x="428" y="825"/>
      <point x="379" y="825" type="curve" smooth="yes"/>
      <point x="330" y="825"/>
      <point x="288" y="783"/>
      <point x="288" y="734" type="curve" smooth="yes"/>
      <point x="288" y="685"/>
      <point x="330" y="643"/>
      <point x="379" y="643" type="curve" smooth="yes"/>
    </contour>
    <contour>
      <point x="170" y="643"/>
      <point x="212" y="685"/>
      <point x="212" y="734" type="curve" smooth="yes"/>
      <point x="212" y="783"/>
      <point x="170" y="825"/>
      <point x="121" y="825" type="curve" smooth="yes"/>
      <point x="72" y="825"/>
      <point x="30" y="783"/>
      <point x="30" y="734" type="curve" smooth="yes"/>
      <point x="30" y="685"/>
      <point x="72" y="643"/>
      <point x="121" y="643" type="curve" smooth="yes"/>
    </contour>
    <contour>
      <point x="250" y="620" type="move" name="_top"/>
    </contour>
  </outline>
</glyph>
<glyph name="copyright" format="1">
  <advance width="818"/>
  <unicode hex="00A9"/>
  <outline>
    <contour>
      <point x="630" y="-12"/>
      <point x="773" y="146"/>
      <point x="773" y="340" type="curve" smooth="yes"/>
      <point x="773" y="534"/>
      <point x="630" y="691"/>
      <point x="409" y="691" type="curve" smooth="yes"/>
      <point x="188" y="691"/>
      <point x="45" y="534"/>
      <point x="45" y="340" type="curve" smooth="yes"/>
      <point x="45" y="146"/>
      <point x="188" y="-12"/>
      <point x="409" y="-12" type="curve" smooth="yes"/>
    </contour>
    <contour>
      <point x="465" y="152"/>
      <point x="508" y="163"/>
      <point x="535" y="177" type="curve"/>
      <point x="503" y="266" type="line"/>
      <point x="489" y="260"/>
      <point x="465" y="251"/>
      <point x="439" y="251" type="curve" smooth="yes"/>
      <point x="383" y="251"/>
      <point x="356" y="290"/>
      <point x="356" y="341" type="curve"/>
      <point x="356" y="390"/>
      <point x="387" y="430"/>
      <point x="443" y="430" type="curve" smooth="yes"/>
      <point x="473" y="430"/>
      <point x="495" y="421"/>
      <point x="510" y="415" type="curve"/>
      <point x="535" y="504" type="line"/>
      <point x="508" y="518"/>
      <point x="470" y="528"/>
      <point x="426" y="528" type="curve" smooth="yes"/>
      <point x="298" y="528"/>
      <point x="233" y="439"/>
      <point x="233" y="341" type="curve"/>
      <point x="233" y="242"/>
      <point x="293" y="152"/>
      <point x="422" y="152" type="curve"/>
    </contour>
    <contour>
      <point x="257" y="89"/>
      <point x="170" y="201"/>
      <point x="170" y="340" type="curve" smooth="yes"/>
      <point x="170" y="479"/>
      <point x="257" y="591"/>
      <point x="409" y="591" type="curve" smooth="yes"/>
      <point x="561" y="591"/>
      <point x="648" y="479"/>
      <point x="648" y="340" type="curve" smooth="yes"/>
      <point x="648" y="201"/>
      <point x="561" y="89"/>
      <point x="409" y="89" type="curve" smooth="yes"/>
    </contour>
  </outline>
</glyph>
<glyph name="ordfeminine" format="1">
  <advance width="453"/>
  <unicode hex="00AA"/>
  <outline>
    <contour>
      <point x="285" y="474" type="line"/>
      <point x="254" y="444"/>
      <point x="226" y="424"/>
      <point x="207" y="424" type="curve" smooth="yes"/>
      <point x="192" y="424"/>
      <point x="182" y="432"/>
      <point x="182" y="445" type="curve" smooth="yes"/>
      <point x="182" y="477"/>
      <point x="210" y="493"/>
      <point x="285" y="521" type="curve"/>
      <point x="285" y="594" type="line"/>
      <point x="120" y="553"/>
      <point x="23" y="525"/>
      <point x="23" y="421" type="curve" smooth="yes"/>
      <point x="23" y="368"/>
      <point x="67" y="324"/>
      <point x="132" y="324" type="curve" smooth="yes"/>
      <point x="203" y="324"/>
      <point x="239" y="351"/>
      <point x="287" y="385" type="curve"/>
    </contour>
    <contour>
      <point x="246" y="414" type="line" smooth="yes"/>
      <point x="246" y="342"/>
      <point x="300" y="325"/>
      <point x="360" y="325" type="curve" smooth="yes"/>
      <point x="389" y="325"/>
      <point x="418" y="328"/>
      <point x="445" y="335" type="curve"/>
      <point x="439" y="450" type="line"/>
      <point x="433" y="447"/>
      <point x="426" y="445"/>
      <point x="418" y="445" type="curve" smooth="yes"/>
      <point x="406" y="445"/>
      <point x="403" y="452"/>
      <point x="403" y="465" type="curve" smooth="yes"/>
      <point x="403" y="562" type="line" smooth="yes"/>
      <point x="403" y="682"/>
      <point x="358" y="733"/>
      <point x="246" y="733" type="curve" smooth="yes"/>
      <point x="157" y="733"/>
      <point x="84" y="707"/>
      <point x="21" y="676" type="curve"/>
      <point x="51" y="586" type="line"/>
      <point x="108" y="617"/>
      <point x="155" y="630"/>
      <point x="197" y="630" type="curve" smooth="yes"/>
      <point x="240" y="630"/>
      <point x="246" y="605"/>
      <point x="246" y="583" type="curve" smooth="yes"/>
    </contour>
    <contour>
      <point x="24" y="141" type="line"/>
      <point x="434" y="141" type="line"/>
      <point x="434" y="259" type="line"/>
      <point x="24" y="259" type="line"/>
    </contour>
  </outline>
</glyph>
<glyph name="logicalnot" format="1">
  <advance width="664"/>
  <unicode hex="00AC"/>
  <outline>
    <contour>
      <point x="632" y="244" type="line"/>
      <point x="632" y="367" type="line"/>
      <point x="32" y="367" type="line"/>
      <point x="32" y="244" type="line"/>
    </contour>
    <contour>
      <point x="632" y="0" type="line"/>
      <point x="632" y="340" type="line"/>
      <point x="499" y="340" type="line"/>
      <point x="499" y="0" type="line"/>
    </contour>
  </outline>
</glyph>
<glyph name="registered" format="1">
  <advance width="512"/>
  <unicode hex="00AE"/>
  <outline>
    <contour>
      <point x="381" y="290"/>
      <point x="479" y="386"/>
      <point x="479" y="513" type="curve" smooth="yes"/>
      <point x="479" y="643"/>
      <point x="381" y="736"/>
      <point x="257" y="736" type="curve" smooth="yes"/>
      <point x="133" y="736"/>
      <point x="33" y="643"/>
      <point x="33" y="513" type="curve" smooth="yes"/>
      <point x="33" y="386"/>
      <point x="133" y="290"/>
      <point x="257" y="290" type="curve" smooth="yes"/>
    </contour>
    <contour>
      <point x="237" y="428" type="line"/>
      <point x="237" y="600" type="line"/>
      <point x="181" y="600" type="line"/>
      <point x="181" y="428" type="line"/>
    </contour>
    <contour>
      <point x="357" y="428" type="line"/>
      <point x="300" y="514" type="line"/>
      <point x="240" y="514" type="line"/>
      <point x="293" y="428" type="line"/>
    </contour>
    <contour>
      <point x="170" y="353"/>
      <point x="99" y="420"/>
      <point x="99" y="513" type="curve" smooth="yes"/>
      <point x="99" y="607"/>
      <point x="170" y="675"/>
      <point x="256" y="675" type="curve" smooth="yes"/>
      <point x="343" y="675"/>
      <point x="414" y="607"/>
      <point x="414" y="513" type="curve" smooth="yes"/>
      <point x="414" y="420"/>
      <point x="343" y="353"/>
      <point x="256" y="353" type="curve" smooth="yes"/>
    </contour>
    <contour>
      <point x="264" y="479" type="line"/>
      <point x="267" y="481" type="line"/>
      <point x="317" y="481"/>
      <point x="338" y="505"/>
      <point x="338" y="540" type="curve"/>
      <point x="338" y="574"/>
      <point x="313" y="600"/>
      <point x="266" y="600" type="curve"/>
      <point x="224" y="600" type="line"/>
      <point x="224" y="557" type="line"/>
      <point x="262" y="557" type="line"/>
      <point x="278" y="557"/>
      <point x="281" y="550"/>
      <point x="281" y="541" type="curve"/>
      <point x="281" y="529"/>
      <point x="278" y="522"/>
      <point x="262" y="522" type="curve"/>
      <point x="224" y="522" type="line"/>
      <point x="224" y="479" type="line"/>
    </contour>
  </outline>
</glyph>
<glyph name="degree" format="1">
  <advance width="525"/>
  <unicode hex="00B0"/>
  <outline>
    <contour>
      <point x="392" y="338"/>
      <point x="466" y="431"/>
      <point x="466" y="537" type="curve"/>
      <point x="466" y="639"/>
      <point x="392" y="734"/>
      <point x="262" y="734" type="curve"/>
      <point x="133" y="734"/>
      <point x="59" y="639"/>
      <point x="59" y="535" type="curve"/>
      <point x="59" y="431"/>
      <point x="133" y="338"/>
      <point x="262" y="338" type="curve"/>
    </contour>
    <contour>
      <point x="216" y="445"/>
      <point x="183" y="484"/>
      <point x="183" y="536" type="curve"/>
      <point x="183" y="587"/>
      <point x="216" y="627"/>
      <point x="262" y="627" type="curve"/>
      <point x="309" y="627"/>
      <point x="342" y="587"/>
      <point x="342" y="536" type="curve"/>
      <point x="342" y="484"/>
      <point x="309" y="445"/>
      <point x="262" y="445" type="curve"/>
    </contour>
  </outline>
</glyph>
<glyph name="twosuperior" format="1">
  <advance width="477"/>
  <unicode hex="00B2"/>
  <outline>
    <contour>
      <point x="96" y="677" type="line"/>
      <point x="137" y="705"/>
      <point x="184" y="735"/>
      <point x="223" y="735" type="curve" smooth="yes"/>
      <point x="243" y="735"/>
      <point x="257" y="722"/>
      <point x="257" y="699" type="curve" smooth="yes"/>
      <point x="257" y="672"/>
      <point x="240" y="645"/>
      <point x="181" y="603" type="curve" smooth="yes"/>
      <point x="85" y="538" type="line"/>
      <point x="85" y="432" type="line"/>
      <point x="421" y="432" type="line"/>
      <point x="421" y="545" type="line"/>
      <point x="270" y="545" type="line"/>
      <point x="270" y="546" type="line"/>
      <point x="303" y="567" type="line" smooth="yes"/>
      <point x="370" y="613"/>
      <point x="410" y="650"/>
      <point x="410" y="714" type="curve" smooth="yes"/>
      <point x="410" y="775"/>
      <point x="361" y="847"/>
      <point x="228" y="847" type="curve" smooth="yes"/>
      <point x="162" y="847"/>
      <point x="102" y="814"/>
      <point x="63" y="785" type="curve"/>
    </contour>
  </outline>
</glyph>
<glyph name="threesuperior" format="1">
  <advance width="477"/>
  <unicode hex="00B3"/>
  <outline>
    <contour>
      <point x="249" y="694"/>
      <point x="210" y="688"/>
      <point x="150" y="677" type="curve"/>
      <point x="159" y="579" type="line"/>
      <point x="184" y="587"/>
      <point x="207" y="591"/>
      <point x="228" y="591" type="curve" smooth="yes"/>
      <point x="255" y="591"/>
      <point x="270" y="578"/>
      <point x="270" y="558" type="curve" smooth="yes"/>
      <point x="270" y="538"/>
      <point x="251" y="523"/>
      <point x="213" y="523" type="curve" smooth="yes"/>
      <point x="175" y="523"/>
      <point x="129" y="533"/>
      <point x="87" y="551" type="curve"/>
      <point x="57" y="453" type="line"/>
      <point x="110" y="430"/>
      <point x="163" y="421"/>
      <point x="210" y="421" type="curve" smooth="yes"/>
      <point x="348" y="421"/>
      <point x="418" y="479"/>
      <point x="418" y="548" type="curve" smooth="yes"/>
      <point x="418" y="652"/>
      <point x="279" y="675"/>
      <point x="225" y="671" type="curve"/>
      <point x="229" y="617" type="line"/>
      <point x="284" y="622"/>
      <point x="396" y="661"/>
      <point x="396" y="737" type="curve" smooth="yes"/>
      <point x="396" y="804"/>
      <point x="331" y="847"/>
      <point x="233" y="847" type="curve" smooth="yes"/>
      <point x="175" y="847"/>
      <point x="114" y="829"/>
      <point x="69" y="800" type="curve"/>
      <point x="99" y="709" type="line"/>
      <point x="135" y="733"/>
      <point x="184" y="745"/>
      <point x="211" y="745" type="curve" smooth="yes"/>
      <point x="236" y="745"/>
      <point x="249" y="736"/>
      <point x="249" y="722" type="curve" smooth="yes"/>
    </contour>
  </outline>
</glyph>
<glyph name="paragraph" format="1">
  <advance width="608"/>
  <unicode hex="00B6"/>
  <outline>
    <contour>
      <point x="456" y="-239"/>
      <point x="528" y="-158"/>
      <point x="528" y="-20" type="curve" smooth="yes"/>
      <point x="528" y="680" type="line"/>
      <point x="354" y="680" type="line"/>
      <point x="354" y="-18" type="line" smooth="yes"/>
      <point x="354" y="-79"/>
      <point x="327" y="-114"/>
      <point x="270" y="-114" type="curve" smooth="yes"/>
      <point x="243" y="-114"/>
      <point x="227" y="-112"/>
      <point x="203" y="-109" type="curve"/>
      <point x="192" y="-231" type="line"/>
      <point x="233" y="-236"/>
      <point x="267" y="-239"/>
      <point x="300" y="-239" type="curve" smooth="yes"/>
    </contour>
    <contour>
      <point x="439" y="200" type="line"/>
      <point x="439" y="680" type="line"/>
      <point x="298" y="680" type="line"/>
      <point x="121" y="680"/>
      <point x="30" y="575"/>
      <point x="30" y="441" type="curve"/>
      <point x="30" y="299"/>
      <point x="121" y="200"/>
      <point x="298" y="200" type="curve"/>
    </contour>
    <contour>
      <point x="408" y="680" type="line"/>
      <point x="352" y="680" type="line"/>
    </contour>
  </outline>
</glyph>
<glyph name="periodcentered" format="1">
  <advance width="350"/>
  <unicode hex="00B7"/>
  <outline>
    <contour>
      <point x="233" y="189"/>
      <point x="280" y="236"/>
      <point x="280" y="294" type="curve" smooth="yes"/>
      <point x="280" y="352"/>
      <point x="233" y="399"/>
      <point x="175" y="399" type="curve" smooth="yes"/>
      <point x="117" y="399"/>
      <point x="70" y="352"/>
      <point x="70" y="294" type="curve" smooth="yes"/>
      <point x="70" y="236"/>
      <point x="117" y="189"/>
      <point x="175" y="189" type="curve" smooth="yes"/>
    </contour>
    <contour>
      <point x="175" y="294" type="move" name="_dot"/>
    </contour>
  </outline>
</glyph>
<glyph name="cedilla" format="1">
  <advance width="500"/>
  <unicode hex="00B8"/>
  <outline>
    <contour>
      <point x="322" y="-245"/>
      <point x="364" y="-177"/>
      <point x="364" y="-128" type="curve" smooth="yes"/>
      <point x="364" y="-77"/>
      <point x="315" y="-42"/>
      <point x="255" y="-42" type="curve" smooth="yes"/>
      <point x="238" y="-42"/>
      <point x="222" y="-47"/>
      <point x="211" y="-53" type="curve"/>
      <point x="251" y="-88" type="line"/>
      <point x="325" y="50" type="line"/>
      <point x="213" y="50" type="line"/>
      <point x="146" y="-73" type="line"/>
      <point x="177" y="-116" type="line"/>
      <point x="188" y="-112"/>
      <point x="197" y="-111"/>
      <point x="204" y="-111" type="curve" smooth="yes"/>
      <point x="224" y="-111"/>
      <point x="237" y="-120"/>
      <point x="237" y="-135" type="curve" smooth="yes"/>
      <point x="237" y="-153"/>
      <point x="223" y="-168"/>
      <point x="151" y="-168" type="curve"/>
      <point x="173" y="-245" type="line"/>
    </contour>
    <contour>
      <point x="245" y="-10" type="move" name="_bottom"/>
    </contour>
  </outline>
</glyph>
<glyph name="onesuperior" format="1">
  <advance width="477"/>
  <unicode hex="00B9"/>
  <outline>
    <contour>
      <point x="349" y="432" type="line"/>
      <point x="349" y="840" type="line"/>
      <point x="222" y="840" type="line"/>
      <point x="196" y="799" type="line"/>
      <point x="196" y="432" type="line"/>
    </contour>
    <contour>
      <point x="123" y="738" type="line"/>
      <point x="283" y="738" type="line"/>
      <point x="222" y="840" type="line"/>
      <point x="102" y="840" type="line"/>
    </contour>
    <contour>
      <point x="111" y="432" type="line"/>
      <point x="434" y="432" type="line"/>
      <point x="434" y="545" type="line"/>
      <point x="111" y="545" type="line"/>
    </contour>
  </outline>
</glyph>
<glyph name="ordmasculine" format="1">
  <advance width="475"/>
  <unicode hex="00BA"/>
  <outline>
    <contour>
      <point x="237" y="426" type="curve"/>
      <point x="192" y="426"/>
      <point x="179" y="459"/>
      <point x="179" y="526" type="curve"/>
      <point x="179" y="592"/>
      <point x="192" y="625"/>
      <point x="237" y="625" type="curve"/>
      <point x="282" y="625"/>
      <point x="296" y="592"/>
      <point x="296" y="526" type="curve"/>
      <point x="296" y="459"/>
      <point x="282" y="426"/>
    </contour>
    <contour>
      <point x="237" y="318" type="curve"/>
      <point x="385" y="318"/>
      <point x="455" y="421"/>
      <point x="455" y="527" type="curve"/>
      <point x="455" y="629"/>
      <point x="385" y="733"/>
      <point x="237" y="733" type="curve"/>
      <point x="90" y="733"/>
      <point x="20" y="630"/>
      <point x="20" y="525" type="curve"/>
      <point x="20" y="421"/>
      <point x="90" y="318"/>
    </contour>
    <contour>
      <point x="34" y="141" type="line"/>
      <point x="441" y="141" type="line"/>
      <point x="441" y="259" type="line"/>
      <point x="34" y="259" type="line"/>
    </contour>
  </outline>
</glyph>
<glyph name="AE" format="1">
  <advance width="1013"/>
  <unicode hex="00C6"/>
  <outline>
    <contour>
      <point x="166" y="0" type="line"/>
      <point x="562" y="680" type="line"/>
      <point x="405" y="680" type="line"/>
      <point x="-15" y="0" type="line"/>
    </contour>
    <contour>
      <point x="963" y="0" type="line"/>
      <point x="963" y="125" type="line"/>
      <point x="593" y="125" type="line"/>
      <point x="593" y="0" type="line"/>
    </contour>
    <contour>
      <point x="682" y="0" type="line"/>
      <point x="682" y="680" type="line"/>
      <point x="502" y="680" type="line"/>
      <point x="502" y="0" type="line"/>
    </contour>
    <contour>
      <point x="535" y="217" type="line"/>
      <point x="592" y="282" type="line"/>
      <point x="903" y="282" type="line"/>
      <point x="903" y="407" type="line"/>
      <point x="613" y="407" type="line"/>
      <point x="541" y="342" type="line"/>
      <point x="293" y="342" type="line"/>
      <point x="293" y="217" type="line"/>
    </contour>
    <contour>
      <point x="943" y="555" type="line"/>
      <point x="943" y="680" type="line"/>
      <point x="593" y="680" type="line"/>
      <point x="593" y="555" type="line"/>
    </contour>
    <contour>
      <point x="592" y="730" type="move" name="top"/>
    </contour>
  </outline>
</glyph>
<glyph name="multiply" format="1">
  <advance width="664"/>
  <unicode hex="00D7"/>
  <outline>
    <contour>
      <point x="586" y="473" type="line"/>
      <point x="499" y="560" type="line"/>
      <point x="74" y="135" type="line"/>
      <point x="161" y="48" type="line"/>
    </contour>
    <contour>
      <point x="590" y="132" type="line"/>
      <point x="166" y="556" type="line"/>
      <point x="79" y="469" type="line"/>
      <point x="503" y="45" type="line"/>
    </contour>
  </outline>
</glyph>
<glyph name="Thorn" format="1">
  <advance width="705"/>
  <unicode hex="00DE"/>
  <outline>
    <contour>
      <point x="372" y="125" type="line" smooth="yes"/>
      <point x="568" y="125"/>
      <point x="652" y="195"/>
      <point x="652" y="350" type="curve" smooth="yes"/>
      <point x="652" y="505"/>
      <point x="568" y="575"/>
      <point x="372" y="575" type="curve" smooth="yes"/>
      <point x="181" y="575" type="line"/>
      <point x="181" y="450" type="line"/>
      <point x="372" y="450" type="line" smooth="yes"/>
      <point x="444" y="450"/>
      <point x="472" y="420"/>
      <point x="472" y="350" type="curve" smooth="yes"/>
      <point x="472" y="281"/>
      <point x="444" y="251"/>
      <point x="372" y="250" type="curve" smooth="yes"/>
      <point x="181" y="250" type="line"/>
      <point x="181" y="125" type="line"/>
    </contour>
    <contour>
      <point x="270" y="0" type="line"/>
      <point x="270" y="680" type="line"/>
      <point x="90" y="680" type="line"/>
      <point x="90" y="0" type="line"/>
    </contour>
  </outline>
</glyph>
<glyph name="germandbls" format="1">
  <advance width="732"/>
  <unicode hex="00DF"/>
  <outline>
    <contour>
      <point x="586" y="-12"/>
      <point x="692" y="58"/>
      <point x="692" y="172" type="curve" smooth="yes"/>
      <point x="692" y="330"/>
      <point x="485" y="346"/>
      <point x="485" y="417" type="curve" smooth="yes"/>
      <point x="485" y="476"/>
      <point x="607" y="539"/>
      <point x="607" y="645" type="curve" smooth="yes"/>
      <point x="607" y="745"/>
      <point x="519" y="807"/>
      <point x="366" y="807" type="curve" smooth="yes"/>
      <point x="179" y="807"/>
      <point x="80" y="723"/>
      <point x="80" y="581" type="curve" smooth="yes"/>
      <point x="80" y="0" type="line"/>
      <point x="254" y="0" type="line"/>
      <point x="254" y="579" type="line" smooth="yes"/>
      <point x="254" y="648"/>
      <point x="288" y="682"/>
      <point x="356" y="682" type="curve" smooth="yes"/>
      <point x="406" y="682"/>
      <point x="435" y="666"/>
      <point x="435" y="636" type="curve" smooth="yes"/>
      <point x="435" y="582"/>
      <point x="313" y="527"/>
      <point x="313" y="396" type="curve" smooth="yes"/>
      <point x="313" y="241"/>
      <point x="520" y="231"/>
      <point x="520" y="160" type="curve"/>
      <point x="520" y="127"/>
      <point x="498" y="113"/>
      <point x="451" y="113" type="curve" smooth="yes"/>
      <point x="410" y="113"/>
      <point x="356" y="124"/>
      <point x="312" y="139" type="curve"/>
      <point x="280" y="18" type="line"/>
      <point x="330" y="1"/>
      <point x="397" y="-12"/>
      <point x="463" y="-12" type="curve" smooth="yes"/>
    </contour>
  </outline>
</glyph>
<glyph name="ae" format="1">
  <advance width="933"/>
  <unicode hex="00E6"/>
  <outline>
    <contour>
      <point x="745" y="-12"/>
      <point x="809" y="13"/>
      <point x="879" y="69" type="curve"/>
      <point x="832" y="179" type="line"/>
      <point x="775" y="142"/>
      <point x="723" y="113"/>
      <point x="656" y="113" type="curve"/>
      <point x="562" y="113"/>
      <point x="528" y="172"/>
      <point x="528" y="286" type="curve"/>
      <point x="528" y="384"/>
      <point x="552" y="465"/>
      <point x="645" y="465" type="curve" smooth="yes"/>
      <point x="694" y="465"/>
      <point x="724" y="436"/>
      <point x="725" y="381" type="curve" smooth="yes"/>
      <point x="725" y="354"/>
      <point x="714" y="283"/>
      <point x="708" y="252" type="curve"/>
      <point x="880" y="252" type="line"/>
      <point x="889" y="282"/>
      <point x="893" y="315"/>
      <point x="893" y="340" type="curve" smooth="yes"/>
      <point x="892" y="492"/>
      <point x="811" y="580"/>
      <point x="655" y="580" type="curve" smooth="yes"/>
      <point x="457" y="580"/>
      <point x="362" y="457"/>
      <point x="362" y="283" type="curve"/>
      <point x="362" y="118"/>
      <point x="453" y="-12"/>
      <point x="655" y="-12" type="curve"/>
    </contour>
    <contour>
      <point x="297" y="-8"/>
      <point x="364" y="43"/>
      <point x="440" y="109" type="curve"/>
      <point x="436" y="207" type="line"/>
      <point x="366" y="158"/>
      <point x="313" y="117"/>
      <point x="258" y="117" type="curve" smooth="yes"/>
      <point x="227" y="117"/>
      <point x="214" y="129"/>
      <point x="214" y="155" type="curve" smooth="yes"/>
      <point x="214" y="196"/>
      <point x="242" y="218"/>
      <point x="342" y="254" type="curve" smooth="yes"/>
      <point x="436" y="287" type="line"/>
      <point x="436" y="379" type="line"/>
      <point x="327" y="348" type="line" smooth="yes"/>
      <point x="146" y="296"/>
      <point x="40" y="265"/>
      <point x="40" y="132" type="curve" smooth="yes"/>
      <point x="40" y="55"/>
      <point x="104" y="-8"/>
      <point x="197" y="-8" type="curve" smooth="yes"/>
    </contour>
    <contour>
      <point x="511" y="315" type="line"/>
      <point x="511" y="350" type="line" smooth="yes"/>
      <point x="511" y="527"/>
      <point x="438" y="580"/>
      <point x="332" y="580" type="curve" smooth="yes"/>
      <point x="219" y="580"/>
      <point x="125" y="543"/>
      <point x="44" y="497" type="curve"/>
      <point x="77" y="377" type="line"/>
      <point x="160" y="432"/>
      <point x="220" y="453"/>
      <point x="273" y="453" type="curve" smooth="yes"/>
      <point x="325" y="453"/>
      <point x="357" y="426"/>
      <point x="357" y="361" type="curve" smooth="yes"/>
      <point x="357" y="313" type="line"/>
    </contour>
    <contour>
      <point x="807" y="252" type="line"/>
      <point x="807" y="365" type="line"/>
      <point x="457" y="365" type="line"/>
      <point x="457" y="252" type="line"/>
    </contour>
    <contour>
      <point x="504" y="620" type="move" name="top"/>
    </contour>
  </outline>
</glyph>
<glyph name="eth" format="1">
  <advance width="704"/>
  <unicode hex="00F0"/>
  <outline>
    <contour>
      <point x="515" y="-12"/>
      <point x="637" y="108"/>
      <point x="637" y="295" type="curve" smooth="yes"/>
      <point x="637" y="510"/>
      <point x="480" y="740"/>
      <point x="215" y="811" type="curve"/>
      <point x="114" y="728" type="line"/>
      <point x="387" y="636"/>
      <point x="461" y="469"/>
      <point x="461" y="292" type="curve" smooth="yes"/>
      <point x="461" y="178"/>
      <point x="414" y="113"/>
      <point x="344" y="113" type="curve" smooth="yes"/>
      <point x="258" y="113"/>
      <point x="216" y="182"/>
      <point x="216" y="264" type="curve" smooth="yes"/>
      <point x="216" y="352"/>
      <point x="259" y="415"/>
      <point x="337" y="415" type="curve" smooth="yes"/>
      <point x="395" y="415"/>
      <point x="452" y="383"/>
      <point x="479" y="304" type="curve"/>
      <point x="611" y="335" type="line"/>
      <point x="576" y="441"/>
      <point x="477" y="540"/>
      <point x="337" y="540" type="curve" smooth="yes"/>
      <point x="144" y="540"/>
      <point x="40" y="411"/>
      <point x="40" y="264" type="curve" smooth="yes"/>
      <point x="40" y="118"/>
      <point x="138" y="-12"/>
      <point x="344" y="-12" type="curve" smooth="yes"/>
    </contour>
    <contour>
      <point x="572" y="699" type="line"/>
      <point x="527" y="801" type="line"/>
      <point x="123" y="639" type="line"/>
      <point x="169" y="536" type="line"/>
    </contour>
  </outline>
</glyph>
<glyph name="divide" format="1">
  <advance width="664"/>
  <unicode hex="00F7"/>
  <outline>
    <contour>
      <point x="632" y="244" type="line"/>
      <point x="632" y="367" type="line"/>
      <point x="32" y="367" type="line"/>
      <point x="32" y="244" type="line"/>
    </contour>
    <contour>
      <point x="390" y="-6"/>
      <point x="437" y="41"/>
      <point x="437" y="99" type="curve" smooth="yes"/>
      <point x="437" y="157"/>
      <point x="390" y="204"/>
      <point x="332" y="204" type="curve" smooth="yes"/>
      <point x="274" y="204"/>
      <point x="227" y="157"/>
      <point x="227" y="99" type="curve" smooth="yes"/>
      <point x="227" y="41"/>
      <point x="274" y="-6"/>
      <point x="332" y="-6" type="curve" smooth="yes"/>
    </contour>
    <contour>
      <point x="390" y="407"/>
      <point x="437" y="454"/>
      <point x="437" y="512" type="curve" smooth="yes"/>
      <point x="437" y="570"/>
      <point x="390" y="617"/>
      <point x="332" y="617" type="curve" smooth="yes"/>
      <point x="274" y="617"/>
      <point x="227" y="570"/>
      <point x="227" y="512" type="curve" smooth="yes"/>
      <point x="227" y="454"/>
      <point x="274" y="407"/>
      <point x="332" y="407" type="curve" smooth="yes"/>
    </contour>
  </outline>
</glyph>
<glyph name="oslash" format="1">
  <advance width="678"/>
  <unicode hex="00F8"/>
  <outline>
    <contour>
      <point x="592" y="582" type="line"/>
      <point x="520" y="627" type="line"/>
      <point x="76" y="-16" type="line"/>
      <point x="148" y="-61" type="line"/>
    </contour>
    <component base="o"/>
  </outline>
</glyph>
<glyph name="hbar" format="1">
  <advance width="687"/>
  <unicode hex="0127"/>
  <outline>
    <contour>
      <point x="416" y="624" type="line"/>
      <point x="416" y="746" type="line"/>
      <point x="3" y="746" type="line"/>
      <point x="3" y="624" type="line"/>
    </contour>
    <component base="h"/>
  </outline>
</glyph>
<glyph name="kgreenlandic" format="1">
  <advance width="640"/>
  <unicode hex="0138"/>
  <outline>
    <contour>
      <point x="635" y="0" type="line"/>
      <point x="395" y="326" type="line"/>
      <point x="398" y="294" type="line"/>
      <point x="599" y="568" type="line"/>
      <point x="421" y="568" type="line"/>
      <point x="245" y="319" type="line"/>
      <point x="245" y="299" type="line"/>
      <point x="446" y="0" type="line"/>
    </contour>
    <contour>
      <point x="254" y="0" type="line"/>
      <point x="254" y="568" type="line"/>
      <point x="80" y="568" type="line"/>
      <point x="80" y="0" type="line"/>
    </contour>
  </outline>
</glyph>
<glyph name="Lslash" format="1">
  <advance width="561"/>
  <unicode hex="0141"/>
  <outline>
    <contour>
      <point x="497" y="429" type="line"/>
      <point x="430" y="535" type="line"/>
      <point x="-19" y="251" type="line"/>
      <point x="48" y="145" type="line"/>
    </contour>
    <component base="L"/>
  </outline>
</glyph>
<glyph name="lslash" format="1">
  <advance width="334"/>
  <unicode hex="0142"/>
  <outline>
    <contour>
      <point x="374" y="498" type="line"/>
      <point x="302" y="596" type="line"/>
      <point x="-40" y="351" type="line"/>
      <point x="32" y="253" type="line"/>
    </contour>
    <component base="l"/>
  </outline>
</glyph>
<glyph name="OE" format="1">
  <advance width="1018"/>
  <unicode hex="0152"/>
  <outline>
    <contour>
      <point x="596" y="0" type="line"/>
      <point x="596" y="127" type="line"/>
      <point x="405" y="127" type="line"/>
      <point x="290" y="127"/>
      <point x="225" y="215"/>
      <point x="225" y="340" type="curve"/>
      <point x="225" y="467"/>
      <point x="290" y="553"/>
      <point x="405" y="553" type="curve"/>
      <point x="596" y="553" type="line"/>
      <point x="596" y="680" type="line"/>
      <point x="405" y="680" type="line"/>
      <point x="169" y="680"/>
      <point x="45" y="535"/>
      <point x="45" y="339" type="curve"/>
      <point x="45" y="148"/>
      <point x="169" y="0"/>
      <point x="405" y="0" type="curve"/>
    </contour>
    <contour>
      <point x="968" y="0" type="line"/>
      <point x="968" y="125" type="line"/>
      <point x="598" y="125" type="line"/>
      <point x="598" y="0" type="line"/>
    </contour>
    <contour>
      <point x="687" y="0" type="line"/>
      <point x="687" y="680" type="line"/>
      <point x="507" y="680" type="line"/>
      <point x="507" y="0" type="line"/>
    </contour>
    <contour>
      <point x="908" y="297" type="line"/>
      <point x="908" y="422" type="line"/>
      <point x="598" y="422" type="line"/>
      <point x="598" y="297" type="line"/>
    </contour>
    <contour>
      <point x="948" y="555" type="line"/>
      <point x="948" y="680" type="line"/>
      <point x="598" y="680" type="line"/>
      <point x="598" y="555" type="line"/>
    </contour>
  </outline>
</glyph>
<glyph name="oe" format="1">
  <advance width="1038"/>
  <unicode hex="0153"/>
  <outline>
    <contour>
      <point x="535" y="-12"/>
      <point x="633" y="131"/>
      <point x="633" y="285" type="curve" smooth="yes"/>
      <point x="633" y="439"/>
      <point x="535" y="580"/>
      <point x="339" y="580" type="curve" smooth="yes"/>
      <point x="143" y="580"/>
      <point x="40" y="457"/>
      <point x="40" y="283" type="curve" smooth="yes"/>
      <point x="40" y="116"/>
      <point x="138" y="-12"/>
      <point x="339" y="-12" type="curve" smooth="yes"/>
    </contour>
    <contour>
      <point x="251" y="113"/>
      <point x="216" y="171"/>
      <point x="216" y="284" type="curve" smooth="yes"/>
      <point x="216" y="397"/>
      <point x="251" y="455"/>
      <point x="339" y="455" type="curve" smooth="yes"/>
      <point x="427" y="455"/>
      <point x="462" y="397"/>
      <point x="462" y="284" type="curve" smooth="yes"/>
      <point x="462" y="171"/>
      <point x="427" y="113"/>
      <point x="339" y="113" type="curve" smooth="yes"/>
    </contour>
    <contour>
      <point x="850" y="-12"/>
      <point x="914" y="13"/>
      <point x="984" y="69" type="curve"/>
      <point x="937" y="179" type="line"/>
      <point x="880" y="142"/>
      <point x="828" y="113"/>
      <point x="761" y="113" type="curve"/>
      <point x="667" y="113"/>
      <point x="633" y="172"/>
      <point x="633" y="286" type="curve"/>
      <point x="633" y="384"/>
      <point x="657" y="465"/>
      <point x="750" y="465" type="curve" smooth="yes"/>
      <point x="799" y="465"/>
      <point x="829" y="436"/>
      <point x="830" y="381" type="curve" smooth="yes"/>
      <point x="830" y="354"/>
      <point x="819" y="283"/>
      <point x="813" y="252" type="curve"/>
      <point x="985" y="252" type="line"/>
      <point x="994" y="282"/>
      <point x="998" y="315"/>
      <point x="998" y="340" type="curve" smooth="yes"/>
      <point x="997" y="492"/>
      <point x="916" y="580"/>
      <point x="760" y="580" type="curve" smooth="yes"/>
      <point x="559" y="580"/>
      <point x="462" y="457"/>
      <point x="462" y="283" type="curve"/>
      <point x="462" y="118"/>
      <point x="555" y="-12"/>
      <point x="760" y="-12" type="curve"/>
    </contour>
    <contour>
      <point x="909" y="252" type="line"/>
      <point x="909" y="365" type="line"/>
      <point x="559" y="365" type="line"/>
      <point x="559" y="252" type="line"/>
    </contour>
  </outline>
</glyph>
<glyph name="florin" format="1">
  <advance width="664"/>
  <unicode hex="0192"/>
  <outline>
    <contour>
      <point x="346" y="-173" type="line"/>
      <point x="398" y="474" type="line" smooth="yes"/>
      <point x="406" y="575"/>
      <point x="436" y="610"/>
      <point x="502" y="610" type="curve" smooth="yes"/>
      <point x="521" y="610"/>
      <point x="532" y="608"/>
      <point x="549" y="605" type="curve"/>
      <point x="588" y="721" type="line"/>
      <point x="554" y="729"/>
      <point x="518" y="734"/>
      <point x="482" y="734" type="curve" smooth="yes"/>
      <point x="344" y="734"/>
      <point x="241" y="677"/>
      <point x="225" y="476" type="curve" smooth="yes"/>
      <point x="173" y="-173" type="line"/>
    </contour>
    <contour>
      <point x="566" y="340" type="line"/>
      <point x="566" y="462" type="line"/>
      <point x="116" y="462" type="line"/>
      <point x="116" y="340" type="line"/>
    </contour>
  </outline>
</glyph>
<glyph name="jdotless" format="1">
  <advance width="334"/>
  <unicode hex="0237"/>
  <outline>
    <contour>
      <point x="182" y="-239"/>
      <point x="254" y="-158"/>
      <point x="254" y="-20" type="curve" smooth="yes"/>
      <point x="254" y="568" type="line"/>
      <point x="80" y="568" type="line"/>
      <point x="80" y="-18" type="line" smooth="yes"/>
      <point x="80" y="-79"/>
      <point x="53" y="-114"/>
      <point x="-4" y="-114" type="curve" smooth="yes"/>
      <point x="-31" y="-114"/>
      <point x="-47" y="-112"/>
      <point x="-71" y="-109" type="curve"/>
      <point x="-82" y="-231" type="line"/>
      <point x="-41" y="-236"/>
      <point x="-7" y="-239"/>
      <point x="26" y="-239" type="curve" smooth="yes"/>
    </contour>
    <contour>
      <point x="167" y="620" type="move" name="top"/>
    </contour>
  </outline>
</glyph>
<glyph name="circumflex" format="1">
  <advance width="500"/>
  <unicode hex="02C6"/>
  <outline>
    <contour>
      <point x="451" y="590" type="line"/>
      <point x="336" y="800" type="line"/>
      <point x="187" y="800" type="line"/>
      <point x="317" y="590" type="line"/>
    </contour>
    <contour>
      <point x="183" y="590" type="line"/>
      <point x="313" y="800" type="line"/>
      <point x="164" y="800" type="line"/>
      <point x="49" y="590" type="line"/>
    </contour>
    <contour>
      <point x="250" y="580" type="move" name="_top"/>
    </contour>
  </outline>
</glyph>
<glyph name="caron" format="1">
  <advance width="500"/>
  <unicode hex="02C7"/>
  <outline>
    <contour>
      <point x="336" y="590" type="line"/>
      <point x="451" y="800" type="line"/>
      <point x="317" y="800" type="line"/>
      <point x="187" y="590" type="line"/>
    </contour>
    <contour>
      <point x="313" y="590" type="line"/>
      <point x="183" y="800" type="line"/>
      <point x="49" y="800" type="line"/>
      <point x="164" y="590" type="line"/>
    </contour>
    <contour>
      <point x="250" y="580" type="move" name="_top"/>
    </contour>
  </outline>
</glyph>
<glyph name="breve" format="1">
  <advance width="500"/>
  <unicode hex="02D8"/>
  <outline>
    <contour>
      <point x="367" y="588"/>
      <point x="437" y="656"/>
      <point x="440" y="800" type="curve"/>
      <point x="323" y="803" type="line"/>
      <point x="320" y="735"/>
      <point x="292" y="703"/>
      <point x="250" y="703" type="curve"/>
      <point x="208" y="703"/>
      <point x="180" y="735"/>
      <point x="177" y="802" type="curve"/>
      <point x="60" y="800" type="line"/>
      <point x="63" y="656"/>
      <point x="133" y="588"/>
      <point x="250" y="588" type="curve"/>
    </contour>
    <contour>
      <point x="250" y="580" type="move" name="_top"/>
    </contour>
  </outline>
</glyph>
<glyph name="dotaccent" format="1">
  <advance width="500"/>
  <unicode hex="02D9"/>
  <outline>
    <contour>
      <point x="299" y="643"/>
      <point x="341" y="685"/>
      <point x="341" y="734" type="curve" smooth="yes"/>
      <point x="341" y="783"/>
      <point x="299" y="825"/>
      <point x="250" y="825" type="curve" smooth="yes"/>
      <point x="201" y="825"/>
      <point x="159" y="783"/>
      <point x="159" y="734" type="curve" smooth="yes"/>
      <point x="159" y="685"/>
      <point x="201" y="643"/>
      <point x="250" y="643" type="curve" smooth="yes"/>
    </contour>
    <contour>
      <point x="250" y="620" type="move" name="_top"/>
    </contour>
  </outline>
</glyph>
<glyph name="ring" format="1">
  <advance width="500"/>
  <unicode hex="02DA"/>
  <outline>
    <contour>
      <point x="350" y="605"/>
      <point x="402" y="666"/>
      <point x="402" y="726" type="curve"/>
      <point x="402" y="787"/>
      <point x="350" y="847"/>
      <point x="250" y="847" type="curve"/>
      <point x="150" y="847"/>
      <point x="98" y="787"/>
      <point x="98" y="726" type="curve"/>
      <point x="98" y="666"/>
      <point x="150" y="605"/>
      <point x="250" y="605" type="curve"/>
    </contour>
    <contour>
      <point x="221" y="678"/>
      <point x="203" y="699"/>
      <point x="203" y="726" type="curve"/>
      <point x="203" y="753"/>
      <point x="221" y="774"/>
      <point x="250" y="774" type="curve"/>
      <point x="279" y="774"/>
      <point x="297" y="753"/>
      <point x="297" y="726" type="curve"/>
      <point x="297" y="699"/>
      <point x="279" y="678"/>
      <point x="250" y="678" type="curve"/>
    </contour>
    <contour>
      <point x="250" y="600" type="move" name="_top"/>
    </contour>
  </outline>
</glyph>
<glyph name="ogonek" format="1">
  <advance width="500"/>
  <unicode hex="02DB"/>
  <outline>
    <contour>
      <point x="328" y="-276"/>
      <point x="390" y="-243"/>
      <point x="414" y="-215" type="curve"/>
      <point x="370" y="-119" type="line"/>
      <point x="346" y="-139"/>
      <point x="323" y="-151"/>
      <point x="301" y="-151" type="curve" smooth="yes"/>
      <point x="280" y="-151"/>
      <point x="266" y="-141"/>
      <point x="266" y="-120" type="curve" smooth="yes"/>
      <point x="266" y="-86"/>
      <point x="301" y="-38"/>
      <point x="369" y="15" type="curve"/>
      <point x="234" y="15" type="line"/>
      <point x="167" y="-31"/>
      <point x="129" y="-100"/>
      <point x="129" y="-157" type="curve" smooth="yes"/>
      <point x="129" y="-232"/>
      <point x="184" y="-276"/>
      <point x="266" y="-276" type="curve" smooth="yes"/>
    </contour>
    <contour>
      <point x="271" y="-10" type="move" name="_bottom"/>
    </contour>
  </outline>
</glyph>
<glyph name="tilde" format="1">
  <advance width="500"/>
  <unicode hex="02DC"/>
  <outline>
    <contour>
      <point x="154" y="660"/>
      <point x="167" y="676"/>
      <point x="185" y="676" type="curve" smooth="yes"/>
      <point x="222" y="676"/>
      <point x="267" y="630"/>
      <point x="325" y="630" type="curve"/>
      <point x="392" y="630"/>
      <point x="443" y="707"/>
      <point x="450" y="807" type="curve"/>
      <point x="356" y="811" type="line"/>
      <point x="346" y="771"/>
      <point x="332" y="755"/>
      <point x="315" y="755" type="curve"/>
      <point x="273" y="755"/>
      <point x="230" y="801"/>
      <point x="175" y="801" type="curve" smooth="yes"/>
      <point x="107" y="801"/>
      <point x="57" y="735"/>
      <point x="50" y="624" type="curve"/>
      <point x="144" y="620" type="line"/>
    </contour>
    <contour>
      <point x="250" y="580" type="move" name="_top"/>
    </contour>
  </outline>
</glyph>
<glyph name="commaaccent" format="1">
  <advance width="500"/>
  <unicode hex="0326"/>
  <outline>
    <contour>
      <point x="279" y="-263"/>
      <point x="348" y="-212"/>
      <point x="348" y="-138" type="curve" smooth="yes"/>
      <point x="348" y="-87"/>
      <point x="312" y="-37"/>
      <point x="205" y="-27" type="curve"/>
      <point x="171" y="-109" type="line"/>
      <point x="209" y="-110"/>
      <point x="221" y="-127"/>
      <point x="221" y="-145" type="curve" smooth="yes"/>
      <point x="221" y="-168"/>
      <point x="205" y="-187"/>
      <point x="144" y="-188" type="curve"/>
      <point x="168" y="-265" type="line"/>
    </contour>
    <contour>
      <point x="245" y="-10" type="move" name="_bottom"/>
    </contour>
  </outline>
</glyph>
<glyph name="Omega" format="1">
  <advance width="842"/>
  <unicode hex="03A9"/>
  <outline>
    <contour>
      <point x="421" y="695" type="curve"/>
      <point x="189" y="695"/>
      <point x="45" y="557"/>
      <point x="45" y="378" type="curve" smooth="yes"/>
      <point x="45" y="278"/>
      <point x="97" y="190"/>
      <point x="173" y="129" type="curve"/>
      <point x="173" y="125" type="line"/>
      <point x="42" y="125" type="line"/>
      <point x="42" y="0" type="line"/>
      <point x="379" y="0" type="line"/>
      <point x="379" y="114" type="line"/>
      <point x="275" y="195"/>
      <point x="225" y="270"/>
      <point x="225" y="379" type="curve" smooth="yes"/>
      <point x="225" y="494"/>
      <point x="303" y="566"/>
      <point x="421" y="566" type="curve"/>
      <point x="539" y="566"/>
      <point x="617" y="494"/>
      <point x="617" y="379" type="curve" smooth="yes"/>
      <point x="617" y="270"/>
      <point x="567" y="195"/>
      <point x="463" y="114" type="curve"/>
      <point x="463" y="0" type="line"/>
      <point x="800" y="0" type="line"/>
      <point x="800" y="125" type="line"/>
      <point x="670" y="125" type="line"/>
      <point x="670" y="129" type="line"/>
      <point x="746" y="189"/>
      <point x="797" y="278"/>
      <point x="797" y="378" type="curve" smooth="yes"/>
      <point x="797" y="557"/>
      <point x="653" y="695"/>
    </contour>
  </outline>
</glyph>
<glyph name="mu" format="1">
  <advance width="687"/>
  <unicode hex="03BC"/>
  <outline>
    <contour>
      <point x="340" y="-12"/>
      <point x="405" y="11"/>
      <point x="476" y="57" type="curve"/>
      <point x="435" y="150" type="line"/>
      <point x="404" y="130"/>
      <point x="366" y="115"/>
      <point x="329" y="115" type="curve" smooth="yes"/>
      <point x="266" y="115"/>
      <point x="249" y="147"/>
      <point x="249" y="239" type="curve" smooth="yes"/>
      <point x="249" y="568" type="line"/>
      <point x="75" y="568" type="line"/>
      <point x="75" y="217" type="line"/>
      <point x="120" y="75" type="line"/>
      <point x="147" y="21"/>
      <point x="178" y="-12"/>
      <point x="271" y="-12" type="curve" smooth="yes"/>
    </contour>
    <contour>
      <point x="249" y="-237" type="line"/>
      <point x="199" y="217" type="line"/>
      <point x="75" y="217" type="line"/>
      <point x="75" y="-237" type="line"/>
    </contour>
    <contour>
      <point x="607" y="0" type="line"/>
      <point x="607" y="568" type="line"/>
      <point x="433" y="568" type="line"/>
      <point x="433" y="116" type="line"/>
      <point x="478" y="0" type="line"/>
    </contour>
    <contour>
      <point x="338" y="620" type="move" name="top"/>
    </contour>
    <contour>
      <point x="509" y="-10" type="move" name="bottom"/>
    </contour>
  </outline>
</glyph>
<glyph name="pi" format="1">
  <advance width="746"/>
  <unicode hex="03C0"/>
  <outline>
    <contour>
      <point x="600" y="-7"/>
      <point x="646" y="-3"/>
      <point x="683" y="6" type="curve"/>
      <point x="677" y="124" type="line"/>
      <point x="662" y="120"/>
      <point x="651" y="119"/>
      <point x="640" y="119" type="curve" smooth="yes"/>
      <point x="612" y="119"/>
      <point x="601" y="131"/>
      <point x="601" y="160" type="curve" smooth="yes"/>
      <point x="601" y="506" type="line"/>
      <point x="427" y="492" type="line"/>
      <point x="427" y="137" type="line" smooth="yes"/>
      <point x="427" y="20"/>
      <point x="492" y="-7"/>
      <point x="571" y="-7" type="curve" smooth="yes"/>
    </contour>
    <contour>
      <point x="282" y="0" type="line"/>
      <point x="332" y="520" type="line"/>
      <point x="158" y="520" type="line"/>
      <point x="108" y="0" type="line"/>
    </contour>
    <contour>
      <point x="692" y="445" type="line"/>
      <point x="692" y="568" type="line"/>
      <point x="25" y="568" type="line"/>
      <point x="25" y="445" type="line"/>
    </contour>
  </outline>
</glyph>
<glyph name="uni0902" format="1">
  <advance width="0"/>
  <unicode hex="0902"/>
  <outline>
    <contour>
      <point x="-243" y="756"/>
      <point x="-198" y="711"/>
      <point x="-143" y="711" type="curve" smooth="yes"/>
      <point x="-88" y="711"/>
      <point x="-43" y="756"/>
      <point x="-43" y="811" type="curve" smooth="yes"/>
      <point x="-43" y="866"/>
      <point x="-88" y="911"/>
      <point x="-143" y="911" type="curve" smooth="yes"/>
      <point x="-198" y="911"/>
      <point x="-243" y="866"/>
      <point x="-243" y="811" type="curve" smooth="yes"/>
    </contour>
    <contour>
      <point x="-143" y="677" type="move" name="_top"/>
    </contour>
  </outline>
</glyph>
<glyph name="uni0903" format="1">
  <advance width="426"/>
  <unicode hex="0903"/>
  <outline>
    <contour>
      <point x="271" y="370"/>
      <point x="318" y="417"/>
      <point x="318" y="475" type="curve" smooth="yes"/>
      <point x="318" y="533"/>
      <point x="271" y="580"/>
      <point x="213" y="580" type="curve" smooth="yes"/>
      <point x="155" y="580"/>
      <point x="108" y="533"/>
      <point x="108" y="475" type="curve" smooth="yes"/>
      <point x="108" y="417"/>
      <point x="155" y="370"/>
      <point x="213" y="370" type="curve" smooth="yes"/>
    </contour>
    <contour>
      <point x="271" y="54"/>
      <point x="318" y="101"/>
      <point x="318" y="159" type="curve" smooth="yes"/>
      <point x="318" y="217"/>
      <point x="271" y="264"/>
      <point x="213" y="264" type="curve" smooth="yes"/>
      <point x="155" y="264"/>
      <point x="108" y="217"/>
      <point x="108" y="159" type="curve" smooth="yes"/>
      <point x="108" y="101"/>
      <point x="155" y="54"/>
      <point x="213" y="54" type="curve" smooth="yes"/>
    </contour>
  </outline>
</glyph>
<glyph name="aShort-deva" format="1">
  <advance width="891"/>
  <unicode hex="0904"/>
  <outline>
    <contour>
      <point x="804" y="638"/>
      <point x="808" y="661"/>
      <point x="808" y="679" type="curve" smooth="yes"/>
      <point x="808" y="795"/>
      <point x="733" y="879"/>
      <point x="581" y="879" type="curve" smooth="yes"/>
      <point x="519" y="879"/>
      <point x="448" y="867"/>
      <point x="385" y="867" type="curve" smooth="yes"/>
      <point x="361" y="867"/>
      <point x="352" y="879"/>
      <point x="352" y="901" type="curve" smooth="yes"/>
      <point x="352" y="920"/>
      <point x="360" y="942"/>
      <point x="380" y="965" type="curve"/>
      <point x="237" y="998" type="line"/>
      <point x="213" y="964"/>
      <point x="194" y="913"/>
      <point x="194" y="869" type="curve" smooth="yes"/>
      <point x="194" y="784"/>
      <point x="257" y="738"/>
      <point x="364" y="738" type="curve" smooth="yes"/>
      <point x="431" y="738"/>
      <point x="510" y="750"/>
      <point x="581" y="750" type="curve" smooth="yes"/>
      <point x="636" y="750"/>
      <point x="650" y="713"/>
      <point x="650" y="680" type="curve" smooth="yes"/>
      <point x="650" y="659"/>
      <point x="646" y="638"/>
      <point x="639" y="625" type="curve"/>
      <point x="797" y="622" type="line"/>
    </contour>
    <component base="a-deva"/>
  </outline>
</glyph>
<glyph name="i-deva" format="1">
  <advance width="560"/>
  <unicode hex="0907"/>
  <outline>
    <contour>
      <point x="431" y="-177" type="line"/>
      <point x="193" y="171" type="line"/>
      <point x="100" y="169"/>
      <point x="43" y="128"/>
      <point x="43" y="77" type="curve" smooth="yes"/>
      <point x="43" y="13"/>
      <point x="145" y="-40"/>
      <point x="276" y="-40" type="curve"/>
      <point x="422" y="-40"/>
      <point x="531" y="46"/>
      <point x="531" y="176" type="curve"/>
      <point x="531" y="248"/>
      <point x="484" y="317"/>
      <point x="435" y="350" type="curve"/>
      <point x="384" y="330"/>
      <point x="309" y="318"/>
      <point x="260" y="318" type="curve" smooth="yes"/>
      <point x="224" y="318"/>
      <point x="205" y="329"/>
      <point x="205" y="351" type="curve" smooth="yes"/>
      <point x="205" y="371"/>
      <point x="216" y="383"/>
      <point x="225" y="383" type="curve" smooth="yes"/>
      <point x="454" y="383" type="line"/>
      <point x="454" y="549" type="line"/>
      <point x="560" y="549" type="line"/>
      <point x="560" y="677" type="line"/>
      <point x="-20" y="677" type="line"/>
      <point x="-20" y="549" type="line"/>
      <point x="296" y="549" type="line"/>
      <point x="296" y="511" type="line"/>
      <point x="200" y="511" type="line" smooth="yes"/>
      <point x="101" y="511"/>
      <point x="46" y="439"/>
      <point x="46" y="354" type="curve" smooth="yes"/>
      <point x="46" y="266"/>
      <point x="114" y="189"/>
      <point x="262" y="189" type="curve" smooth="yes"/>
      <point x="327" y="189"/>
      <point x="383" y="208"/>
      <point x="430" y="228" type="curve"/>
      <point x="302" y="267" type="line"/>
      <point x="338" y="240"/>
      <point x="372" y="208"/>
      <point x="372" y="166" type="curve"/>
      <point x="372" y="122"/>
      <point x="325" y="88"/>
      <point x="263" y="88" type="curve" smooth="yes"/>
      <point x="236" y="88"/>
      <point x="184" y="96"/>
      <point x="135" y="106" type="curve"/>
      <point x="288" y="-252" type="line"/>
    </contour>
    <contour>
      <point x="373" y="677" type="move" name="top"/>
    </contour>
  </outline>
</glyph>
<glyph name="ii-deva" format="1">
  <advance width="560"/>
  <unicode hex="0908"/>
  <outline>
    <contour>
      <point x="447" y="660" type="line"/>
      <point x="397" y="702"/>
      <point x="348" y="749"/>
      <point x="348" y="809" type="curve" smooth="yes"/>
      <point x="348" y="851"/>
      <point x="366" y="883"/>
      <point x="420" y="883" type="curve" smooth="yes"/>
      <point x="451" y="883"/>
      <point x="472" y="874"/>
      <point x="489" y="866" type="curve"/>
      <point x="525" y="975" type="line"/>
      <point x="496" y="992"/>
      <point x="448" y="1010"/>
      <point x="395" y="1010" type="curve" smooth="yes"/>
      <point x="257" y="1010"/>
      <point x="189" y="937"/>
      <point x="189" y="844" type="curve" smooth="yes"/>
      <point x="189" y="768"/>
      <point x="225" y="712"/>
      <point x="283" y="660" type="curve"/>
    </contour>
    <component base="i-deva"/>
    <contour>
      <point x="520" y="617" type="move" name="top"/>
    </contour>
  </outline>
</glyph>
<glyph name="u-deva" format="1">
  <advance width="607"/>
  <unicode hex="0909"/>
  <outline>
    <contour>
      <point x="450" y="-23"/>
      <point x="541" y="57"/>
      <point x="541" y="165" type="curve" smooth="yes"/>
      <point x="541" y="261"/>
      <point x="480" y="327"/>
      <point x="430" y="369" type="curve"/>
      <point x="284" y="336" type="line"/>
      <point x="346" y="294"/>
      <point x="382" y="249"/>
      <point x="382" y="185" type="curve" smooth="yes"/>
      <point x="382" y="140"/>
      <point x="352" y="105"/>
      <point x="303" y="105" type="curve" smooth="yes"/>
      <point x="223" y="105"/>
      <point x="138" y="191"/>
      <point x="77" y="285" type="curve"/>
      <point x="0" y="186" type="line"/>
      <point x="65" y="85"/>
      <point x="163" y="-23"/>
      <point x="309" y="-23" type="curve" smooth="yes"/>
    </contour>
    <contour>
      <point x="435" y="274"/>
      <point x="534" y="358"/>
      <point x="534" y="463" type="curve" smooth="yes"/>
      <point x="534" y="534"/>
      <point x="500" y="595"/>
      <point x="450" y="631" type="curve"/>
      <point x="287" y="563" type="line"/>
      <point x="348" y="556"/>
      <point x="375" y="520"/>
      <point x="375" y="486" type="curve" smooth="yes"/>
      <point x="375" y="447"/>
      <point x="358" y="408"/>
      <point x="166" y="397" type="curve"/>
      <point x="206" y="268" type="line"/>
    </contour>
    <contour>
      <point x="607" y="549" type="line"/>
      <point x="607" y="677" type="line"/>
      <point x="-20" y="677" type="line"/>
      <point x="-20" y="667" type="line"/>
      <point x="-20" y="549" type="line"/>
    </contour>
    <contour>
      <point x="68" y="-100" type="move" name="nukta"/>
    </contour>
  </outline>
</glyph>
<glyph name="uni090A" format="1">
  <advance width="874"/>
  <unicode hex="090A"/>
  <outline>
    <contour>
      <point x="803" y="47"/>
      <point x="850" y="131"/>
      <point x="850" y="226" type="curve" smooth="yes"/>
      <point x="850" y="314"/>
      <point x="782" y="398"/>
      <point x="661" y="398" type="curve" smooth="yes"/>
      <point x="586" y="398"/>
      <point x="520" y="344"/>
      <point x="466" y="290" type="curve"/>
      <point x="468" y="99" type="line"/>
      <point x="528" y="184"/>
      <point x="595" y="269"/>
      <point x="652" y="269" type="curve" smooth="yes"/>
      <point x="676" y="269"/>
      <point x="691" y="255"/>
      <point x="691" y="232" type="curve" smooth="yes"/>
      <point x="691" y="185"/>
      <point x="647" y="125"/>
      <point x="602" y="69" type="curve"/>
      <point x="753" y="-14" type="line"/>
    </contour>
    <contour>
      <point x="874" y="549" type="line" smooth="yes"/>
      <point x="874" y="677" type="line" smooth="yes"/>
      <point x="583" y="677" type="line"/>
      <point x="583" y="549" type="line"/>
    </contour>
    <component base="uni0909"/>
    <contour>
      <point x="68" y="-100" type="move" name="nukta"/>
    </contour>
  </outline>
</glyph>
<glyph name="lVocalic-deva" format="1">
  <advance width="822"/>
  <unicode hex="090C"/>
  <outline>
    <contour>
      <point x="761" y="-159"/>
      <point x="813" y="-125"/>
      <point x="856" y="-92" type="curve"/>
      <point x="806" y="21" type="line"/>
      <point x="771" y="-9"/>
      <point x="726" y="-31"/>
      <point x="687" y="-31" type="curve" smooth="yes"/>
      <point x="656" y="-31"/>
      <point x="634" y="-18"/>
      <point x="634" y="8" type="curve" smooth="yes"/>
      <point x="634" y="78"/>
      <point x="798" y="173"/>
      <point x="798" y="280" type="curve" smooth="yes"/>
      <point x="798" y="368"/>
      <point x="722" y="462"/>
      <point x="588" y="462" type="curve"/>
      <point x="460" y="465"/>
      <point x="337" y="374"/>
      <point x="303" y="189" type="curve"/>
      <point x="462" y="160" type="line"/>
      <point x="487" y="263"/>
      <point x="532" y="333"/>
      <point x="588" y="333" type="curve"/>
      <point x="620" y="333"/>
      <point x="639" y="316"/>
      <point x="639" y="286" type="curve" smooth="yes"/>
      <point x="639" y="204"/>
      <point x="479" y="125"/>
      <point x="479" y="4" type="curve" smooth="yes"/>
      <point x="479" y="-100"/>
      <point x="570" y="-159"/>
      <point x="675" y="-159" type="curve" smooth="yes"/>
    </contour>
    <contour>
      <point x="345" y="31" type="line"/>
      <point x="247" y="119"/>
      <point x="195" y="184"/>
      <point x="195" y="270" type="curve" smooth="yes"/>
      <point x="195" y="324"/>
      <point x="235" y="350"/>
      <point x="269" y="350" type="curve" smooth="yes"/>
      <point x="321" y="350"/>
      <point x="357" y="313"/>
      <point x="395" y="255" type="curve"/>
      <point x="425" y="378" type="line"/>
      <point x="399" y="423"/>
      <point x="337" y="480"/>
      <point x="249" y="480" type="curve" smooth="yes"/>
      <point x="128" y="480"/>
      <point x="36" y="413"/>
      <point x="36" y="286" type="curve" smooth="yes"/>
      <point x="36" y="168"/>
      <point x="130" y="41"/>
      <point x="255" y="-60" type="curve"/>
    </contour>
    <contour>
      <point x="822" y="549" type="line"/>
      <point x="822" y="677" type="line"/>
      <point x="-20" y="677" type="line"/>
      <point x="-20" y="624" type="line"/>
      <point x="-20" y="549" type="line"/>
    </contour>
    <contour>
      <point x="664" y="400" type="line"/>
      <point x="664" y="610" type="line"/>
      <point x="505" y="610" type="line"/>
      <point x="505" y="400" type="line"/>
    </contour>
    <contour>
      <point x="40" y="-70" type="move" name="nukta"/>
    </contour>
    <contour>
      <point x="488" y="0" type="move" name="bottom"/>
    </contour>
    <contour>
      <point x="588" y="677" type="move" name="top"/>
    </contour>
  </outline>
</glyph>
<glyph name="uni090E" format="1">
  <advance width="714"/>
  <unicode hex="090E"/>
  <outline>
    <contour>
      <point x="614" y="638"/>
      <point x="618" y="661"/>
      <point x="618" y="679" type="curve" smooth="yes"/>
      <point x="618" y="795"/>
      <point x="543" y="879"/>
      <point x="391" y="879" type="curve" smooth="yes"/>
      <point x="329" y="879"/>
      <point x="258" y="867"/>
      <point x="195" y="867" type="curve" smooth="yes"/>
      <point x="171" y="867"/>
      <point x="162" y="879"/>
      <point x="162" y="901" type="curve" smooth="yes"/>
      <point x="162" y="920"/>
      <point x="170" y="942"/>
      <point x="190" y="965" type="curve"/>
      <point x="47" y="998" type="line"/>
      <point x="23" y="964"/>
      <point x="4" y="913"/>
      <point x="4" y="869" type="curve" smooth="yes"/>
      <point x="4" y="784"/>
      <point x="67" y="738"/>
      <point x="174" y="738" type="curve" smooth="yes"/>
      <point x="241" y="738"/>
      <point x="320" y="750"/>
      <point x="391" y="750" type="curve" smooth="yes"/>
      <point x="446" y="750"/>
      <point x="460" y="713"/>
      <point x="460" y="680" type="curve" smooth="yes"/>
      <point x="460" y="659"/>
      <point x="456" y="638"/>
      <point x="449" y="625" type="curve"/>
      <point x="607" y="622" type="line"/>
    </contour>
    <component base="uni090F"/>
  </outline>
</glyph>
<glyph name="uni090F" format="1">
  <advance width="714"/>
  <unicode hex="090F"/>
  <outline>
    <contour>
      <point x="696" y="-217"/>
      <point x="717" y="-173"/>
      <point x="717" y="-120" type="curve" smooth="yes"/>
      <point x="717" y="-80"/>
      <point x="680" y="-36"/>
      <point x="600" y="18" type="curve" smooth="yes"/>
      <point x="334" y="199" type="line" smooth="yes"/>
      <point x="287" y="231"/>
      <point x="268" y="252"/>
      <point x="268" y="310" type="curve" smooth="yes"/>
      <point x="268" y="605" type="line"/>
      <point x="109" y="605" type="line"/>
      <point x="109" y="307" type="line" smooth="yes"/>
      <point x="109" y="218"/>
      <point x="152" y="167"/>
      <point x="243" y="105" type="curve" smooth="yes"/>
      <point x="469" y="-48" type="line" smooth="yes"/>
      <point x="517" y="-80"/>
      <point x="546" y="-104"/>
      <point x="546" y="-130" type="curve" smooth="yes"/>
      <point x="546" y="-155"/>
      <point x="532" y="-178"/>
      <point x="509" y="-206" type="curve"/>
      <point x="642" y="-272" type="line"/>
    </contour>
    <contour>
      <point x="534" y="208"/>
      <point x="614" y="250"/>
      <point x="614" y="339" type="curve" smooth="yes"/>
      <point x="614" y="605" type="line"/>
      <point x="455" y="605" type="line"/>
      <point x="455" y="373" type="line" smooth="yes"/>
      <point x="455" y="329"/>
      <point x="423" y="303"/>
      <point x="367" y="282" type="curve"/>
      <point x="491" y="188" type="line"/>
    </contour>
    <contour>
      <point x="714" y="549" type="line"/>
      <point x="714" y="677" type="line"/>
      <point x="-20" y="677" type="line"/>
      <point x="-20" y="549" type="line"/>
    </contour>
    <contour>
      <point x="532" y="677" type="move" name="top"/>
    </contour>
  </outline>
</glyph>
<glyph name="ka-deva" format="1">
  <advance width="884"/>
  <unicode hex="0915"/>
  <outline>
    <contour>
      <point x="813" y="83"/>
      <point x="860" y="173"/>
      <point x="860" y="276" type="curve" smooth="yes"/>
      <point x="860" y="364"/>
      <point x="788" y="458"/>
      <point x="661" y="458" type="curve" smooth="yes"/>
      <point x="578" y="458"/>
      <point x="505" y="401"/>
      <point x="446" y="345" type="curve"/>
      <point x="448" y="159" type="line"/>
      <point x="514" y="244"/>
      <point x="572" y="329"/>
      <point x="652" y="329" type="curve" smooth="yes"/>
      <point x="682" y="329"/>
      <point x="701" y="312"/>
      <point x="701" y="282" type="curve" smooth="yes"/>
      <point x="701" y="229"/>
      <point x="657" y="161"/>
      <point x="612" y="99" type="curve"/>
      <point x="763" y="16" type="line"/>
    </contour>
    <contour>
      <point x="297" y="91"/>
      <point x="346" y="121"/>
      <point x="378" y="143" type="curve"/>
      <point x="376" y="300" type="line"/>
      <point x="343" y="255"/>
      <point x="297" y="220"/>
      <point x="252" y="220" type="curve" smooth="yes"/>
      <point x="210" y="220"/>
      <point x="184" y="249"/>
      <point x="184" y="285" type="curve" smooth="yes"/>
      <point x="184" y="325"/>
      <point x="214" y="355"/>
      <point x="254" y="355" type="curve" smooth="yes"/>
      <point x="298" y="355"/>
      <point x="345" y="325"/>
      <point x="375" y="283" type="curve"/>
      <point x="375" y="435" type="line"/>
      <point x="347" y="458"/>
      <point x="294" y="484"/>
      <point x="223" y="484" type="curve" smooth="yes"/>
      <point x="101" y="484"/>
      <point x="25" y="391"/>
      <point x="25" y="285" type="curve" smooth="yes"/>
      <point x="25" y="178"/>
      <point x="105" y="91"/>
      <point x="232" y="91" type="curve" smooth="yes"/>
    </contour>
    <contour>
      <point x="527" y="0" type="line"/>
      <point x="527" y="618" type="line"/>
      <point x="368" y="618" type="line"/>
      <point x="368" y="0" type="line"/>
    </contour>
    <contour>
      <point x="884" y="549" type="line"/>
      <point x="884" y="677" type="line"/>
      <point x="-20" y="677" type="line"/>
      <point x="-20" y="549" type="line"/>
    </contour>
    <contour>
      <point x="188" y="-50" type="move" name="nukta"/>
    </contour>
    <contour>
      <point x="448" y="0" type="move" name="bottom"/>
    </contour>
    <contour>
      <point x="448" y="677" type="move" name="top"/>
    </contour>
  </outline>
</glyph>
<glyph name="uni0916" format="1">
  <advance width="936"/>
  <unicode hex="0916"/>
  <outline>
    <contour>
      <point x="531" y="-32"/>
      <point x="670" y="20"/>
      <point x="760" y="115" type="curve"/>
      <point x="761" y="261" type="line"/>
      <point x="667" y="152"/>
      <point x="538" y="97"/>
      <point x="417" y="97" type="curve" smooth="yes"/>
      <point x="296" y="97"/>
      <point x="172" y="186"/>
      <point x="183" y="446" type="curve"/>
      <point x="46" y="426" type="line"/>
      <point x="33" y="149"/>
      <point x="201" y="-32"/>
      <point x="417" y="-32" type="curve" smooth="yes"/>
    </contour>
    <contour>
      <point x="322" y="229"/>
      <point x="407" y="284"/>
      <point x="407" y="411" type="curve" smooth="yes"/>
      <point x="407" y="472"/>
      <point x="384" y="535"/>
      <point x="341" y="581" type="curve"/>
      <point x="180" y="581" type="line"/>
      <point x="219" y="540"/>
      <point x="248" y="482"/>
      <point x="248" y="427" type="curve" smooth="yes"/>
      <point x="248" y="378"/>
      <point x="224" y="357"/>
      <point x="207" y="357" type="curve" smooth="yes"/>
      <point x="186" y="357"/>
      <point x="178" y="368"/>
      <point x="167" y="382" type="curve"/>
      <point x="189" y="246" type="line"/>
      <point x="197" y="240"/>
      <point x="222" y="229"/>
      <point x="251" y="229" type="curve" smooth="yes"/>
    </contour>
    <contour>
      <point x="634" y="181"/>
      <point x="663" y="193"/>
      <point x="691" y="214" type="curve"/>
      <point x="689" y="340" type="line"/>
      <point x="667" y="309"/>
      <point x="641" y="295"/>
      <point x="618" y="295" type="curve" smooth="yes"/>
      <point x="589" y="295"/>
      <point x="570" y="312"/>
      <point x="570" y="340" type="curve" smooth="yes"/>
      <point x="570" y="367"/>
      <point x="590" y="386"/>
      <point x="619" y="386" type="curve" smooth="yes"/>
      <point x="650" y="386"/>
      <point x="673" y="366"/>
      <point x="696" y="326" type="curve"/>
      <point x="696" y="456" type="line"/>
      <point x="671" y="482"/>
      <point x="639" y="500"/>
      <point x="593" y="500" type="curve" smooth="yes"/>
      <point x="505" y="500"/>
      <point x="426" y="432"/>
      <point x="426" y="332" type="curve" smooth="yes"/>
      <point x="426" y="258"/>
      <point x="490" y="181"/>
      <point x="594" y="181" type="curve" smooth="yes"/>
    </contour>
    <contour>
      <point x="847" y="-11" type="line"/>
      <point x="847" y="610" type="line"/>
      <point x="688" y="610" type="line"/>
      <point x="688" y="-11" type="line"/>
    </contour>
    <contour>
      <point x="936" y="549" type="line"/>
      <point x="936" y="677" type="line"/>
      <point x="-20" y="677" type="line"/>
      <point x="-20" y="549" type="line"/>
    </contour>
    <contour>
      <point x="158" y="-120" type="move" name="nukta"/>
    </contour>
    <contour>
      <point x="773" y="-10" type="move" name="bottom"/>
    </contour>
    <contour>
      <point x="768" y="677" type="move" name="top"/>
    </contour>
  </outline>
</glyph>
<glyph name="uni0919" format="1">
  <advance width="818"/>
  <unicode hex="0919"/>
  <outline>
    <contour>
      <point x="818" y="549" type="line"/>
      <point x="818" y="677" type="line"/>
      <point x="519" y="677" type="line"/>
      <point x="519" y="549" type="line"/>
    </contour>
    <component base="uni0921"/>
    <component base="uni093C" xOffset="724" yOffset="452"/>
    <contour>
      <point x="348" y="-130" type="move" name="nukta"/>
    </contour>
    <contour>
      <point x="350" y="0" type="move" name="bottom"/>
    </contour>
    <contour>
      <point x="445" y="677" type="move" name="top"/>
    </contour>
  </outline>
</glyph>
<glyph name="ca-deva" format="1">
  <advance width="716"/>
  <unicode hex="091A"/>
  <outline>
    <contour>
      <point x="374" y="68"/>
      <point x="437" y="101"/>
      <point x="494" y="149" type="curve"/>
      <point x="496" y="321" type="line"/>
      <point x="418" y="223"/>
      <point x="336" y="197"/>
      <point x="290" y="197" type="curve" smooth="yes"/>
      <point x="260" y="197"/>
      <point x="239" y="214"/>
      <point x="239" y="247" type="curve" smooth="yes"/>
      <point x="239" y="296"/>
      <point x="286" y="345"/>
      <point x="386" y="359" type="curve"/>
      <point x="182" y="411" type="line"/>
      <point x="119" y="373"/>
      <point x="80" y="316"/>
      <point x="80" y="247" type="curve" smooth="yes"/>
      <point x="80" y="148"/>
      <point x="159" y="68"/>
      <point x="291" y="68" type="curve" smooth="yes"/>
    </contour>
    <contour>
      <point x="308" y="349" type="line"/>
      <point x="386" y="359" type="line"/>
      <point x="386" y="477" type="line"/>
      <point x="10" y="477" type="line"/>
      <point x="10" y="349" type="line"/>
    </contour>
    <contour>
      <point x="627" y="0" type="line"/>
      <point x="627" y="610" type="line"/>
      <point x="468" y="610" type="line"/>
      <point x="468" y="0" type="line"/>
    </contour>
    <contour>
      <point x="716" y="549" type="line"/>
      <point x="716" y="677" type="line"/>
      <point x="-20" y="677" type="line"/>
      <point x="-20" y="549" type="line"/>
    </contour>
    <contour>
      <point x="98" y="-37" type="move" name="nukta"/>
    </contour>
    <contour>
      <point x="548" y="0" type="move" name="bottom"/>
    </contour>
    <contour>
      <point x="548" y="677" type="move" name="top"/>
    </contour>
  </outline>
</glyph>
<glyph name="uni091C" format="1">
  <advance width="809"/>
  <unicode hex="091C"/>
  <outline>
    <contour>
      <point x="438" y="39"/>
      <point x="519" y="102"/>
      <point x="519" y="201" type="curve" smooth="yes"/>
      <point x="519" y="278"/>
      <point x="459" y="344"/>
      <point x="383" y="392" type="curve"/>
      <point x="349" y="339" type="line"/>
      <point x="624" y="339" type="line"/>
      <point x="624" y="467" type="line"/>
      <point x="290" y="467" type="line"/>
      <point x="252" y="380" type="line"/>
      <point x="315" y="324"/>
      <point x="360" y="272"/>
      <point x="360" y="221" type="curve" smooth="yes"/>
      <point x="360" y="183"/>
      <point x="343" y="167"/>
      <point x="313" y="167" type="curve" smooth="yes"/>
      <point x="270" y="167"/>
      <point x="191" y="238"/>
      <point x="138" y="452" type="curve"/>
      <point x="14" y="418" type="line"/>
      <point x="67" y="187"/>
      <point x="158" y="39"/>
      <point x="349" y="39" type="curve" smooth="yes"/>
    </contour>
    <contour>
      <point x="720" y="0" type="line"/>
      <point x="720" y="610" type="line"/>
      <point x="561" y="610" type="line"/>
      <point x="561" y="0" type="line"/>
    </contour>
    <contour>
      <point x="809" y="549" type="line"/>
      <point x="809" y="677" type="line"/>
      <point x="-20" y="677" type="line"/>
      <point x="-20" y="549" type="line"/>
    </contour>
    <contour>
      <point x="185" y="-96" type="move" name="nukta"/>
    </contour>
    <contour>
      <point x="640" y="0" type="move" name="bottom"/>
    </contour>
    <contour>
      <point x="640" y="677" type="move" name="top"/>
    </contour>
  </outline>
</glyph>
<glyph name="jha-deva" format="1">
  <advance width="874"/>
  <unicode hex="091D"/>
  <outline>
    <contour>
      <point x="785" y="0" type="line"/>
      <point x="785" y="653" type="line"/>
      <point x="626" y="653" type="line"/>
      <point x="626" y="0" type="line"/>
    </contour>
    <contour>
      <point x="605" y="156"/>
      <point x="655" y="176"/>
      <point x="670" y="189" type="curve"/>
      <point x="670" y="325" type="line"/>
      <point x="643" y="300"/>
      <point x="604" y="285"/>
      <point x="555" y="285" type="curve" smooth="yes"/>
      <point x="520" y="285"/>
      <point x="482" y="294"/>
      <point x="453" y="305" type="curve"/>
      <point x="448" y="179" type="line"/>
      <point x="479" y="166"/>
      <point x="514" y="156"/>
      <point x="555" y="156" type="curve" smooth="yes"/>
    </contour>
    <contour>
      <point x="874" y="549" type="line"/>
      <point x="874" y="677" type="line"/>
      <point x="386" y="677" type="line"/>
      <point x="386" y="549" type="line"/>
    </contour>
    <component base="i-deva"/>
    <contour>
      <point x="88" y="-164" type="move" name="nukta"/>
    </contour>
    <contour>
      <point x="705" y="0" type="move" name="bottom"/>
    </contour>
    <contour>
      <point x="705" y="677" type="move" name="top"/>
    </contour>
  </outline>
</glyph>
<glyph name="nya-deva" format="1">
  <advance width="855"/>
  <unicode hex="091E"/>
  <outline>
    <contour>
      <point x="430" y="108"/>
      <point x="527" y="189"/>
      <point x="527" y="295" type="curve"/>
      <point x="527" y="423"/>
      <point x="424" y="484"/>
      <point x="322" y="484" type="curve" smooth="yes"/>
      <point x="256" y="484"/>
      <point x="209" y="460"/>
      <point x="166" y="427" type="curve"/>
      <point x="253" y="332" type="line"/>
      <point x="271" y="345"/>
      <point x="285" y="355"/>
      <point x="310" y="355" type="curve" smooth="yes"/>
      <point x="351" y="355"/>
      <point x="368" y="328"/>
      <point x="368" y="295" type="curve"/>
      <point x="368" y="265"/>
      <point x="340" y="237"/>
      <point x="292" y="237" type="curve" smooth="yes"/>
      <point x="221" y="237"/>
      <point x="164" y="286"/>
      <point x="94" y="397" type="curve"/>
      <point x="1" y="337" type="line"/>
      <point x="97" y="178"/>
      <point x="192" y="108"/>
      <point x="305" y="108" type="curve" smooth="yes"/>
    </contour>
    <contour>
      <point x="595" y="219"/>
      <point x="645" y="239"/>
      <point x="660" y="252" type="curve"/>
      <point x="660" y="388" type="line"/>
      <point x="633" y="363"/>
      <point x="594" y="348"/>
      <point x="545" y="348" type="curve" smooth="yes"/>
      <point x="532" y="348"/>
      <point x="518" y="350"/>
      <point x="496" y="353" type="curve"/>
      <point x="496" y="224" type="line"/>
      <point x="518" y="221"/>
      <point x="531" y="219"/>
      <point x="545" y="219" type="curve" smooth="yes"/>
    </contour>
    <contour>
      <point x="766" y="0" type="line"/>
      <point x="766" y="623" type="line"/>
      <point x="607" y="623" type="line"/>
      <point x="607" y="0" type="line"/>
    </contour>
    <contour>
      <point x="855" y="549" type="line"/>
      <point x="855" y="677" type="line"/>
      <point x="-20" y="677" type="line"/>
      <point x="-20" y="549" type="line"/>
    </contour>
    <contour>
      <point x="80" y="30" type="move" name="nukta"/>
    </contour>
    <contour>
      <point x="686" y="0" type="move" name="bottom"/>
    </contour>
    <contour>
      <point x="686" y="677" type="move" name="top"/>
    </contour>
  </outline>
</glyph>
<glyph name="uni091F" format="1">
  <advance width="645"/>
  <unicode hex="091F"/>
  <outline>
    <contour>
      <point x="451" y="9"/>
      <point x="530" y="34"/>
      <point x="612" y="88" type="curve"/>
      <point x="554" y="203" type="line"/>
      <point x="496" y="164"/>
      <point x="432" y="136"/>
      <point x="344" y="137" type="curve" smooth="yes"/>
      <point x="282" y="138"/>
      <point x="221" y="167"/>
      <point x="221" y="233" type="curve" smooth="yes"/>
      <point x="221" y="304"/>
      <point x="301" y="345"/>
      <point x="500" y="359" type="curve"/>
      <point x="361" y="477" type="line"/>
      <point x="155" y="449"/>
      <point x="65" y="367"/>
      <point x="65" y="233" type="curve" smooth="yes"/>
      <point x="65" y="95"/>
      <point x="185" y="9"/>
      <point x="342" y="9" type="curve" smooth="yes"/>
    </contour>
    <contour>
      <point x="500" y="359" type="line"/>
      <point x="500" y="610" type="line"/>
      <point x="342" y="610" type="line"/>
      <point x="342" y="359" type="line"/>
    </contour>
    <contour>
      <point x="645" y="549" type="line"/>
      <point x="645" y="677" type="line"/>
      <point x="-20" y="677" type="line"/>
      <point x="-20" y="549" type="line"/>
    </contour>
    <contour>
      <point x="344" y="-150" type="move" name="nukta"/>
    </contour>
    <contour>
      <point x="382" y="10" type="move" name="bottom"/>
    </contour>
    <contour>
      <point x="421" y="677" type="move" name="top"/>
    </contour>
  </outline>
</glyph>
<glyph name="uni0920" format="1">
  <advance width="694"/>
  <unicode hex="0920"/>
  <outline>
    <contour>
      <point x="499" y="9"/>
      <point x="629" y="107"/>
      <point x="629" y="245" type="curve" smooth="yes"/>
      <point x="629" y="383"/>
      <point x="474" y="471"/>
      <point x="397" y="509" type="curve"/>
      <point x="361" y="477" type="line"/>
      <point x="155" y="449"/>
      <point x="65" y="367"/>
      <point x="65" y="233" type="curve" smooth="yes"/>
      <point x="65" y="95"/>
      <point x="185" y="9"/>
      <point x="342" y="9" type="curve" smooth="yes"/>
    </contour>
    <contour>
      <point x="282" y="137"/>
      <point x="221" y="167"/>
      <point x="221" y="233" type="curve" smooth="yes"/>
      <point x="221" y="293"/>
      <point x="279" y="332"/>
      <point x="418" y="351" type="curve"/>
      <point x="448" y="325"/>
      <point x="473" y="296"/>
      <point x="473" y="245" type="curve" smooth="yes"/>
      <point x="473" y="179"/>
      <point x="406" y="137"/>
      <point x="344" y="137" type="curve" smooth="yes"/>
    </contour>
    <contour>
      <point x="495" y="455"/>
      <point x="504" y="481"/>
      <point x="504" y="517" type="curve" smooth="yes"/>
      <point x="504" y="548"/>
      <point x="492" y="574"/>
      <point x="475" y="599" type="curve"/>
      <point x="316" y="599" type="line"/>
      <point x="330" y="577"/>
      <point x="346" y="548"/>
      <point x="346" y="516" type="curve" smooth="yes"/>
      <point x="346" y="489"/>
      <point x="338" y="467"/>
      <point x="326" y="442" type="curve"/>
      <point x="478" y="421" type="line"/>
    </contour>
    <contour>
      <point x="694" y="549" type="line"/>
      <point x="694" y="677" type="line"/>
      <point x="-20" y="677" type="line"/>
      <point x="-20" y="549" type="line"/>
    </contour>
    <contour>
      <point x="342" y="-140" type="move" name="nukta"/>
    </contour>
    <contour>
      <point x="382" y="10" type="move" name="bottom"/>
    </contour>
    <contour>
      <point x="405" y="677" type="move" name="top"/>
    </contour>
  </outline>
</glyph>
<glyph name="dda-deva" format="1">
  <advance width="630"/>
  <unicode hex="0921"/>
  <outline>
    <contour>
      <point x="512" y="-15"/>
      <point x="601" y="58"/>
      <point x="601" y="171" type="curve"/>
      <point x="601" y="239"/>
      <point x="554" y="304"/>
      <point x="505" y="335" type="curve"/>
      <point x="448" y="321"/>
      <point x="364" y="313"/>
      <point x="310" y="313" type="curve" smooth="yes"/>
      <point x="258" y="313"/>
      <point x="235" y="322"/>
      <point x="235" y="341" type="curve" smooth="yes"/>
      <point x="235" y="358"/>
      <point x="248" y="368"/>
      <point x="275" y="368" type="curve" smooth="yes"/>
      <point x="524" y="368" type="line"/>
      <point x="524" y="549" type="line"/>
      <point x="630" y="549" type="line"/>
      <point x="630" y="677" type="line"/>
      <point x="-20" y="677" type="line"/>
      <point x="-20" y="549" type="line"/>
      <point x="366" y="549" type="line"/>
      <point x="366" y="496" type="line"/>
      <point x="250" y="496" type="line" smooth="yes"/>
      <point x="137" y="496"/>
      <point x="76" y="426"/>
      <point x="76" y="344" type="curve" smooth="yes"/>
      <point x="76" y="259"/>
      <point x="150" y="184"/>
      <point x="312" y="184" type="curve" smooth="yes"/>
      <point x="384" y="184"/>
      <point x="447" y="198"/>
      <point x="500" y="213" type="curve"/>
      <point x="372" y="252" type="line"/>
      <point x="408" y="227"/>
      <point x="442" y="198"/>
      <point x="442" y="161" type="curve"/>
      <point x="442" y="139"/>
      <point x="416" y="113"/>
      <point x="340" y="113" type="curve" smooth="yes"/>
      <point x="239" y="113"/>
      <point x="158" y="157"/>
      <point x="94" y="208" type="curve"/>
      <point x="32" y="106" type="line"/>
      <point x="113" y="33"/>
      <point x="223" y="-15"/>
      <point x="353" y="-15" type="curve" smooth="yes"/>
    </contour>
    <contour>
      <point x="348" y="-155" type="move" name="nukta"/>
    </contour>
    <contour>
      <point x="416" y="0" type="move" name="bottom"/>
    </contour>
    <contour>
      <point x="445" y="677" type="move" name="top"/>
    </contour>
  </outline>
</glyph>
<glyph name="uni0922" format="1">
  <advance width="635"/>
  <unicode hex="0922"/>
  <outline>
    <contour>
      <point x="473" y="-52"/>
      <point x="583" y="9"/>
      <point x="583" y="132" type="curve" smooth="yes"/>
      <point x="583" y="227"/>
      <point x="504" y="294"/>
      <point x="409" y="294" type="curve" smooth="yes"/>
      <point x="328" y="294"/>
      <point x="255" y="241"/>
      <point x="255" y="162" type="curve" smooth="yes"/>
      <point x="255" y="102"/>
      <point x="296" y="62"/>
      <point x="324" y="38" type="curve"/>
      <point x="420" y="50" type="line"/>
      <point x="395" y="71"/>
      <point x="384" y="101"/>
      <point x="384" y="132" type="curve" smooth="yes"/>
      <point x="384" y="157"/>
      <point x="398" y="175"/>
      <point x="419" y="175" type="curve" smooth="yes"/>
      <point x="438" y="175"/>
      <point x="454" y="159"/>
      <point x="454" y="136" type="curve" smooth="yes"/>
      <point x="454" y="101"/>
      <point x="418" y="73"/>
      <point x="350" y="73" type="curve" smooth="yes"/>
      <point x="282" y="73"/>
      <point x="209" y="144"/>
      <point x="209" y="253" type="curve" smooth="yes"/>
      <point x="209" y="319"/>
      <point x="243" y="363"/>
      <point x="323" y="363" type="curve" smooth="yes"/>
      <point x="504" y="363" type="line"/>
      <point x="504" y="620" type="line"/>
      <point x="346" y="620" type="line"/>
      <point x="346" y="491" type="line"/>
      <point x="294" y="491" type="line" smooth="yes"/>
      <point x="126" y="491"/>
      <point x="50" y="391"/>
      <point x="50" y="262" type="curve" smooth="yes"/>
      <point x="50" y="76"/>
      <point x="210" y="-52"/>
      <point x="380" y="-52" type="curve" smooth="yes"/>
    </contour>
    <contour>
      <point x="635" y="549" type="line"/>
      <point x="635" y="677" type="line"/>
      <point x="-20" y="677" type="line"/>
      <point x="-20" y="549" type="line"/>
    </contour>
    <contour>
      <point x="352" y="-200" type="move" name="nukta"/>
    </contour>
    <contour>
      <point x="355" y="-50" type="move" name="bottom"/>
    </contour>
    <contour>
      <point x="425" y="677" type="move" name="top"/>
    </contour>
  </outline>
</glyph>
<glyph name="uni0923" format="1">
  <advance width="809"/>
  <unicode hex="0923"/>
  <outline>
    <contour>
      <point x="407" y="140"/>
      <point x="485" y="207"/>
      <point x="485" y="328" type="curve" smooth="yes"/>
      <point x="485" y="605" type="line"/>
      <point x="326" y="605" type="line"/>
      <point x="326" y="328" type="line" smooth="yes"/>
      <point x="326" y="285"/>
      <point x="306" y="269"/>
      <point x="275" y="269" type="curve" smooth="yes"/>
      <point x="244" y="269"/>
      <point x="224" y="285"/>
      <point x="224" y="328" type="curve" smooth="yes"/>
      <point x="224" y="605" type="line"/>
      <point x="65" y="605" type="line"/>
      <point x="65" y="328" type="line" smooth="yes"/>
      <point x="65" y="207"/>
      <point x="143" y="140"/>
      <point x="275" y="140" type="curve"/>
    </contour>
    <contour>
      <point x="720" y="0" type="line"/>
      <point x="720" y="610" type="line"/>
      <point x="561" y="610" type="line"/>
      <point x="561" y="0" type="line"/>
    </contour>
    <contour>
      <point x="809" y="549" type="line"/>
      <point x="809" y="677" type="line"/>
      <point x="-20" y="677" type="line"/>
      <point x="-20" y="549" type="line"/>
    </contour>
    <contour>
      <point x="144" y="0" type="move" name="nukta"/>
    </contour>
    <contour>
      <point x="641" y="0" type="move" name="bottom"/>
    </contour>
    <contour>
      <point x="641" y="677" type="move" name="top"/>
    </contour>
  </outline>
</glyph>
<glyph name="uni0924" format="1">
  <advance width="657"/>
  <unicode hex="0924"/>
  <outline>
    <contour>
      <point x="330" y="44" type="line"/>
      <point x="253" y="121"/>
      <point x="202" y="187"/>
      <point x="202" y="266" type="curve" smooth="yes"/>
      <point x="202" y="310"/>
      <point x="232" y="338"/>
      <point x="276" y="338" type="curve" smooth="yes"/>
      <point x="439" y="338" type="line"/>
      <point x="439" y="466" type="line"/>
      <point x="255" y="466" type="line" smooth="yes"/>
      <point x="104" y="466"/>
      <point x="42" y="393"/>
      <point x="43" y="295" type="curve" smooth="yes"/>
      <point x="44" y="170"/>
      <point x="141" y="36"/>
      <point x="232" y="-40" type="curve"/>
    </contour>
    <contour>
      <point x="568" y="0" type="line"/>
      <point x="568" y="610" type="line"/>
      <point x="409" y="610" type="line"/>
      <point x="409" y="0" type="line"/>
    </contour>
    <contour>
      <point x="657" y="549" type="line"/>
      <point x="657" y="677" type="line"/>
      <point x="-20" y="677" type="line"/>
      <point x="-20" y="549" type="line"/>
    </contour>
    <contour>
      <point x="72" y="-90" type="move" name="nukta"/>
    </contour>
    <contour>
      <point x="489" y="0" type="move" name="bottom"/>
    </contour>
    <contour>
      <point x="489" y="677" type="move" name="top"/>
    </contour>
  </outline>
</glyph>
<glyph name="tha-deva" format="1">
  <advance width="740"/>
  <unicode hex="0925"/>
  <outline>
    <contour>
      <point x="415" y="96"/>
      <point x="485" y="122"/>
      <point x="526" y="170" type="curve"/>
      <point x="528" y="336" type="line"/>
      <point x="483" y="265"/>
      <point x="411" y="225"/>
      <point x="344" y="225" type="curve" smooth="yes"/>
      <point x="296" y="225"/>
      <point x="255" y="244"/>
      <point x="238" y="295" type="curve"/>
      <point x="193" y="259" type="line"/>
      <point x="340" y="312"/>
      <point x="418" y="404"/>
      <point x="418" y="508" type="curve" smooth="yes"/>
      <point x="418" y="639"/>
      <point x="316" y="697"/>
      <point x="213" y="697" type="curve" smooth="yes"/>
      <point x="114" y="697"/>
      <point x="39" y="641"/>
      <point x="39" y="550" type="curve" smooth="yes"/>
      <point x="39" y="447"/>
      <point x="126" y="369"/>
      <point x="267" y="340" type="curve"/>
      <point x="280" y="448" type="line"/>
      <point x="227" y="469"/>
      <point x="198" y="501"/>
      <point x="198" y="534" type="curve" smooth="yes"/>
      <point x="198" y="559"/>
      <point x="213" y="569"/>
      <point x="228" y="569" type="curve" smooth="yes"/>
      <point x="248" y="569"/>
      <point x="259" y="551"/>
      <point x="259" y="525" type="curve" smooth="yes"/>
      <point x="259" y="453"/>
      <point x="204" y="387"/>
      <point x="64" y="344" type="curve"/>
      <point x="102" y="188"/>
      <point x="200" y="96"/>
      <point x="344" y="96" type="curve" smooth="yes"/>
    </contour>
    <contour>
      <point x="651" y="0" type="line"/>
      <point x="651" y="610" type="line"/>
      <point x="492" y="610" type="line"/>
      <point x="492" y="0" type="line"/>
    </contour>
    <contour>
      <point x="740" y="549" type="line"/>
      <point x="740" y="677" type="line"/>
      <point x="444" y="677" type="line"/>
      <point x="444" y="549" type="line"/>
    </contour>
    <contour>
      <point x="90" y="16" type="move" name="nukta"/>
    </contour>
    <contour>
      <point x="572" y="0" type="move" name="bottom"/>
    </contour>
    <contour>
      <point x="572" y="677" type="move" name="top"/>
    </contour>
  </outline>
</glyph>
<glyph name="da-deva" format="1">
  <advance width="645"/>
  <unicode hex="0926"/>
  <outline>
    <contour>
      <point x="617" y="-28" type="line"/>
      <point x="466" y="183" type="line"/>
      <point x="432" y="192" type="line"/>
      <point x="401" y="177"/>
      <point x="374" y="172"/>
      <point x="344" y="172" type="curve" smooth="yes"/>
      <point x="286" y="172"/>
      <point x="221" y="210"/>
      <point x="221" y="283" type="curve" smooth="yes"/>
      <point x="221" y="327"/>
      <point x="250" y="363"/>
      <point x="322" y="363" type="curve" smooth="yes"/>
      <point x="500" y="363" type="line"/>
      <point x="500" y="610" type="line"/>
      <point x="342" y="610" type="line"/>
      <point x="342" y="491" type="line"/>
      <point x="293" y="491" type="line" smooth="yes"/>
      <point x="135" y="491"/>
      <point x="65" y="405"/>
      <point x="65" y="283" type="curve" smooth="yes"/>
      <point x="65" y="131"/>
      <point x="206" y="44"/>
      <point x="342" y="44" type="curve" smooth="yes"/>
      <point x="459" y="44"/>
      <point x="548" y="108"/>
      <point x="548" y="197" type="curve" smooth="yes"/>
      <point x="548" y="256"/>
      <point x="506" y="304"/>
      <point x="438" y="304" type="curve" smooth="yes"/>
      <point x="395" y="304"/>
      <point x="353" y="280"/>
      <point x="327" y="241" type="curve"/>
      <point x="474" y="-103" type="line"/>
    </contour>
    <contour>
      <point x="645" y="549" type="line"/>
      <point x="645" y="677" type="line"/>
      <point x="-20" y="677" type="line"/>
      <point x="-20" y="549" type="line"/>
    </contour>
    <contour>
      <point x="225" y="-92" type="move" name="nukta"/>
    </contour>
    <contour>
      <point x="519" y="0" type="move" name="bottom"/>
    </contour>
    <contour>
      <point x="421" y="677" type="move" name="top"/>
    </contour>
  </outline>
</glyph>
<glyph name="dha-deva" format="1">
  <advance width="733"/>
  <unicode hex="0927"/>
  <outline>
    <contour>
      <point x="413" y="68"/>
      <point x="479" y="101"/>
      <point x="538" y="149" type="curve"/>
      <point x="540" y="321" type="line"/>
      <point x="459" y="223"/>
      <point x="383" y="197"/>
      <point x="326" y="197" type="curve" smooth="yes"/>
      <point x="293" y="197"/>
      <point x="263" y="218"/>
      <point x="263" y="257" type="curve" smooth="yes"/>
      <point x="263" y="303"/>
      <point x="294" y="330"/>
      <point x="334" y="330" type="curve" smooth="yes"/>
      <point x="349" y="330"/>
      <point x="362" y="327"/>
      <point x="371" y="324" type="curve"/>
      <point x="380" y="448" type="line"/>
      <point x="365" y="455"/>
      <point x="343" y="459"/>
      <point x="318" y="459" type="curve" smooth="yes"/>
      <point x="214" y="459"/>
      <point x="104" y="384"/>
      <point x="104" y="270" type="curve" smooth="yes"/>
      <point x="104" y="144"/>
      <point x="198" y="68"/>
      <point x="327" y="68" type="curve" smooth="yes"/>
    </contour>
    <contour>
      <point x="322" y="407" type="line"/>
      <point x="230" y="449"/>
      <point x="198" y="502"/>
      <point x="198" y="534" type="curve" smooth="yes"/>
      <point x="198" y="561"/>
      <point x="215" y="576"/>
      <point x="240" y="576" type="curve" smooth="yes"/>
      <point x="268" y="576"/>
      <point x="292" y="565"/>
      <point x="314" y="551" type="curve"/>
      <point x="353" y="670" type="line"/>
      <point x="322" y="687"/>
      <point x="284" y="705"/>
      <point x="210" y="705" type="curve" smooth="yes"/>
      <point x="107" y="705"/>
      <point x="39" y="633"/>
      <point x="39" y="553" type="curve" smooth="yes"/>
      <point x="39" y="483"/>
      <point x="89" y="422"/>
      <point x="183" y="368" type="curve"/>
    </contour>
    <contour>
      <point x="644" y="0" type="line"/>
      <point x="644" y="610" type="line"/>
      <point x="485" y="610" type="line"/>
      <point x="485" y="0" type="line"/>
    </contour>
    <contour>
      <point x="733" y="549" type="line"/>
      <point x="733" y="677" type="line"/>
      <point x="397" y="677" type="line"/>
      <point x="397" y="549" type="line"/>
    </contour>
    <contour>
      <point x="98" y="-20" type="move" name="nukta"/>
    </contour>
    <contour>
      <point x="565" y="0" type="move" name="bottom"/>
    </contour>
    <contour>
      <point x="565" y="677" type="move" name="top"/>
    </contour>
  </outline>
</glyph>
<glyph name="na-deva" format="1">
  <advance width="658"/>
  <unicode hex="0928"/>
  <outline>
    <contour>
      <point x="239" y="338" type="line"/>
      <point x="164" y="278" type="line"/>
      <point x="509" y="278" type="line"/>
      <point x="509" y="406" type="line"/>
      <point x="160" y="406" type="line" smooth="yes"/>
      <point x="79" y="406"/>
      <point x="35" y="365"/>
      <point x="35" y="294" type="curve" smooth="yes"/>
      <point x="35" y="216"/>
      <point x="126" y="153"/>
      <point x="239" y="188" type="curve"/>
    </contour>
    <contour>
      <point x="569" y="0" type="line"/>
      <point x="569" y="610" type="line"/>
      <point x="411" y="610" type="line"/>
      <point x="411" y="0" type="line"/>
    </contour>
    <contour>
      <point x="658" y="549" type="line"/>
      <point x="658" y="677" type="line"/>
      <point x="-20" y="677" type="line"/>
      <point x="-20" y="549" type="line"/>
    </contour>
    <contour>
      <point x="213" y="0" type="move" name="nukta"/>
    </contour>
    <contour>
      <point x="490" y="0" type="move" name="bottom"/>
    </contour>
    <contour>
      <point x="490" y="677" type="move" name="top"/>
    </contour>
  </outline>
</glyph>
<glyph name="pa-deva" format="1">
  <advance width="626"/>
  <unicode hex="092A"/>
  <outline>
    <contour>
      <point x="326" y="143"/>
      <point x="389" y="169"/>
      <point x="431" y="208" type="curve"/>
      <point x="418" y="334" type="line"/>
      <point x="379" y="297"/>
      <point x="338" y="272"/>
      <point x="282" y="272" type="curve" smooth="yes"/>
      <point x="249" y="272"/>
      <point x="224" y="288"/>
      <point x="224" y="344" type="curve" smooth="yes"/>
      <point x="224" y="610" type="line"/>
      <point x="65" y="610" type="line"/>
      <point x="65" y="350" type="line" smooth="yes"/>
      <point x="65" y="210"/>
      <point x="137" y="143"/>
      <point x="269" y="143" type="curve" smooth="yes"/>
    </contour>
    <contour>
      <point x="537" y="0" type="line"/>
      <point x="537" y="610" type="line"/>
      <point x="378" y="610" type="line"/>
      <point x="378" y="0" type="line"/>
    </contour>
    <contour>
      <point x="626" y="549" type="line"/>
      <point x="626" y="677" type="line"/>
      <point x="-20" y="677" type="line"/>
      <point x="-20" y="549" type="line"/>
    </contour>
    <contour>
      <point x="153" y="7" type="move" name="nukta"/>
    </contour>
    <contour>
      <point x="458" y="0" type="move" name="bottom"/>
    </contour>
    <contour>
      <point x="458" y="677" type="move" name="top"/>
    </contour>
  </outline>
</glyph>
<glyph name="uni092B" format="1">
  <advance width="894"/>
  <unicode hex="092B"/>
  <outline>
    <contour>
      <point x="823" y="83"/>
      <point x="870" y="173"/>
      <point x="870" y="276" type="curve" smooth="yes"/>
      <point x="870" y="364"/>
      <point x="798" y="458"/>
      <point x="671" y="458" type="curve" smooth="yes"/>
      <point x="588" y="458"/>
      <point x="515" y="401"/>
      <point x="456" y="345" type="curve"/>
      <point x="458" y="199" type="line"/>
      <point x="524" y="262"/>
      <point x="602" y="329"/>
      <point x="662" y="329" type="curve" smooth="yes"/>
      <point x="692" y="329"/>
      <point x="711" y="312"/>
      <point x="711" y="282" type="curve" smooth="yes"/>
      <point x="711" y="229"/>
      <point x="667" y="161"/>
      <point x="622" y="99" type="curve"/>
      <point x="773" y="16" type="line"/>
    </contour>
    <contour>
      <point x="894" y="549" type="line"/>
      <point x="894" y="677" type="line"/>
      <point x="452" y="677" type="line"/>
      <point x="452" y="549" type="line"/>
    </contour>
    <component base="uni092A"/>
    <contour>
      <point x="153" y="7" type="move" name="nukta"/>
    </contour>
  </outline>
</glyph>
